<svg width="544" height="393" viewBox="0 0 544 393" fill="none" xmlns="http://www.w3.org/2000/svg">
<rect width="544" height="392" transform="translate(0 0.322144)" fill="#FFFDF1"/>
<path d="M349.312 65.5457C382.349 62.6135 406.811 73.184 422.841 91.5339C438.885 109.9 446.532 136.116 445.8 164.548C444.335 221.416 409.349 286.953 341.433 315.711C305.873 330.768 265.948 336.248 226.84 326.719C187.738 317.191 149.414 292.65 117.059 247.595C88.2129 207.427 94.2237 167.44 116.706 143.706C139.196 119.964 178.255 112.385 215.756 137.236C232.991 148.657 246.783 150.203 258.585 145.898C270.34 141.611 280.015 131.553 289.115 120.026C293.669 114.258 298.099 108.093 302.575 102.079C307.056 96.0577 311.588 90.1786 316.364 84.95C325.923 74.4863 336.404 66.6913 349.312 65.5457Z" fill="white" stroke="#FFFADA"/>
<path d="M302.192 262.109L306.01 252.699L211.192 214.443L207.862 224.538L207.872 224.542C206.263 228.388 209.785 234.325 218.666 241.408C235.073 254.863 261.564 264.139 282.291 266.472C293.54 267.738 300.247 266.157 302.011 262.532L302.019 262.535L302.082 262.38C302.122 262.29 302.159 262.201 302.192 262.109Z" fill="#EAC506"/>
<path d="M257.67 241.713C258.607 239.253 259.544 236.791 260.481 234.331L259.631 233.988C256.922 241.102 254.213 248.217 251.504 255.332C251.085 256.431 250.667 257.53 250.248 258.629C250.534 258.735 250.82 258.842 251.107 258.947C253.295 253.202 255.482 247.457 257.67 241.713Z" fill="url(#paint0_linear_58_372)"/>
<path d="M278.506 265.977C278.82 266.024 279.129 266.065 279.44 266.108C280.481 263.494 281.522 260.878 282.561 258.264C284.279 253.949 285.997 249.633 287.714 245.318L286.864 244.975C284.078 251.976 281.292 258.977 278.506 265.977Z" fill="url(#paint1_linear_58_372)"/>
<path d="M236.402 252.654C236.676 252.79 236.952 252.925 237.227 253.059C238.541 249.667 239.853 246.275 241.166 242.883L246.639 228.745L245.789 228.402L236.402 252.654Z" fill="url(#paint2_linear_58_372)"/>
<path d="M292.135 266.81C292.481 266.786 292.819 266.757 293.148 266.723C294.054 264.346 294.961 261.97 295.866 259.593C297.076 256.419 298.286 253.246 299.496 250.072L298.646 249.729C296.476 255.423 294.306 261.116 292.135 266.81Z" fill="url(#paint3_linear_58_372)"/>
<path d="M275.066 240.216L274.216 239.872C270.969 247.654 267.495 255.342 263.797 262.92C264.098 263 264.398 263.074 264.698 263.153C266.688 259.074 268.617 254.965 270.476 250.825C272.054 247.31 273.583 243.772 275.066 240.216Z" fill="url(#paint4_linear_58_372)"/>
<path d="M226.977 244.996C229.504 237.954 232.03 230.913 234.556 223.871L233.706 223.528L232.476 226.957C230.15 233.44 227.824 239.924 225.498 246.407C225.758 246.578 226.024 246.748 226.288 246.917C226.517 246.277 226.748 245.636 226.977 244.996Z" fill="url(#paint5_linear_58_372)"/>
<path d="M213.57 236.899C213.805 237.133 214.046 237.37 214.294 237.608C214.414 237.252 214.532 236.895 214.654 236.539C216.722 230.479 218.887 224.452 221.145 218.46L220.298 218.118C217.953 224.341 215.71 230.602 213.57 236.899Z" fill="url(#paint6_linear_58_372)"/>
<path d="M305.272 252.294C302.046 259.63 275.065 256.544 252.481 247.831C229.166 238.838 209.904 222.423 212.543 215.054C215.329 207.275 241.998 210.316 265.156 219.494C288.659 228.811 308.566 244.801 305.272 252.294Z" fill="url(#paint7_linear_58_372)"/>
<path d="M301.048 255.437C293.896 251.532 286.702 247.643 279.508 243.753C287.837 246.968 296.149 250.207 304.453 253.512C304.801 253.144 305.079 252.738 305.275 252.294C305.472 251.847 305.583 251.37 305.619 250.869C297.311 247.556 288.994 244.3 280.662 241.068C288.663 243.048 296.686 245.074 304.757 247.171C304.157 245.918 303.265 244.585 302.133 243.206C294.165 241.167 286.236 239.184 278.324 237.235C284.731 237.657 291.151 238.088 297.57 238.52C295.933 237.052 294.096 235.568 292.095 234.096C285.716 233.692 279.335 233.285 272.96 232.884C276.992 231.716 281.018 230.545 285.033 229.368C282.739 227.962 280.312 226.588 277.761 225.259C273.64 226.401 269.537 227.551 265.45 228.711C266.601 226.159 267.84 223.646 269.223 221.19C267.893 220.612 266.539 220.046 265.158 219.494C263.769 218.94 262.385 218.414 261.007 217.912C259.478 220.322 258.126 222.801 256.898 225.338C255.021 221.81 253.33 218.343 251.895 214.939C249.078 214.124 246.306 213.421 243.605 212.827C244.998 216.235 246.658 219.708 248.519 223.248C243.843 219.236 239.334 215.25 235.002 211.272C232.467 210.922 230.051 210.69 227.801 210.588C232.225 214.631 236.821 218.682 241.58 222.76C234.654 218.769 227.851 214.764 221.143 210.725C219.346 210.913 217.766 211.238 216.46 211.716C223.269 215.837 230.179 219.92 237.227 223.99C229.167 220.67 221.216 217.287 213.281 213.773C212.961 214.162 212.712 214.588 212.544 215.054C212.377 215.517 212.295 216.009 212.287 216.527C220.208 220.067 228.143 223.462 236.207 226.791C228.631 224.788 221.07 222.684 213.342 220.352C214.006 221.651 214.966 223.032 216.166 224.46C223.766 226.781 231.224 228.775 238.638 230.711C232.81 230.302 226.964 229.881 220.932 229.299C222.623 230.809 224.5 232.325 226.516 233.814C232.441 234.313 238.225 234.693 244.002 235.07C240.451 236.191 236.923 237.326 233.52 238.528C235.761 239.906 238.103 241.23 240.538 242.488C244.095 241.342 247.739 240.244 251.395 239.154C250.513 241.545 249.632 243.936 248.632 246.279C249.892 246.812 251.173 247.33 252.482 247.831C253.784 248.331 255.083 248.804 256.381 249.255C257.683 247.036 258.75 244.721 259.783 242.391C261.693 245.619 263.502 248.813 265.08 251.953C267.795 252.698 270.498 253.354 273.165 253.923C271.674 250.8 269.931 247.618 268.066 244.395C272.691 248.091 277.29 251.783 281.79 255.472C284.361 255.841 286.841 256.109 289.168 256.256C284.552 252.474 279.789 248.684 275.035 244.895C282.074 248.686 289.116 252.475 296.114 256.281C298 256.144 299.664 255.869 301.048 255.437Z" fill="#0B0F15"/>
<path d="M252.591 247.186C241.285 242.847 232.086 237.261 225.196 231.803C209.844 219.64 211.759 210.131 232.381 212.162C251.35 214.032 277.758 224.179 292.713 236.264C308.338 248.892 303.619 257.024 283.869 254.839C274.826 253.839 263.991 251.552 252.591 247.186ZM264.314 220.505C252.748 215.901 241.949 213.428 232.674 212.43C212.374 210.242 210.49 219.614 225.575 231.835C240.359 243.812 264.853 252.803 283.571 254.595C303.102 256.465 308.224 248.684 292.287 236.237C285.069 230.599 275.709 225.044 264.314 220.505Z" fill="#0B0F15"/>
<path d="M215.023 217.192C217.324 209.074 244.539 212.126 267.313 221.393C278.738 226.041 288 231.298 296.197 237.326C288.853 231.018 277.458 224.424 265.158 219.494C242 210.213 215.036 207.035 212.545 215.054C211.216 219.328 216.263 225.975 224.912 232.599C217.854 226.744 213.941 221.012 215.023 217.192Z" fill="#EAC506"/>
<path d="M222.682 231.487C205.264 217.59 208.425 208.095 230.584 210.174C251.248 212.114 279.752 223.224 296.04 236.386C313.172 250.23 308.812 259.084 286.307 256.55C265.58 254.217 239.09 244.942 222.682 231.487ZM293.922 236.25C278.601 223.669 251.423 213.369 232.018 211.501C211.189 209.496 208.278 218.644 224.555 231.654C240.29 244.232 265.231 253.393 284.836 255.338C305.38 257.379 310.507 249.45 293.922 236.25Z" fill="#EBEBEC"/>
<path d="M212.55 220.431C211.739 218.732 211.271 216.855 211.687 215.593C214.386 207.413 242.31 210.563 266.326 220.179C279.398 225.413 291.498 232.448 299.225 239.14C291.714 232.251 279.194 224.554 265.409 219.091C241.713 209.7 213.897 206.333 211.191 214.444C210.653 216.058 211.327 218.222 212.55 220.431Z" fill="#EBEBEC"/>
<path d="M288.766 236.526C294.327 241.203 297.141 245.673 295.95 248.592C293.448 254.721 272.247 252.447 253.669 245.348C244.741 241.936 236.573 237.316 230.76 232.769C236.625 237.699 245.374 242.814 255.137 246.529C273.61 253.558 295.036 256 297.624 249.916C298.978 246.73 295.412 241.682 288.766 236.526Z" fill="#EAC506"/>
<path d="M295.947 248.592C293.296 254.595 272.257 252.394 253.667 245.348C234.037 237.908 219.274 225.021 221.423 218.969C223.669 212.64 244.038 214.346 263.587 222.199C282.549 229.817 298.643 242.486 295.947 248.592Z" fill="#0B0F15"/>
<path d="M221.926 221.406C224.156 214.351 245.186 215.602 266.676 223.479C265.663 223.043 264.625 222.615 263.585 222.199C244.106 214.403 223.773 212.647 221.421 218.968C221.017 220.055 221.166 221.339 221.746 222.733C221.744 222.271 221.794 221.822 221.926 221.406Z" fill="#EAC506"/>
<path d="M253.51 245.695C233.221 238.038 218.01 224.67 220.214 218.444C222.525 211.917 243.683 213.744 263.795 221.825C283.326 229.673 300.001 242.803 297.214 249.09C294.477 255.264 272.692 252.997 253.51 245.695ZM263.385 222.574C244.381 214.919 224.902 213.373 222.633 219.491C220.428 225.438 234.923 237.773 253.824 245C271.84 251.887 292.26 254.03 294.684 248.096C297.138 242.092 282.117 230.011 263.385 222.574Z" fill="#EBEBEC"/>
<path d="M246.642 210.479C242.633 210.479 239.383 207.229 239.383 203.219C239.383 207.229 236.132 210.479 232.123 210.479C236.132 210.479 239.383 213.729 239.383 217.739C239.383 213.729 242.632 210.479 246.642 210.479Z" fill="#EAC506"/>
<path d="M149.201 102.365C145.631 124.711 147.051 147.532 161.934 168.042C182.684 195.564 228.077 204.726 262.506 184.846C283.829 172.534 294.396 152.638 298.261 131.301L149.201 102.365Z" fill="#EAC506"/>
<path d="M148.055 131.376C154.36 124.239 160.413 116.88 166.195 109.313C167.002 108.257 167.801 107.194 168.597 106.13L170.529 106.504C165.246 113.6 159.733 120.525 153.992 127.256C152.13 129.439 150.241 131.6 148.332 133.742C148.228 132.955 148.137 132.166 148.055 131.376ZM275.756 174.483C275.742 163.517 275.922 152.552 276.296 141.592C276.46 136.779 276.668 131.967 276.907 127.156L275.154 126.816C274.979 130.32 274.816 133.826 274.679 137.331C274.252 148.343 274.02 159.362 273.984 170.381C273.977 172.465 273.984 174.548 273.992 176.631C274.593 176.103 275.183 175.567 275.759 175.025C275.759 174.843 275.757 174.663 275.756 174.483ZM218.809 154.752C221.288 142.273 223.93 129.827 226.72 117.413L224.968 117.073C219.494 141.425 214.614 165.911 210.343 190.504C210.104 191.878 209.878 193.254 209.643 194.629C210.229 194.715 210.816 194.794 211.403 194.868C213.695 181.464 216.16 168.09 218.809 154.752ZM182.027 108.737L180.178 108.378C177.934 112.235 175.689 116.092 173.445 119.949C166.891 131.214 160.338 142.479 153.784 153.744C154.071 154.411 154.369 155.077 154.678 155.741C156.424 152.741 158.169 149.74 159.916 146.74C167.286 134.072 174.657 121.405 182.027 108.737ZM209.882 114.145C205.87 127.893 201.858 141.642 197.846 155.39C194.629 166.415 191.396 177.437 188.356 188.513C188.903 188.756 189.452 188.993 190.006 189.223C192.607 179.723 195.355 170.262 198.11 160.818C202.616 145.373 207.124 129.929 211.63 114.484L209.882 114.145ZM260.667 185.715C261.639 173.688 262.415 161.646 262.996 149.594C263.397 141.278 263.697 132.956 263.911 124.632L262.145 124.289C261.973 131.111 261.746 137.931 261.448 144.748C260.921 156.821 260.194 168.885 259.27 180.934C259.118 182.907 258.953 184.88 258.791 186.852C259.415 186.536 260.036 186.212 260.654 185.878C260.658 185.824 260.663 185.77 260.667 185.715ZM288.746 147.263C287.998 141.222 287.387 135.165 286.904 129.096L285.084 128.743C285.088 128.786 285.09 128.83 285.094 128.873C285.883 138.875 287.035 148.847 288.538 158.768C289.025 157.918 289.5 157.062 289.952 156.195C289.519 153.222 289.115 150.245 288.746 147.263ZM243.375 141.245L245.939 121.145L244.191 120.805C241.988 138.074 239.784 155.343 237.581 172.612C236.648 179.92 235.716 187.229 234.782 194.537C235.393 194.443 236.004 194.341 236.613 194.233C238.867 176.571 241.12 158.908 243.375 141.245ZM168.65 170.462C172.907 161.222 177.163 151.982 181.42 142.741C185.677 133.501 189.933 124.261 194.19 115.02C194.743 113.82 195.296 112.62 195.849 111.419L194.049 111.07C189.838 120.212 185.626 129.354 181.415 138.497C177.158 147.737 172.901 156.977 168.645 166.217C167.67 168.333 166.696 170.449 165.721 172.565C166.154 173.034 166.593 173.498 167.042 173.954C167.577 172.791 168.114 171.627 168.65 170.462Z" fill="url(#paint8_linear_58_372)"/>
<path d="M298.3 126.325C290.744 162.894 245.94 188.557 210.189 183.396C173.281 178.066 145.353 134.605 151.925 98.7446C158.862 60.8911 203.149 35.4804 239.74 41.8401C276.875 48.2944 306.017 88.9789 298.3 126.325Z" fill="url(#paint9_linear_58_372)"/>
<path d="M290.243 146.115C279.249 139.497 268.177 133.012 257.107 126.521C270.292 128.43 283.441 130.474 296.557 132.814C297.252 130.706 297.837 128.544 298.296 126.326C298.758 124.097 299.082 121.863 299.287 119.631C286.165 117.262 273.012 115.159 259.828 113.174C272.809 110.194 285.815 107.383 298.883 104.807C298.226 100.223 297.096 95.722 295.571 91.3681C282.663 94.0461 269.804 96.9097 256.964 99.8971C267.692 92.4493 278.438 85.029 289.184 77.6053C286.831 73.5943 284.144 69.8077 281.176 66.3038C270.491 73.786 259.802 81.2621 249.123 88.752C256.284 77.8339 263.435 66.9088 270.569 55.9726C267.086 53.1863 263.368 50.7275 259.43 48.6443C252.127 59.5736 244.85 70.5201 237.6 81.4847C240.277 68.7222 243.093 56.0018 246.134 43.3218C244.048 42.734 241.916 42.2346 239.735 41.8402C237.542 41.4431 235.349 41.1604 233.158 40.9764C229.881 53.6668 226.884 66.4061 224.082 79.209C221.911 66.5891 220.039 53.9658 218.581 41.2437C214.043 41.7834 209.55 42.74 205.148 44.0695C206.533 56.869 208.353 69.5645 210.493 82.2599C203.721 71.5867 197.224 60.7906 191.024 49.7753C186.834 51.9221 182.809 54.4179 179.028 57.2308C185.364 68.3991 191.989 79.3559 198.884 90.1881C188.296 82.8684 177.921 75.3106 167.715 67.4683C164.618 70.8888 161.85 74.5904 159.502 78.5618C169.856 86.6138 180.389 94.3581 191.16 101.843C178.462 99.0815 165.964 95.8913 153.533 92.1115C152.88 94.2678 152.337 96.4774 151.92 98.7446C151.506 101 151.226 103.26 151.064 105.519C163.464 109.438 175.931 112.705 188.634 115.494C176.379 117.759 164.177 119.564 151.76 120.619C152.512 125.304 153.742 129.918 155.367 134.388C167.572 133.472 179.63 131.338 191.632 129.013C181.882 135.675 172.105 142.311 162.056 148.52C164.489 152.636 167.234 156.509 170.221 160.063C180.111 153.65 189.796 146.923 199.47 140.192C193.138 150.212 186.84 160.254 180.734 170.413C184.137 173.154 187.723 175.52 191.486 177.466C197.837 167.33 204.32 157.28 210.821 147.241C208.645 158.913 206.47 170.587 204.108 182.223C206.089 182.714 208.111 183.108 210.184 183.396C212.246 183.682 214.31 183.857 216.378 183.937C219.216 172.408 221.684 160.794 224.098 149.171C226.41 160.439 228.561 171.703 230.337 183.068C234.721 182.376 239.11 181.311 243.464 179.919C241.832 168.501 239.788 157.194 237.551 145.879C244.325 155.249 251.059 164.639 257.627 174.156C261.874 172.037 265.997 169.606 269.896 166.875C263.16 157.122 256.176 147.544 249.209 137.957C260.044 144.243 270.885 150.517 281.648 156.928C284.88 153.604 287.777 149.997 290.243 146.115Z" fill="#0B0F15"/>
<path d="M210.558 180.433C192.654 177.949 178.673 166.989 168.565 153.238C146.044 122.599 152.001 78.4795 186.336 57.4424C217.921 38.0915 259.738 43.9528 281.608 74.8338C304.459 107.099 294.147 149.289 261.331 168.399C246.307 177.148 228.614 182.903 210.558 180.433ZM238.023 47.4576C219.754 44.1961 202.177 49.0888 186.756 58.1815C153.009 78.079 147.143 121.553 169.197 152.831C190.809 183.484 229.715 187.093 260.896 167.771C293.431 147.611 304.324 106.362 280.896 75.3305C270.284 61.2755 256.021 50.6873 238.023 47.4576Z" fill="#0B0F15"/>
<path d="M155.51 104.449C161.724 65.8216 206.932 39.6718 242.846 46.9701C260.861 50.6312 275.044 60.0703 287.202 74.4004C276.568 57.6184 259.157 45.454 239.739 41.8393C203.178 35.0335 158.432 60.2731 151.924 98.7437C148.453 119.255 155.101 140.841 167.856 157.107C157.575 141.881 152.586 122.628 155.51 104.449Z" fill="#EAC506"/>
<path d="M164.392 155.507C138.865 120.327 146.928 74.4648 183.854 51.408C218.288 29.9086 263.378 36.9207 287.199 70.5501C312.253 105.922 302.343 150.727 264.964 172.311C230.535 192.191 188.331 190.237 164.392 155.507ZM283.653 73.0218C261.302 40.5234 218.227 35.1081 185.904 55.0958C151.21 76.5506 143.669 120.54 167.514 153.526C190.565 185.416 230.18 189.115 262.819 169.176C297.021 148.282 307.964 106.391 283.653 73.0218Z" fill="#EBEBEC"/>
<path d="M150.38 121.981C149.491 115.771 149.255 108.417 150.32 102.331C157.224 62.8549 203.605 36.1026 241.525 43.1233C262.163 46.9443 280.642 59.9973 291.814 77.9026C281.065 58.831 262.046 43.596 240.283 39.7217C201.775 32.8677 156.707 58.8723 149.81 98.0519C148.436 105.849 148.939 114.147 150.38 121.981Z" fill="#EBEBEC"/>
<path d="M274.84 81.6979C282.921 93.9765 286.411 109.331 283.56 123.747C277.574 154.018 242.326 174.841 212.899 170.886C198.755 168.985 186.244 160.733 177.699 149.385C186.224 162.32 199.576 171.888 215.046 173.896C244.316 177.697 279.897 157.278 286.015 127.079C289.219 111.263 284.621 94.4862 274.84 81.6979Z" fill="#EAC506"/>
<path d="M283.557 123.748C277.355 153.688 242.36 174.593 212.896 170.887C181.785 166.974 160.468 132.33 165.833 102.907C171.444 72.1393 205.445 50.0485 236.301 55.8755C266.232 61.5271 289.866 93.2915 283.557 123.748Z" fill="#0B0F15"/>
<path d="M165.997 112.77C171.785 78.8686 207.036 53.8455 241.174 56.96C239.583 56.5329 237.947 56.1779 236.306 55.8754C205.551 50.1963 171.625 72.0163 165.837 102.907C164.843 108.215 164.73 113.583 165.312 118.804C165.441 116.797 165.655 114.772 165.997 112.77Z" fill="#EAC506"/>
<path d="M212.535 172.622C180.368 168.723 158.429 132.638 163.94 102.376C169.717 70.6513 205.017 47.9469 236.763 53.95C267.591 59.7795 292.078 92.7059 285.563 124.08C279.168 154.884 242.93 176.582 212.535 172.622ZM235.855 57.8011C205.865 52.043 173.324 73.5424 167.736 103.424C162.304 132.475 183.325 165.108 213.265 169.143C241.803 172.989 275.765 152.728 281.564 123.419C287.433 93.7639 265.448 62.999 235.855 57.8011Z" fill="#EBEBEC"/>
<path d="M259.766 40.9764C251.247 40.9764 244.342 34.0709 244.342 25.5522C244.342 34.0709 237.437 40.9764 228.918 40.9764C237.437 40.9764 244.342 47.8819 244.342 56.4006C244.341 47.8819 251.247 40.9764 259.766 40.9764Z" fill="#FBEC99"/>
<path d="M215.803 309.479L108.883 259.171L103.94 271.299L103.95 271.304C101.107 278.125 104.8 287.868 114.924 298.351C134.218 318.33 168.464 332.1 192.727 330.067C202.566 329.451 208.169 326.352 210.204 321.655L210.208 321.657L215.803 309.479Z" fill="#EAC506"/>
<path d="M142.529 314.904L141.355 317.558C141.747 317.762 142.142 317.961 142.535 318.16C145.496 311.464 148.457 304.768 151.417 298.073C153.721 292.86 156.026 287.649 158.331 282.436L157.134 281.872C152.265 292.883 147.397 303.894 142.529 314.904Z" fill="#0B0F15"/>
<path d="M161.526 314.024C164.836 305.554 168.146 297.083 171.456 288.613L170.258 288.049C169.868 289.047 169.478 290.044 169.088 291.042C164.785 302.054 160.483 313.065 156.18 324.077C156.594 324.227 157.007 324.381 157.422 324.526C158.79 321.026 160.158 317.525 161.526 314.024Z" fill="#0B0F15"/>
<path d="M195.47 301.614C191.813 311.088 188.303 320.618 184.926 330.194C185.387 330.213 185.846 330.23 186.303 330.24C187.458 326.972 188.624 323.707 189.812 320.45C192.216 313.854 194.697 307.286 197.234 300.74L196.034 300.175C195.846 300.655 195.656 301.134 195.47 301.614Z" fill="#0B0F15"/>
<path d="M206.296 309.246C204.16 315.836 202.023 322.426 199.887 329.016C200.413 328.883 200.921 328.74 201.407 328.586C201.575 328.066 201.745 327.546 201.913 327.026C204.171 320.061 206.429 313.096 208.687 306.13L207.488 305.567C207.091 306.792 206.694 308.018 206.296 309.246Z" fill="#0B0F15"/>
<path d="M131.195 269.668L129.999 269.105C129.51 270.032 129.022 270.958 128.533 271.884C123.92 280.624 119.308 289.366 114.695 298.106C114.774 298.188 114.848 298.269 114.928 298.351C115.17 298.6 115.423 298.845 115.669 299.093C116.646 297.241 117.623 295.389 118.6 293.538C122.798 285.582 126.996 277.625 131.195 269.668Z" fill="#0B0F15"/>
<path d="M183.324 304.737C184.553 301.802 185.781 298.866 187.01 295.931L185.813 295.368C182.789 302.591 179.766 309.816 176.742 317.039C175.135 320.875 173.53 324.712 171.924 328.549C172.365 328.639 172.807 328.732 173.246 328.814C176.606 320.788 179.965 312.763 183.324 304.737Z" fill="#0B0F15"/>
<path d="M130.801 304.994C135.372 295.309 139.945 285.623 144.516 275.937L143.319 275.374C142.46 277.194 141.602 279.012 140.743 280.832C136.305 290.234 131.867 299.637 127.43 309.039C127.792 309.298 128.162 309.553 128.529 309.809C129.286 308.203 130.043 306.599 130.801 304.994Z" fill="#0B0F15"/>
<path d="M107.906 280.961C111.074 275.034 114.241 269.109 117.408 263.182L116.211 262.619C112.406 269.739 108.6 276.86 104.795 283.98C105.005 284.479 105.235 284.984 105.483 285.494C106.291 283.983 107.099 282.472 107.906 280.961Z" fill="#0B0F15"/>
<path d="M168.331 258.108C195.708 269.535 217.418 293.244 215.88 306.254C214.294 319.685 184.089 320.762 157.296 309.89C129.014 298.412 107.523 274.967 109.887 261.899C112.288 248.637 140.372 246.437 168.331 258.108Z" fill="url(#paint10_linear_58_372)"/>
<path d="M183.398 265.865C179.225 268.707 175.155 271.611 171.081 274.512C171.651 269.715 172.323 264.963 173.216 260.293C171.621 259.531 169.994 258.801 168.333 258.107C166.664 257.41 165.001 256.767 163.346 256.171C162.432 260.837 161.717 265.577 161.091 270.356C158.078 264.513 155.188 258.7 152.467 252.916C149.137 252.121 145.897 251.533 142.792 251.135C145.578 256.879 148.498 262.646 151.506 268.434C145.35 262.457 139.211 256.479 133.072 250.5C130.27 250.511 127.655 250.705 125.265 251.077C131.444 257.045 137.619 263.013 143.804 268.98C135.319 263.62 126.832 258.262 118.336 252.909C116.508 253.65 114.933 254.56 113.65 255.644C122.151 261.063 130.663 266.476 139.187 271.882C129.63 267.878 120.096 263.828 110.576 259.699C110.275 260.393 110.043 261.124 109.89 261.899C109.737 262.679 109.667 263.485 109.67 264.312C119.212 268.538 128.771 272.663 138.366 276.727C129.22 274.681 120.054 272.516 110.788 270.164C111.472 272.091 112.46 274.096 113.716 276.151C123.043 278.551 132.267 280.752 141.469 282.828C134.047 283.058 126.515 283.151 118.806 283.075C120.65 285.234 122.74 287.408 125.048 289.558C132.862 289.615 140.503 289.508 148.035 289.266C143.321 291.785 138.418 294.164 133.294 296.411C136.005 298.429 138.903 300.382 141.973 302.229C147.241 299.973 152.272 297.573 157.096 295.02C155.868 299.427 154.312 303.656 152.317 307.722C153.945 308.478 155.604 309.203 157.298 309.89C158.984 310.574 160.664 311.206 162.336 311.791C164.435 307.769 166.05 303.57 167.298 299.168C169.739 304.558 171.839 309.82 173.399 314.995C176.798 315.775 180.114 316.35 183.299 316.734C181.854 311.675 179.521 306.394 177.053 301.092C182.569 306.499 188.069 311.912 193.272 317.333C196.146 317.316 198.821 317.117 201.246 316.75C195.904 311.345 190.344 305.948 184.781 300.554C192.552 305.378 200.336 310.193 208.195 314.959C209.996 314.24 211.51 313.36 212.702 312.314C204.846 307.456 197.043 302.565 189.248 297.67C197.971 301.224 206.695 304.778 215.404 308.397C215.639 307.723 215.802 307.01 215.882 306.253C215.962 305.5 215.961 304.721 215.889 303.918C207.23 300.135 198.531 296.478 189.828 292.841C197.97 294.52 206.12 296.261 214.368 298.174C213.582 296.273 212.52 294.284 211.222 292.234C202.926 290.252 194.738 288.458 186.556 286.739C193.02 286.207 199.502 285.697 206.087 285.281C204.26 283.105 202.211 280.908 199.956 278.73C193.207 279.158 186.604 279.725 179.992 280.283C183.931 277.428 187.861 274.568 191.896 271.77C189.245 269.722 186.409 267.74 183.398 265.865Z" fill="#0B0F15"/>
<path d="M213.678 305.425C212.983 311.963 205.805 314.991 196.329 315.838C175.215 317.723 142.386 305.191 124.741 286.707C108.51 269.703 110.178 254.444 131.51 252.873C153.8 251.232 185.486 265.049 201.616 282.487C209.003 290.469 214.354 298.823 213.678 305.425ZM114.129 263.876C112.885 270.381 117.595 278.49 125.258 286.709C142.027 304.698 174.377 317.044 195.99 315.492C217.171 313.971 217.367 299.35 201.183 282.513C184.296 264.946 153.267 251.115 131.922 253.27C122.254 254.247 115.367 257.471 114.129 263.876Z" fill="#0B0F15"/>
<path d="M161.27 309.78C132.464 298.411 110.371 274.43 113.468 261.847C115.022 255.535 121.069 252.077 130.841 250.55C119.17 250.906 111.322 255.019 109.891 261.899C107.196 274.852 128.591 298.44 157.3 309.889C172.607 315.993 188.065 318.327 199.224 317.009C188.674 317.584 174.827 315.13 161.27 309.78Z" fill="#EAC506"/>
<path d="M198.261 318.015C173.997 320.048 139.752 306.277 120.458 286.299C102.467 267.668 104.775 251.375 128.006 249.663C152.44 247.863 186.024 262.123 204.264 281.943C221.064 300.198 222.295 316.511 198.261 318.015ZM130.048 251.642C107.556 253.031 106.296 268.891 123.042 286.335C141.017 305.059 173.851 318.189 196.607 316.32C218.608 314.512 218.823 299.631 202.094 282.072C184.563 263.673 153.056 249.675 130.048 251.642Z" fill="#EBEBEC"/>
<path d="M174.39 316.003C169.878 314.926 164.584 313.179 160.039 311.353C130.565 299.515 107.955 274.929 110.722 261.487C112.228 254.17 120.661 249.838 133.125 249.526C119.777 249.401 109.704 253.417 108.298 261.195C105.882 274.567 127.669 298.803 156.924 310.57C162.745 312.911 168.718 314.77 174.39 316.003Z" fill="#EBEBEC"/>
<path d="M136.988 257.141C145.509 256.761 156.583 258.913 167.367 263.367C190.012 272.719 207.557 291.517 206.509 302.294C206.004 307.474 200.725 310.541 192.918 311.32C201.893 310.916 208.087 307.817 208.587 302.135C209.532 291.385 192.263 272.548 169.663 263.16C157.827 258.243 145.776 256.203 136.988 257.141Z" fill="#EAC506"/>
<path d="M167.37 263.367C189.785 272.729 207.374 291.446 206.511 302.294C205.6 313.749 181.465 314.233 159.482 305.323C136.495 296.005 118.097 277.41 120.433 266.497C122.698 255.912 144.569 253.844 167.37 263.367Z" fill="#0B0F15"/>
<path d="M166.728 307.532C141.426 297.422 120.791 277.655 120.924 264.813C120.71 265.347 120.552 265.915 120.434 266.497C118.201 277.404 136.396 295.906 159.483 305.322C163.45 306.941 167.407 308.223 171.209 309.194C169.726 308.68 168.223 308.128 166.728 307.532Z" fill="#EAC506"/>
<path d="M207.81 302.84C206.976 314.718 181.82 315.116 159.211 305.955C135.51 296.351 116.578 277.099 118.986 265.873C121.326 254.972 143.998 252.834 167.487 262.649C190.55 272.287 208.801 291.679 207.81 302.84ZM121.877 267.12C119.538 277.705 137.41 295.583 159.742 304.688C181.455 313.539 204.131 312.71 205.205 301.748C206.229 291.299 189.179 273.142 167.255 264.085C145.07 254.921 123.83 256.564 121.877 267.12Z" fill="#EBEBEC"/>
<path d="M114.107 264.165C113.653 263.456 113.956 262.488 114.755 262.224C114.98 262.15 115.211 262.092 115.45 262.05L121.106 261.08L115.45 260.11C115.211 260.069 114.98 260.01 114.755 259.936C113.956 259.672 113.653 258.703 114.107 257.994C114.185 257.874 114.266 257.756 114.353 257.641L117.792 253.081L113.232 256.521C113.228 256.524 113.223 256.528 113.219 256.531C112.459 257.1 111.331 256.59 111.22 255.647C111.215 255.61 111.211 255.574 111.208 255.537L110.763 250.857L109.793 240.634L108.823 250.857L108.378 255.537C108.375 255.574 108.371 255.611 108.366 255.647C108.255 256.589 107.127 257.1 106.367 256.531C106.362 256.528 106.358 256.524 106.354 256.521L101.794 253.081L105.233 257.641C105.32 257.756 105.402 257.874 105.479 257.994C105.933 258.703 105.631 259.671 104.831 259.936C104.606 260.01 104.375 260.069 104.136 260.11L98.4805 261.08L104.136 262.05C104.375 262.092 104.606 262.15 104.831 262.224C105.63 262.488 105.933 263.457 105.479 264.166C105.401 264.287 105.32 264.404 105.233 264.519L101.794 269.079L106.354 265.64C106.359 265.637 106.363 265.633 106.367 265.63C107.127 265.061 108.255 265.572 108.366 266.514C108.371 266.551 108.375 266.587 108.378 266.624L108.823 271.304L109.793 281.527L110.763 271.304L111.208 266.624C111.211 266.587 111.215 266.55 111.22 266.514C111.331 265.572 112.459 265.061 113.219 265.63C113.223 265.633 113.228 265.637 113.232 265.64L117.792 269.079L114.353 264.519C114.266 264.403 114.185 264.285 114.107 264.165Z" fill="#FBEC99"/>
<path d="M398.172 269.215L441.906 305.879L445.708 300.825L445.704 300.822C447.872 297.986 447.347 292.982 443.911 286.839C437.361 275.133 423.066 264.483 411.484 262.444C406.813 261.52 403.816 262.276 402.286 264.22L402.284 264.218L398.172 269.215Z" fill="#EAC506"/>
<path d="M433.058 275.708L433.933 274.614C433.775 274.47 433.615 274.329 433.456 274.187C431.249 276.949 429.042 279.712 426.835 282.474C425.117 284.624 423.398 286.774 421.68 288.924L422.17 289.335C425.799 284.793 429.428 280.251 433.058 275.708Z" fill="#0B0F15"/>
<path d="M424.08 273.779C421.491 277.327 418.902 280.875 416.312 284.423L416.802 284.834C417.107 284.416 417.413 283.998 417.718 283.58C421.083 278.967 424.449 274.356 427.815 269.743C427.641 269.622 427.466 269.499 427.29 269.38C426.22 270.847 425.15 272.313 424.08 273.779Z" fill="#0B0F15"/>
<path d="M406.7 275.394C409.575 271.42 412.388 267.402 415.145 263.346C414.932 263.28 414.72 263.217 414.507 263.155C413.565 264.539 412.619 265.919 411.663 267.295C409.728 270.078 407.761 272.84 405.77 275.585L406.261 275.996C406.406 275.795 406.554 275.595 406.7 275.394Z" fill="#0B0F15"/>
<path d="M402.583 270.496C404.393 267.681 406.202 264.867 408.012 262.053C407.749 262.05 407.495 262.054 407.248 262.066C407.106 262.289 406.963 262.511 406.82 262.733C404.907 265.708 402.995 268.682 401.082 271.657L401.572 272.068C401.91 271.543 402.247 271.02 402.583 270.496Z" fill="#0B0F15"/>
<path d="M432.783 298.23L433.272 298.64C433.614 298.268 433.957 297.895 434.299 297.523C437.53 294.01 440.76 290.496 443.991 286.982C443.964 286.934 443.939 286.887 443.913 286.839C443.831 286.693 443.743 286.547 443.658 286.401C442.974 287.146 442.29 287.89 441.605 288.634C438.664 291.832 435.723 295.031 432.783 298.23Z" fill="#0B0F15"/>
<path d="M412.757 275.431C411.822 276.651 410.886 277.87 409.951 279.09L410.441 279.5C412.743 276.499 415.045 273.498 417.346 270.497C418.569 268.903 419.792 267.309 421.014 265.715C420.819 265.619 420.623 265.522 420.428 265.429C417.872 268.764 415.315 272.097 412.757 275.431Z" fill="#0B0F15"/>
<path d="M437.32 281.781C433.992 285.741 430.664 289.702 427.336 293.662L427.826 294.073C428.451 293.329 429.075 292.585 429.701 291.842C432.932 287.997 436.162 284.153 439.393 280.309C439.255 280.143 439.114 279.979 438.974 279.814C438.422 280.469 437.872 281.124 437.32 281.781Z" fill="#0B0F15"/>
<path d="M445.047 295.824C442.838 298.201 440.629 300.579 438.42 302.957L438.909 303.367C441.563 300.51 444.218 297.654 446.871 294.797C446.835 294.538 446.79 294.275 446.737 294.006C446.173 294.612 445.61 295.218 445.047 295.824Z" fill="#0B0F15"/>
<path d="M414.009 299.054C402.632 290.345 395.414 276.6 397.734 270.713C400.13 264.636 414.368 267.853 425.54 276.231C437.334 285.074 444.483 298.671 441.768 304.482C439.014 310.379 425.628 307.947 414.009 299.054Z" fill="url(#paint11_linear_58_372)"/>
<path d="M407.928 293.574C410.227 292.761 412.485 291.907 414.745 291.053C413.887 293.223 412.988 295.359 411.997 297.431C412.647 297.983 413.317 298.525 414.008 299.053C414.701 299.584 415.399 300.089 416.098 300.572C417.099 298.506 418.017 296.38 418.898 294.226C419.585 297.326 420.219 300.396 420.776 303.432C422.234 304.213 423.674 304.887 425.075 305.456C424.481 302.431 423.829 299.377 423.136 296.304C425.275 299.853 427.405 303.401 429.536 306.949C430.845 307.29 432.091 307.521 433.253 307.642C431.102 304.094 428.954 300.547 426.801 296.998C430.103 300.547 433.406 304.094 436.714 307.64C437.66 307.519 438.507 307.288 439.24 306.94C435.937 303.362 432.63 299.786 429.315 296.212C433.284 299.258 437.239 302.324 441.176 305.426C441.402 305.139 441.6 304.826 441.767 304.483C441.934 304.137 442.066 303.77 442.167 303.383C438.231 300.234 434.274 297.13 430.294 294.05C434.313 296.132 438.327 298.273 442.365 300.512C442.283 299.528 442.069 298.47 441.735 297.356C437.675 295.086 433.638 292.922 429.597 290.819C433.091 291.626 436.62 292.51 440.211 293.495C439.616 292.259 438.908 290.987 438.095 289.699C434.452 288.71 430.871 287.819 427.323 287.004C429.836 286.408 432.418 285.901 435.087 285.483C434.07 284.206 432.957 282.938 431.751 281.697C429.013 282.102 426.369 282.603 423.801 283.201C424.917 281.294 426.165 279.511 427.598 277.858C426.931 277.304 426.245 276.761 425.538 276.232C424.835 275.705 424.129 275.202 423.42 274.723C421.944 276.343 420.673 278.105 419.547 280.007C419.071 277.19 418.74 274.473 418.648 271.865C417.157 271.082 415.679 270.405 414.239 269.833C414.29 272.374 414.73 275.127 415.229 277.908C413.318 274.703 411.417 271.498 409.655 268.325C408.311 267.98 407.038 267.742 405.859 267.615C407.688 270.798 409.62 274.002 411.554 277.206C408.519 273.996 405.477 270.789 402.394 267.595C401.464 267.71 400.65 267.934 399.963 268.275C403.034 271.511 406.075 274.756 409.112 278.003C405.476 275.269 401.84 272.534 398.219 269.772C398.026 270.058 397.863 270.37 397.732 270.714C397.602 271.056 397.507 271.421 397.441 271.804C401.019 274.637 404.631 277.417 408.247 280.188C404.651 278.401 401.06 276.584 397.444 274.674C397.577 275.659 397.827 276.718 398.181 277.835C401.812 279.783 405.414 281.629 409.023 283.44C405.938 282.892 402.849 282.332 399.723 281.715C400.308 282.956 400.994 284.235 401.78 285.529C404.984 286.16 408.138 286.709 411.294 287.262C409.102 288.111 406.915 288.962 404.686 289.772C405.672 291.053 406.752 292.328 407.928 293.574Z" fill="#0B0F15"/>
<path d="M398.663 271.371C399.793 268.403 403.518 267.873 408.047 268.646C418.139 270.366 431.926 280.262 437.89 291.068C443.375 301.008 440.716 307.927 430.561 306.034C419.95 304.055 406.854 293.7 401.469 283.57C399.005 278.931 397.535 274.371 398.663 271.371ZM440.034 303.036C441.416 300.152 440.215 295.785 437.649 291.003C432.034 280.537 418.448 270.786 408.163 268.848C398.085 266.95 396.192 273.753 401.676 283.609C407.398 293.893 420.185 304.174 430.419 305.797C435.054 306.532 438.667 305.874 440.034 303.036Z" fill="#0B0F15"/>
<path d="M423.675 275.794C435.727 284.651 443.09 298.572 440.094 304.066C438.591 306.822 435.341 307.692 430.589 307.201C436.084 308.472 440.255 307.518 441.771 304.482C444.625 298.765 437.539 285.114 425.543 276.231C419.147 271.495 412.215 268.501 406.842 267.742C411.839 268.773 418.003 271.625 423.675 275.794Z" fill="#EAC506"/>
<path d="M407.41 267.39C418.992 269.43 433.288 280.079 439.837 291.785C445.944 302.701 442.86 310.026 431.8 307.964C420.168 305.795 406.241 294.998 400.164 283.496C394.567 272.902 396.002 265.132 407.41 267.39ZM431.089 306.789C441.764 308.911 444.306 301.659 438.634 291.451C432.547 280.493 418.83 270.316 407.973 268.386C397.476 266.52 395.543 273.443 401.192 283.704C407.114 294.455 420.102 304.873 431.089 306.789Z" fill="#EBEBEC"/>
<path d="M418.312 271.271C420.287 272.329 422.543 273.797 424.441 275.21C436.747 284.369 444.277 298.636 441.33 304.572C439.725 307.804 435.253 308.788 429.394 307.398C435.613 309.101 440.81 308.466 442.425 305.006C445.201 299.059 438.012 285.058 425.8 275.96C423.369 274.149 420.809 272.545 418.312 271.271Z" fill="#EBEBEC"/>
<path d="M428.524 303.365C424.498 302.492 419.592 300.124 415.105 296.715C405.682 289.558 399.804 278.618 401.621 273.715C402.494 271.359 405.337 270.577 409.079 271.174C404.838 270.258 401.564 270.942 400.63 273.533C398.865 278.437 404.609 289.36 414.006 296.529C418.929 300.284 424.305 302.721 428.524 303.365Z" fill="#EAC506"/>
<path d="M415.109 296.716C405.795 289.583 399.886 278.676 401.626 273.716C403.462 268.479 414.793 271.226 423.961 278.095C433.548 285.278 439.849 296.228 437.414 301.037C435.052 305.7 424.584 303.972 415.109 296.716Z" fill="#0B0F15"/>
<path d="M420.846 276.171C431.417 284.009 438.618 295.782 436.975 301.762C437.14 301.54 437.284 301.293 437.412 301.036C439.798 296.218 433.58 285.336 423.958 278.094C422.305 276.85 420.615 275.764 418.959 274.842C419.588 275.265 420.222 275.708 420.846 276.171Z" fill="#EAC506"/>
<path d="M401.083 273.301C402.936 267.857 414.732 270.769 424.162 277.833C434.047 285.238 440.516 296.56 438.009 301.506C435.574 306.308 424.722 304.515 414.962 297.037C405.379 289.695 399.245 278.391 401.083 273.301ZM436.812 300.567C439.208 295.912 433.065 285.361 423.757 278.358C414.707 271.55 404.016 269.144 402.164 274.131C400.399 278.885 406.124 289.465 415.248 296.394C424.48 303.407 434.6 305.256 436.812 300.567Z" fill="#EBEBEC"/>
<path d="M444.394 307.749C440.496 307.749 437.335 304.589 437.335 300.689C437.335 304.588 434.175 307.749 430.275 307.749C434.174 307.749 437.335 310.909 437.335 314.808C437.336 310.91 440.496 307.749 444.394 307.749Z" fill="#EBEBEC"/>
<path d="M389.207 319.796L386.758 305.465L243.08 332.014L246.65 346.75C246.658 346.784 246.667 346.818 246.675 346.853L246.777 347.275L246.784 347.273C249.026 355.871 258.221 363.196 273.883 367.482C304.814 376.576 343.787 366.83 369.943 349.542C384.777 339.737 391.106 329.059 389.199 319.798L389.207 319.796Z" fill="#EAC506"/>
<path d="M328.161 367.402C327.574 367.543 326.988 367.685 326.399 367.819C323.677 354.709 320.954 341.598 318.233 328.489C317.542 325.163 316.851 321.837 316.161 318.51L317.941 318.181C320.807 331.983 323.673 345.786 326.539 359.588C327.08 362.192 327.621 364.797 328.161 367.402ZM295.369 322.352C296.286 328.061 297.202 333.771 298.118 339.48C299.797 349.947 301.476 360.413 303.156 370.88C303.763 370.859 304.371 370.84 304.979 370.81C304.806 369.728 304.632 368.645 304.458 367.562L297.151 322.022L295.369 322.352ZM382.236 339.21C382.712 338.676 383.159 338.14 383.588 337.606C382.68 334.973 381.771 332.341 380.863 329.708C378.359 322.453 375.855 315.198 373.351 307.943L371.559 308.274C375.118 318.586 378.677 328.898 382.236 339.21ZM256.453 329.542C258.097 340.618 259.741 351.694 261.386 362.77C262.026 363.096 262.68 363.418 263.359 363.729C262.596 358.59 261.834 353.453 261.071 348.314C260.125 341.947 259.18 335.58 258.236 329.213L256.453 329.542ZM366.903 338.139C364.52 328.911 362.137 319.683 359.754 310.454L357.974 310.784C358.212 311.705 358.45 312.625 358.687 313.547C361.878 325.904 365.069 338.262 368.26 350.62C368.797 350.28 369.334 349.939 369.86 349.593C368.875 345.774 367.889 341.957 366.903 338.139ZM281.192 354.443C279.05 345.015 276.909 335.586 274.767 326.157L272.987 326.486C273.272 327.742 273.556 328.997 273.842 330.252C276.816 343.352 279.792 356.451 282.767 369.55C283.405 369.662 284.048 369.756 284.691 369.854C283.525 364.718 282.358 359.581 281.192 354.443ZM349.881 352.699C346.717 339.81 343.553 326.921 340.389 314.032L338.609 314.361C339.653 318.613 340.696 322.864 341.74 327.115C344.45 338.154 347.16 349.192 349.869 360.23C350.432 359.991 350.995 359.752 351.551 359.506L349.881 352.699Z" fill="url(#paint12_linear_58_372)"/>
<path d="M385.82 307.032C388.533 324.833 354.441 347.241 320.506 353.971C285.475 360.919 248.616 349.029 245.193 331.784C241.579 313.58 275.266 291.41 310.28 284.99C345.814 278.475 383.05 288.853 385.82 307.032Z" fill="url(#paint13_linear_58_372)"/>
<path d="M383.677 317.659C371.92 317.542 360.129 317.5 348.338 317.458C360.854 314.978 373.374 312.565 385.94 310.29C386.02 309.198 385.986 308.111 385.821 307.032C385.657 305.946 385.366 304.894 384.967 303.872C372.388 306.135 359.849 308.523 347.313 310.97C358.361 306.415 369.474 301.928 380.708 297.527C378.906 295.698 376.694 294.024 374.162 292.513C363.103 296.919 352.136 301.392 341.219 305.915C349.041 299.982 356.886 294.057 364.729 288.131C361.532 286.978 358.09 286.005 354.465 285.226C346.692 291.162 338.913 297.098 331.148 303.035C334.808 296.489 338.456 289.943 342.087 283.396C338.182 283.059 334.149 282.922 330.013 283.005C326.227 289.591 322.469 296.179 318.739 302.767C317.829 296.545 317.057 290.306 316.5 284.027C314.444 284.296 312.371 284.614 310.279 284.99C308.177 285.368 306.104 285.795 304.059 286.265C304.404 292.607 305.016 298.9 305.823 305.171C300.532 300.228 295.513 295.208 290.845 290.041C286.851 291.415 283.009 292.959 279.346 294.642C283.968 299.861 288.959 304.925 294.242 309.909C285.268 306.968 276.513 303.903 267.972 300.669C264.717 302.656 261.705 304.751 258.998 306.924C267.703 310.19 276.616 313.292 285.743 316.272C274.172 315.747 262.734 315.065 251.375 314.217C249.451 316.481 247.901 318.786 246.803 321.103C258.351 322.006 269.983 322.729 281.763 323.281C269.467 325.268 257.24 327.018 244.919 328.495C244.891 329.597 244.976 330.694 245.191 331.784C245.405 332.869 245.744 333.922 246.19 334.945C258.518 333.537 270.736 331.827 283.044 329.851C272.471 333.913 261.826 337.761 250.787 341.338C252.701 343.186 255.035 344.884 257.688 346.42C268.57 342.958 278.998 339.002 289.325 334.979C282.188 340.323 275.021 345.664 267.494 350.887C270.79 352.066 274.309 353.061 277.964 353.857C285.294 348.585 292.353 343.228 299.403 337.872C296.263 343.82 293.16 349.768 290.262 355.719C294.082 356.057 297.971 356.186 301.911 356.087C305.037 350.085 308.308 344.087 311.597 338.089C312.677 343.711 313.76 349.335 314.661 354.988C316.595 354.704 318.542 354.367 320.506 353.973C322.461 353.58 324.387 353.138 326.293 352.654C325.853 346.927 325.053 341.257 324.203 335.596C329.266 339.916 334.184 344.275 338.785 348.772C342.599 347.37 346.32 345.805 349.922 344.107C345.437 339.551 340.606 335.146 335.598 330.787C344.231 333.161 352.832 335.554 361.314 338.045C364.628 336.057 367.748 333.965 370.583 331.799C361.885 329.248 353.007 326.836 344.14 324.415C355.665 324.429 367.191 324.436 378.681 324.522C380.756 322.263 382.449 319.967 383.677 317.659Z" fill="#0B0F15"/>
<path d="M320.065 352.59C303.098 356.005 287.48 354.748 274.66 351.305C246.095 343.634 239.942 322.952 265.71 305.182C289.414 288.838 329.058 280.889 357.094 288.828C386.387 297.124 388.064 318.061 363.176 334.61C351.781 342.188 337.168 349.132 320.065 352.59ZM310.191 287.865C292.686 291.033 277.953 297.574 266.286 305.399C240.756 322.524 246.823 342.904 275.129 350.97C302.869 358.875 339.271 350.678 362.613 334.447C386.97 317.511 386.07 296.837 356.574 289.224C343.216 285.776 327.439 284.751 310.191 287.865Z" fill="#0B0F15"/>
<path d="M249.961 333.365C245.484 315.006 279.817 292.284 314.462 286.442C331.84 283.511 347.242 284.056 362.082 287.236C347.987 282.607 328.928 281.687 310.283 284.991C275.179 291.21 241.029 313.419 245.196 331.784C247.417 341.576 259.141 349.294 275.033 353.167C261.668 349.125 252.068 342.004 249.961 333.365Z" fill="#EAC506"/>
<path d="M271.459 353.34C238.963 344.448 234.273 322.478 261.871 303.181C287.606 285.186 330.537 276.917 361.071 285.562C393.187 294.654 395.918 316.628 367.519 335.4C341.363 352.688 302.39 362.434 271.459 353.34ZM358.488 287.527C329.59 279.004 288.914 287.464 264.706 304.271C238.721 322.311 243.397 343.335 273.784 351.695C303.161 359.777 340.232 351.44 364.741 334.575C390.425 316.902 389.401 295.936 358.488 287.527Z" fill="#EBEBEC"/>
<path d="M250.222 342.601C247.782 340.123 245.303 336.66 244.676 333.746C240.605 314.845 275.849 291.567 312.247 285.101C332.057 281.581 352.322 282.62 367.204 287.601C352.402 282.005 330.955 279.953 310.115 283.775C274.29 290.346 239.089 313.243 243.087 332.013C243.882 335.749 246.853 339.556 250.222 342.601Z" fill="#EBEBEC"/>
<path d="M352.726 293.513C363.313 296.825 370.524 302.626 371.71 309.611C374.2 324.278 347.545 342.183 319.691 347.851C306.303 350.575 292.737 350.127 281.971 347.337C293.135 350.823 307.813 351.632 322.438 348.621C350.109 342.926 377.174 325.113 374.822 310.445C373.589 302.761 364.997 296.619 352.726 293.513Z" fill="#EAC506"/>
<path d="M371.712 309.611C373.919 324.189 347.516 342.065 319.693 347.851C290.316 353.96 261.796 344.245 258.962 330.101C255.999 315.312 281.185 297.169 310.833 291.957C339.591 286.901 369.467 294.782 371.712 309.611Z" fill="#0B0F15"/>
<path d="M261.699 334.35C258.076 318.154 283.631 298.422 315.557 291.206C313.996 291.42 312.411 291.676 310.835 291.956C281.319 297.208 256.13 315.214 258.964 330.101C259.452 332.66 260.757 335.022 262.659 337.146C262.25 336.241 261.913 335.307 261.699 334.35Z" fill="#EAC506"/>
<path d="M319.814 348.697C289.477 355.077 260.014 344.891 257.092 330.347C254.029 315.1 280.237 296.364 310.743 291.005C340.366 285.801 371.322 293.973 373.622 309.253C375.879 324.255 348.552 342.789 319.814 348.697ZM310.927 292.908C282.085 297.933 258.074 315.452 260.827 329.85C263.502 343.848 291.224 352.763 319.567 347.001C346.582 341.509 372.214 324.172 369.806 309.97C367.367 295.599 339.258 287.739 310.927 292.908Z" fill="#EBEBEC"/>
<path d="M358.758 282.722C352.776 282.722 347.927 277.872 347.927 271.891C347.927 277.873 343.077 282.722 337.096 282.722C343.078 282.722 347.927 287.572 347.927 293.554C347.927 287.571 352.777 282.722 358.758 282.722Z" fill="#FBEC99"/>
<path d="M136.419 216.776L142.184 213.392L107.406 155.915L101.649 159.846C101.635 159.855 101.622 159.864 101.608 159.874L101.443 159.986L101.445 159.989C98.1112 162.351 96.456 167.497 97.1598 174.929C98.2771 189.711 108.805 204.888 120.493 213.326C127.123 218.112 132.743 219.098 136.416 216.771L136.419 216.776Z" fill="#EAC506"/>
<path d="M106.02 198.264C105.864 198.034 105.708 197.805 105.555 197.574C110.751 194.272 115.946 190.969 121.142 187.667C122.46 186.829 123.779 185.991 125.097 185.154L125.528 185.866C120.058 189.343 114.588 192.82 109.118 196.297C108.085 196.951 107.053 197.607 106.02 198.264ZM120.064 176.836C117.758 178.158 115.451 179.48 113.144 180.803C108.916 183.227 104.688 185.651 100.459 188.075C100.567 188.333 100.674 188.592 100.786 188.848C101.223 188.597 101.661 188.346 102.098 188.096L120.496 177.549L120.064 176.836ZM126.937 216.937C127.245 217.054 127.547 217.159 127.847 217.257C128.832 216.438 129.816 215.62 130.8 214.801C133.513 212.544 136.227 210.288 138.94 208.031L138.506 207.314C134.649 210.522 130.793 213.729 126.937 216.937ZM110.644 161.267C106.148 163.775 101.652 166.283 97.1564 168.791C97.1195 169.119 97.0885 169.452 97.0645 169.795C99.1503 168.632 101.236 167.468 103.322 166.305C105.906 164.863 108.491 163.422 111.076 161.98L110.644 161.267ZM124.905 210.168C128.486 207.643 132.068 205.117 135.649 202.592L135.218 201.88C134.861 202.132 134.503 202.385 134.146 202.637C129.35 206.018 124.554 209.4 119.758 212.781C119.992 212.957 120.226 213.133 120.46 213.302C121.941 212.257 123.423 211.213 124.905 210.168ZM103.957 175.956C107.664 173.502 111.37 171.048 115.078 168.594L114.646 167.881C114.153 168.208 113.66 168.534 113.166 168.861C108.016 172.27 102.866 175.68 97.7159 179.089C97.7718 179.381 97.8362 179.673 97.8981 179.966C99.9177 178.629 101.937 177.293 103.957 175.956ZM115.875 205.214C120.904 201.757 125.933 198.302 130.962 194.845L130.531 194.132C128.872 195.272 127.214 196.413 125.555 197.552C121.249 200.512 116.942 203.472 112.635 206.433C112.829 206.635 113.023 206.839 113.22 207.038L115.875 205.214Z" fill="url(#paint14_linear_58_372)"/>
<path d="M141.357 213.244C134.143 217.304 118.963 206.286 110.551 192.785C101.867 178.847 100.988 161.063 107.848 156.786C115.089 152.271 130.101 163.156 138.555 177.171C147.135 191.394 148.725 209.096 141.357 213.244Z" fill="url(#paint15_linear_58_372)"/>
<path d="M136.442 214.049C134.581 208.973 132.682 203.895 130.783 198.817C133.885 203.797 136.958 208.789 139.98 213.824C140.462 213.681 140.924 213.49 141.362 213.243C141.802 212.996 142.207 212.7 142.582 212.362C139.564 207.32 136.498 202.316 133.408 197.322C137.164 201.333 140.899 205.383 144.619 209.499C145.112 208.426 145.472 207.203 145.71 205.869C142.018 201.828 138.311 197.839 134.59 193.88C138.413 196.279 142.238 198.69 146.061 201.1C146.037 199.537 145.896 197.898 145.642 196.213C141.825 193.835 138.008 191.455 134.192 189.08C137.602 189.59 141.011 190.095 144.417 190.592C143.927 188.858 143.33 187.101 142.622 185.336C139.174 184.778 135.729 184.233 132.289 183.7C134.817 182.297 137.375 180.95 139.984 179.69C139.535 178.85 139.061 178.01 138.559 177.171C138.055 176.328 137.534 175.507 136.999 174.703C134.328 175.882 131.722 177.169 129.155 178.536C130.421 175.457 131.764 172.482 133.227 169.634C131.987 168.141 130.698 166.738 129.379 165.437C127.886 168.273 126.52 171.243 125.235 174.325C125.041 169.987 124.936 165.724 124.937 161.525C123.554 160.448 122.163 159.492 120.789 158.682C120.799 162.956 120.914 167.295 121.117 171.705C119.462 166.643 117.896 161.613 116.414 156.59C115.127 156.13 113.884 155.839 112.709 155.743C114.198 160.857 115.778 165.977 117.456 171.133C114.602 166.168 111.862 161.194 109.224 156.135C108.745 156.302 108.287 156.517 107.853 156.787C107.422 157.055 107.024 157.372 106.656 157.73C109.266 162.803 111.988 167.78 114.838 172.752C111.372 168.865 107.987 164.913 104.654 160.746C104.17 161.87 103.82 163.15 103.59 164.54C106.848 168.658 110.246 172.5 113.655 176.286C110.196 174.086 106.734 171.871 103.264 169.484C103.292 171.094 103.436 172.769 103.688 174.469C107.147 176.765 110.599 178.93 114.049 181.091C110.98 180.708 107.917 180.34 104.887 180.062C105.363 181.76 105.94 183.453 106.623 185.131C109.713 185.5 112.825 185.932 115.938 186.371C113.696 187.749 111.454 189.129 109.169 190.437C109.605 191.222 110.066 192.004 110.556 192.785C111.042 193.562 111.546 194.319 112.064 195.06C114.455 193.939 116.764 192.674 119.061 191.387C118.026 194.268 116.951 197.091 115.765 199.801C116.988 201.213 118.266 202.559 119.581 203.832C120.811 201.162 121.921 198.368 122.981 195.506C123.364 199.604 123.733 203.692 124.041 207.746C125.435 208.848 126.842 209.849 128.234 210.717C127.917 206.561 127.511 202.351 127.11 198.144C128.978 203.103 130.849 208.061 132.68 213.017C133.987 213.541 135.25 213.896 136.442 214.049Z" fill="#0B0F15"/>
<path d="M111.069 192.37C106.841 185.627 104.843 178.706 104.239 172.633C102.894 159.1 110.788 153.091 122.62 161.285C133.504 168.822 143.367 184.58 144.511 197.928C145.706 211.875 136.974 216.001 125.81 207.987C120.699 204.318 115.337 199.162 111.069 192.37ZM137.301 177.599C133.092 170.586 127.884 165.312 122.621 161.567C111.105 153.371 103.327 159.294 104.46 172.779C105.57 185.995 115.014 200.318 125.79 207.718C137.033 215.44 145.778 211.691 144.257 197.768C143.568 191.463 141.444 184.511 137.301 177.599Z" fill="#0B0F15"/>
<path d="M107.944 159.092C115.112 154.182 130.466 165.254 138.612 179.204C142.698 186.201 144.968 192.914 146.013 199.814C145.712 192.999 143.009 184.653 138.557 177.171C130.175 163.085 115.071 152.008 107.85 156.787C104 159.334 102.587 165.631 103.505 173.096C103.07 166.69 104.571 161.403 107.944 159.092Z" fill="#EAC506"/>
<path d="M102.847 171.585C101.388 156.164 110.074 150.574 122.861 159.307C134.784 167.449 145.321 184.569 146.567 199.106C147.877 214.397 138.872 219.144 126.181 209.982C114.492 201.544 103.964 186.367 102.847 171.585ZM145.301 198.315C144.268 184.501 134.017 168.382 122.852 160.703C110.868 152.46 102.587 157.89 103.932 172.317C105.232 186.266 114.845 200.854 126.083 208.653C137.861 216.826 146.711 212.977 145.301 198.315Z" fill="#EBEBEC"/>
<path d="M104.012 160.706C104.68 159.254 105.767 157.624 106.918 156.881C114.386 152.057 130.127 163.431 138.826 178.033C143.561 185.981 146.41 194.866 146.686 202.076C146.686 194.8 144.082 185.242 139.05 176.9C130.399 162.561 114.828 151.144 107.406 155.916C105.928 156.865 104.774 158.762 104.012 160.706Z" fill="#EBEBEC"/>
<path d="M141.791 196.813C142.089 201.904 140.766 205.949 137.954 207.595C132.051 211.051 120.017 202.498 113.051 191.44C109.702 186.125 107.69 180.217 107.139 175.134C107.455 180.502 109.493 186.947 113.166 192.747C120.114 203.722 132.175 212.466 138.102 209.069C141.206 207.29 142.451 202.595 141.791 196.813Z" fill="#EAC506"/>
<path d="M137.957 207.595C132.046 210.915 120.065 202.465 113.053 191.44C105.649 179.798 105.191 165.953 110.813 162.435C116.692 158.756 128.589 166.638 135.652 178.542C142.501 190.088 143.969 204.219 137.957 207.595Z" fill="#0B0F15"/>
<path d="M109.422 164.302C115.799 160.11 128.44 167.892 136.734 180.45C136.389 179.813 136.02 179.173 135.644 178.541C128.586 166.7 116.747 158.794 110.805 162.434C109.784 163.06 108.979 164.005 108.375 165.169C108.698 164.846 109.045 164.549 109.422 164.302Z" fill="#EAC506"/>
<path d="M112.71 191.63C105.033 179.62 104.623 165.291 110.404 161.671C116.464 157.875 128.783 166.1 136.047 178.349C143.101 190.243 144.62 204.885 138.423 208.359C132.337 211.768 119.923 203.029 112.71 191.63ZM135.258 178.736C128.408 167.15 116.97 159.671 111.225 163.195C105.639 166.622 106.312 179.994 113.399 191.247C120.153 201.973 131.777 210.178 137.493 206.833C143.278 203.449 142.087 190.081 135.258 178.736Z" fill="#EBEBEC"/>
<path d="M140.561 171.988C137.846 171.988 135.645 169.787 135.645 167.073C135.645 169.787 133.445 171.988 130.73 171.988C133.445 171.988 135.645 174.189 135.645 176.904C135.645 174.189 137.846 171.988 140.561 171.988Z" fill="#EBEBEC"/>
<path d="M328.828 211.192C329.303 224.476 332.709 237.467 343.611 247.599C358.69 261.108 385.889 261.243 403.477 245.882C414.37 236.369 418.204 223.705 418.013 210.97L328.828 211.192Z" fill="#EAC506"/>
<path d="M331.455 228.041C334.28 223.214 336.934 218.286 339.409 213.269C339.755 212.569 340.094 211.866 340.433 211.163L341.588 211.16C339.348 215.848 336.956 220.464 334.411 224.995C333.585 226.464 332.741 227.923 331.884 229.374C331.734 228.932 331.593 228.487 331.455 228.041ZM409.937 238.407C408.686 232.089 407.546 225.749 406.519 219.391C406.068 216.599 405.643 213.801 405.235 211.002L404.187 211.005C404.483 213.044 404.786 215.083 405.106 217.119C406.108 223.513 407.223 229.89 408.451 236.244C408.683 237.446 408.924 238.646 409.164 239.845C409.451 239.473 409.729 239.098 410.001 238.719C409.979 238.615 409.958 238.511 409.937 238.407ZM374.882 233.492C374.895 226.019 375.007 218.546 375.208 211.076L374.16 211.079C373.766 225.734 373.729 240.399 374.056 255.056C374.074 255.875 374.1 256.694 374.12 257.512C374.467 257.495 374.815 257.474 375.162 257.45C374.962 249.466 374.867 241.479 374.882 233.492ZM348.467 211.143L347.361 211.146C346.505 213.623 345.649 216.1 344.793 218.577C342.293 225.812 339.793 233.047 337.293 240.282C337.534 240.634 337.781 240.984 338.035 241.331C338.701 239.405 339.367 237.478 340.032 235.55C342.844 227.415 345.656 219.279 348.467 211.143ZM365.133 211.102C364.379 219.48 363.626 227.858 362.872 236.237C362.268 242.955 361.654 249.674 361.158 256.401C361.5 256.479 361.844 256.553 362.19 256.623C362.612 250.853 363.123 245.089 363.64 239.334C364.486 229.922 365.333 220.511 366.18 211.099L365.133 211.102ZM402.515 246.591C401.711 239.55 400.793 232.521 399.762 225.51C399.05 220.672 398.279 215.842 397.459 211.021L396.402 211.024C397.077 214.974 397.719 218.93 398.32 222.893C399.385 229.91 400.333 236.946 401.166 243.995C401.303 245.149 401.431 246.305 401.561 247.46C401.885 247.207 402.207 246.949 402.525 246.687C402.521 246.655 402.518 246.623 402.515 246.591ZM414.338 221.247C413.222 217.851 412.183 214.429 411.216 210.987L410.127 210.989C410.134 211.014 410.141 211.038 410.148 211.063C411.737 216.738 413.531 222.355 415.522 227.901C415.706 227.356 415.883 226.809 416.045 226.258C415.458 224.594 414.888 222.924 414.338 221.247ZM387.507 222.923L386.707 211.049L385.661 211.051C386.349 221.253 387.036 231.455 387.724 241.657C388.015 245.975 388.306 250.293 388.597 254.61C388.938 254.487 389.279 254.359 389.617 254.228C388.914 243.792 388.211 233.358 387.507 222.923ZM347.756 248.233C349.161 242.425 350.567 236.617 351.973 230.809C353.378 225.001 354.784 219.194 356.189 213.386C356.371 212.632 356.554 211.877 356.737 211.123L355.66 211.126C354.269 216.872 352.879 222.618 351.487 228.364C350.082 234.172 348.676 239.979 347.27 245.788C346.948 247.117 346.626 248.447 346.304 249.777C346.607 249.998 346.913 250.216 347.223 250.428C347.401 249.695 347.578 248.964 347.756 248.233Z" fill="#F5DE62"/>
<path d="M422.258 207.612C422.049 229.544 399.137 249.413 377.948 250.49C356.074 251.603 335.052 229.722 334.774 208.311C334.481 185.709 357.124 166.044 378.932 165.561C401.065 165.071 422.472 185.214 422.258 207.612Z" fill="#EBEBEC"/>
<path d="M417.473 208.101C417.264 230.033 394.352 249.902 373.163 250.979C351.289 252.092 330.267 230.211 329.989 208.8C329.696 186.198 352.338 166.533 374.147 166.05C396.28 165.56 417.687 185.703 417.473 208.101Z" fill="#0B0F15"/>
<path d="M373.038 249.23C362.438 249.828 353.138 245.097 345.754 238.318C329.302 223.214 327.733 197.112 345.136 181.096C361.146 166.362 385.909 165 402.014 180.318C418.84 196.322 417.68 221.806 400.934 236.539C393.268 243.285 383.724 248.606 373.038 249.23ZM373.793 169.481C362.895 169.673 353.319 174.485 345.463 181.474C328.27 196.766 329.818 222.486 346.073 238.011C362.003 253.227 384.834 250.896 400.614 236.226C417.078 220.919 418.68 195.912 401.66 180.685C393.951 173.788 384.531 169.303 373.793 169.481Z" fill="url(#paint16_linear_58_372)"/>
<path d="M332.704 211.681C331.906 188.716 354.996 168.52 376.521 168.655C387.319 168.723 396.562 172.554 405.193 179.435C397.163 170.969 385.75 165.932 374.148 166.05C352.306 166.273 329.38 185.891 329.99 208.8C330.316 221.014 336.594 232.7 345.788 240.629C338.139 233.019 333.08 222.489 332.704 211.681Z" fill="#0B0F15"/>
<path d="M343.605 240.099C324.906 222.717 324.353 195.373 343.02 177.899C360.427 161.605 387.208 160.535 404.748 177.215C423.197 194.759 422.566 221.705 403.47 238.381C385.882 253.742 361.338 257.401 343.605 240.099ZM402.985 179.042C386.419 162.847 360.981 164.609 344.619 179.792C327.057 196.09 327.698 222.296 345.178 238.603C362.078 254.368 385.328 252.009 401.877 236.818C419.221 220.9 420.778 195.517 402.985 179.042Z" fill="url(#paint17_linear_58_372)"/>
<path d="M331.756 222.44C330.54 218.961 329.544 214.677 329.467 211.048C328.971 187.515 352.668 166.84 375.317 166.587C387.645 166.45 399.774 171.878 408.243 180.929C399.886 171.157 387.198 164.534 374.216 164.767C351.107 165.182 328.222 185.278 328.689 208.639C328.781 213.289 330.038 218.088 331.756 222.44Z" fill="url(#paint18_linear_58_372)"/>
<path d="M398.896 185.042C404.944 191.202 408.697 199.655 408.688 208.286C408.67 226.41 390.717 242.407 373.309 243.464C364.943 243.972 356.797 240.634 350.586 235.063C356.965 241.551 365.744 245.551 374.888 244.956C392.187 243.827 410.378 228.027 410.481 209.93C410.534 200.45 405.982 191.302 398.896 185.042Z" fill="#0B0F15"/>
<path d="M347.62 178.564C347.246 177.981 347.496 177.185 348.152 176.968C348.336 176.907 348.527 176.859 348.723 176.825L353.371 176.028L348.723 175.23C348.527 175.197 348.336 175.148 348.152 175.087C347.496 174.87 347.246 174.074 347.62 173.491C347.684 173.393 347.751 173.296 347.822 173.201L350.648 169.455L346.902 172.281C346.898 172.283 346.894 172.287 346.89 172.289C346.267 172.757 345.34 172.336 345.248 171.562C345.245 171.532 345.241 171.502 345.239 171.472L344.873 167.627L344.076 159.227L343.278 167.627L342.913 171.472C342.911 171.502 342.907 171.532 342.904 171.562C342.812 172.336 341.885 172.756 341.261 172.289C341.258 172.287 341.254 172.283 341.25 172.281L337.504 169.455L340.33 173.201C340.401 173.296 340.468 173.393 340.532 173.491C340.905 174.074 340.656 174.87 340 175.087C339.816 175.148 339.625 175.197 339.429 175.23L334.781 176.028L339.429 176.825C339.625 176.859 339.815 176.907 340 176.968C340.656 177.185 340.905 177.981 340.532 178.564C340.468 178.663 340.401 178.759 340.33 178.854L337.504 182.601L341.25 179.775C341.254 179.772 341.258 179.769 341.261 179.766C341.885 179.299 342.812 179.719 342.904 180.493C342.907 180.523 342.911 180.553 342.913 180.583L343.278 184.429L344.076 192.829L344.873 184.429L345.239 180.583C345.241 180.553 345.245 180.523 345.248 180.493C345.34 179.719 346.267 179.299 346.89 179.766C346.894 179.769 346.898 179.772 346.902 179.775L350.648 182.601L347.822 178.854C347.751 178.76 347.684 178.663 347.62 178.564Z" fill="#EAC506"/>
<path d="M430.553 75.7265L423.095 63.0199L316.105 126.693L324.175 139.012L324.213 138.99C328.704 145.684 338.472 149.278 352.541 148.397C380.327 147.202 408.605 127.83 424.171 105.774C432.786 93.5665 434.623 82.9767 430.549 75.7283L430.553 75.7265Z" fill="#EAC506"/>
<path d="M392.282 127.078C387.551 119.06 382.819 111.041 378.088 103.024L372.316 93.2417L371.064 93.9868C375.042 100.727 379.019 107.468 382.997 114.208C386.861 120.757 390.725 127.307 394.59 133.856C394.998 133.592 395.405 133.326 395.81 133.057C394.633 131.064 393.458 129.071 392.282 127.078Z" fill="#0B0F15"/>
<path d="M379.748 137.625C375.264 130.573 370.779 123.52 366.295 116.468C363.77 112.496 361.244 108.525 358.719 104.554C358.218 103.765 356.952 104.486 357.456 105.279C361.941 112.331 366.425 119.384 370.91 126.436C374.103 131.457 377.295 136.478 380.487 141.499C380.935 141.301 381.379 141.096 381.824 140.89C381.132 139.802 380.44 138.714 379.748 137.625Z" fill="#0B0F15"/>
<path d="M398.506 77.6541C404.621 88.5997 410.736 99.5454 416.851 110.491C417.354 111.391 417.857 112.292 418.359 113.191C418.697 112.799 419.037 112.407 419.368 112.011L402.555 81.9177C401.623 80.2478 400.69 78.5788 399.757 76.9089L398.506 77.6541Z" fill="#0B0F15"/>
<path d="M427.81 100.007C426.93 98.2624 426.037 96.5246 425.125 94.7972C421.082 87.1482 416.71 79.6729 412.024 72.4005C411.591 71.7275 411.15 71.0598 410.711 70.3903L409.461 71.1345C411.96 74.9461 414.376 78.8127 416.699 82.7334C420.335 88.8705 423.749 95.1383 426.94 101.518C427.241 101.012 427.532 100.507 427.81 100.007Z" fill="#0B0F15"/>
<path d="M356.857 132.453C360.165 137.091 363.557 141.666 367.013 146.195C367.517 146.066 368.022 145.937 368.524 145.798C368.162 145.324 367.794 144.856 367.434 144.381C361.751 136.899 356.27 129.264 350.997 121.487C348.494 117.794 346.04 114.068 343.631 110.312L342.387 111.053C347.037 118.301 351.855 125.442 356.857 132.453Z" fill="#0B0F15"/>
<path d="M407.566 121.175C403.288 113.136 399.01 105.096 394.733 97.0565C392.422 92.713 390.11 88.3694 387.799 84.025L386.547 84.7702C390.737 92.6442 394.927 100.519 399.117 108.393C401.906 113.636 404.696 118.878 407.486 124.121C407.861 123.792 408.238 123.464 408.608 123.132C408.26 122.48 407.913 121.828 407.566 121.175Z" fill="#0B0F15"/>
<path d="M325.096 130.746C329.535 136.514 334.15 142.146 338.924 147.641C339.659 147.79 340.417 147.921 341.195 148.033C340.056 146.737 338.925 145.435 337.805 144.123C332.11 137.45 326.661 130.571 321.461 123.506L320.209 124.251C321.814 126.434 323.443 128.599 325.096 130.746Z" fill="#0B0F15"/>
<path d="M431.864 90.0214C427.051 82.1791 422.238 74.3368 417.425 66.4946C417.409 66.4696 417.395 66.4456 417.38 66.4215L416.129 67.1658C421.197 75.4232 426.264 83.6805 431.332 91.9388C431.533 91.2908 431.71 90.6514 431.864 90.0214Z" fill="#0B0F15"/>
<path d="M356.143 148.13C354.186 145.698 352.276 143.227 350.426 140.713C345.036 133.388 340.096 125.731 335.647 117.798C335.264 117.115 334.892 116.426 334.516 115.738L333.262 116.485C335.563 120.693 337.997 124.828 340.569 128.878C344.828 135.587 349.451 142.065 354.403 148.28C354.983 148.237 355.563 148.187 356.143 148.13Z" fill="#0B0F15"/>
<path d="M423.629 65.722C431.464 79.9429 411.135 108.585 385.956 123.973C359.962 139.859 326.517 140.396 318.287 126.847C309.598 112.545 329.677 84.2195 355.824 68.7841C382.359 53.1185 415.627 51.1994 423.629 65.722Z" fill="url(#paint19_linear_58_372)"/>
<path d="M425.278 75.2901C415.777 78.5577 406.273 81.9 396.767 85.2397C406.055 79.5658 415.366 73.9486 424.761 68.4327C424.479 67.4908 424.106 66.5841 423.631 65.7213C423.154 64.8541 422.586 64.0505 421.94 63.3037C412.533 68.8135 403.198 74.4152 393.883 80.0668C401.33 73.0651 408.852 66.102 416.496 59.1776C414.466 58.1531 412.154 57.3762 409.636 56.8288C402.131 63.7076 394.724 70.6174 387.372 77.5539C391.785 70.3158 396.219 63.0777 400.651 55.8387C397.711 55.782 394.632 55.9487 391.467 56.3303C387.096 63.5581 382.718 70.785 378.352 78.0119C379.22 71.4485 380.078 64.8885 380.923 58.3328C377.673 59.1673 374.383 60.2072 371.079 61.4611C370.123 68.095 369.189 74.7212 368.279 81.3396C365.571 76.3575 362.967 71.323 360.527 66.1922C358.957 67.0061 357.389 67.8681 355.825 68.7843C354.252 69.7047 352.72 70.6587 351.222 71.6401C353.514 76.8844 356.004 82.01 358.644 87.0634C352.816 84.4138 347.182 81.6215 341.784 78.6058C339.006 80.9073 336.403 83.3086 333.989 85.7751C339.366 88.8484 344.991 91.6863 350.825 94.372C342.669 94.4631 334.649 94.3883 326.747 94.1099C324.757 96.7148 322.997 99.3438 321.508 101.949C329.552 102.208 337.712 102.268 346.005 102.166C336.525 105.037 327.101 107.738 317.688 110.276C316.858 112.735 316.341 115.12 316.193 117.387C325.776 114.84 335.369 112.119 345.026 109.21C335.759 114.405 326.472 119.381 317.024 124.154C317.35 125.09 317.767 125.99 318.287 126.847C318.804 127.7 319.41 128.49 320.094 129.224C329.571 124.507 338.864 119.568 348.144 114.379C340.922 120.829 333.575 127.119 325.824 133.293C327.953 134.302 330.37 135.064 332.992 135.599C340.653 129.566 347.792 123.246 354.827 116.899C350.779 123.446 346.705 129.999 342.304 136.554C345.332 136.604 348.481 136.435 351.675 136.059C355.902 129.517 359.884 122.983 363.859 116.452C363.219 122.361 362.609 128.262 362.165 134.106C365.348 133.296 368.519 132.291 371.66 131.08C372.271 125.128 372.998 119.137 373.742 113.142C376.397 117.57 379.053 121.997 381.574 126.502C383.04 125.708 384.5 124.868 385.956 123.972C387.404 123.082 388.814 122.157 390.195 121.203C388.023 116.505 385.58 111.956 383.098 107.43C388.545 109.62 393.888 111.884 399.019 114.355C401.645 112.081 404.142 109.697 406.502 107.235C401.446 104.681 396.159 102.353 390.744 100.115C398.447 99.6429 406.131 99.196 413.749 98.8651C415.786 96.2412 417.633 93.5848 419.228 90.948C411.416 91.2901 403.504 91.8006 395.599 92.2999C404.88 89.0109 414.16 85.7167 423.437 82.4981C424.388 80.0058 425.023 77.5865 425.278 75.2901Z" fill="#0B0F15"/>
<path d="M385.163 122.936C372.589 130.672 359.618 134.086 348.206 134.857C322.776 136.574 311.258 120.911 326.358 98.5604C340.25 78.0012 369.64 59.9515 394.728 58.6125C420.941 57.2134 428.938 74.3727 414.157 95.4433C407.39 105.09 397.831 115.125 385.163 122.936ZM356.666 71.2324C343.581 78.9139 333.798 88.6435 326.891 98.5785C311.778 120.318 323.13 135.75 348.477 134.441C373.317 133.157 400.017 115.826 413.655 95.4665C427.885 74.2223 420.597 57.063 394.437 59.0947C382.586 60.0142 369.562 63.6694 356.666 71.2324Z" fill="#0B0F15"/>
<path d="M322.625 126.815C313.193 112.629 333.616 83.6533 359.649 68.8101C372.707 61.3649 385.278 57.4123 398.234 55.8422C385.418 55.9788 369.785 60.6618 355.824 68.7843C329.541 84.0761 309.102 112.568 318.286 126.847C323.183 134.46 335.071 137.606 349.093 136.318C337.052 136.741 327.064 133.491 322.625 126.815Z" fill="#EAC506"/>
<path d="M346.27 137.488C317.29 139.302 306.539 122.136 322.628 97.9739C337.631 75.4431 369.564 56.1816 396.888 54.7214C425.627 53.1856 434.801 70.9165 417.9 94.8645C402.335 116.921 374.056 136.292 346.27 137.488ZM395.433 57.1175C369.464 58.2124 339.408 76.9875 325.257 98.0804C310.067 120.721 320.505 137.095 347.62 135.436C373.833 133.833 401.027 116.193 415.402 94.965C430.467 72.7204 422.986 55.3497 395.433 57.1175Z" fill="#EBEBEC"/>
<path d="M325.025 134.516C322.274 133.127 319.92 130.926 318.49 128.65C309.213 113.891 330.194 84.1858 357.44 68.3148C372.269 59.6767 388.912 54.7479 402.473 54.6834C388.781 54.2081 371.002 58.7227 355.44 67.9109C328.687 83.7063 307.485 112.976 316.662 127.645C318.488 130.565 321.347 132.915 325.025 134.516Z" fill="#EBEBEC"/>
<path d="M392.698 63.8088C402.271 63.5673 409.917 66.3897 413.09 71.9356C419.751 83.58 403.979 106.298 383.357 119.05C373.445 125.179 362.382 128.686 352.83 129.419C362.923 129.159 374.995 125.637 385.813 118.913C406.279 106.191 422.41 83.4321 415.86 71.7465C412.428 65.6257 403.562 62.9116 392.698 63.8088Z" fill="#EAC506"/>
<path d="M413.09 71.9347C419.494 83.5851 403.916 106.208 383.357 119.049C361.648 132.609 335.606 132.591 328.835 121.487C321.755 109.875 336.269 87.3769 358.481 74.495C380.024 61.9997 406.575 60.0841 413.09 71.9347Z" fill="#0B0F15"/>
<path d="M332.387 124.283C324.328 111.675 338.634 87.732 362.043 72.5098C360.854 73.1371 359.66 73.8066 358.481 74.4942C336.388 87.371 321.829 109.756 328.835 121.486C330.039 123.502 331.841 125.119 334.046 126.364C333.43 125.72 332.862 125.029 332.387 124.283Z" fill="#EAC506"/>
<path d="M383.726 119.727C361.331 133.79 334.381 133.646 327.411 122.229C320.105 110.26 335.254 86.9695 358.108 73.7188C380.302 60.8506 407.815 58.8714 414.517 71.0864C421.098 83.0797 404.984 106.52 383.726 119.727ZM358.861 75.2693C337.241 87.7619 323.474 109.399 330.26 120.741C336.857 131.768 362.002 131.341 382.988 118.37C402.992 106.006 418.12 84.0595 411.673 72.7838C405.149 61.374 380.026 62.8015 358.861 75.2693Z" fill="#EBEBEC"/>
<path d="M370.569 63.8991C366.826 63.8991 363.792 60.8654 363.792 57.1226C363.792 60.8654 360.758 63.8991 357.016 63.8991C360.758 63.8991 363.792 66.9329 363.792 70.6757C363.792 66.9329 366.827 63.8991 370.569 63.8991Z" fill="#0B0F15"/>
<defs>
<linearGradient id="paint0_linear_58_372" x1="249.99" y1="233.554" x2="268.114" y2="241.468" gradientUnits="userSpaceOnUse">
<stop stop-color="#F3D225"/>
<stop offset="1" stop-color="#FFFADA"/>
</linearGradient>
<linearGradient id="paint1_linear_58_372" x1="278.274" y1="244.608" x2="294.25" y2="252.022" gradientUnits="userSpaceOnUse">
<stop stop-color="#F3D225"/>
<stop offset="1" stop-color="#FFFADA"/>
</linearGradient>
<linearGradient id="paint2_linear_58_372" x1="236.145" y1="227.974" x2="254.201" y2="235.957" gradientUnits="userSpaceOnUse">
<stop stop-color="#F3D225"/>
<stop offset="1" stop-color="#FFFADA"/>
</linearGradient>
<linearGradient id="paint3_linear_58_372" x1="291.949" y1="249.432" x2="304.771" y2="255.317" gradientUnits="userSpaceOnUse">
<stop stop-color="#F3D225"/>
<stop offset="1" stop-color="#FFFADA"/>
</linearGradient>
<linearGradient id="paint4_linear_58_372" x1="263.513" y1="239.468" x2="282.287" y2="249.148" gradientUnits="userSpaceOnUse">
<stop stop-color="#F3D225"/>
<stop offset="1" stop-color="#FFFADA"/>
</linearGradient>
<linearGradient id="paint5_linear_58_372" x1="225.27" y1="223.122" x2="241.594" y2="229.855" gradientUnits="userSpaceOnUse">
<stop stop-color="#F3D225"/>
<stop offset="1" stop-color="#FFFADA"/>
</linearGradient>
<linearGradient id="paint6_linear_58_372" x1="213.38" y1="217.779" x2="227.016" y2="223.424" gradientUnits="userSpaceOnUse">
<stop stop-color="#F3D225"/>
<stop offset="1" stop-color="#FFFADA"/>
</linearGradient>
<linearGradient id="paint7_linear_58_372" x1="209.951" y1="209.817" x2="244.409" y2="284.611" gradientUnits="userSpaceOnUse">
<stop stop-color="#F3D225"/>
<stop offset="1" stop-color="#FFFADA"/>
</linearGradient>
<linearGradient id="paint8_linear_58_372" x1="144.482" y1="104.589" x2="221.197" y2="235.24" gradientUnits="userSpaceOnUse">
<stop stop-color="#F3D225"/>
<stop offset="1" stop-color="#FFFADA"/>
</linearGradient>
<linearGradient id="paint9_linear_58_372" x1="147.222" y1="38.379" x2="288.27" y2="194.26" gradientUnits="userSpaceOnUse">
<stop stop-color="#F3D225"/>
<stop offset="1" stop-color="#FFFADA"/>
</linearGradient>
<linearGradient id="paint10_linear_58_372" x1="107.034" y1="249.36" x2="164.871" y2="347.407" gradientUnits="userSpaceOnUse">
<stop stop-color="#F3D225"/>
<stop offset="1" stop-color="#FFFADA"/>
</linearGradient>
<linearGradient id="paint11_linear_58_372" x1="396.167" y1="266.873" x2="435.272" y2="313.618" gradientUnits="userSpaceOnUse">
<stop stop-color="#F3D225"/>
<stop offset="1" stop-color="#FFFADA"/>
</linearGradient>
<linearGradient id="paint12_linear_58_372" x1="253.252" y1="306.851" x2="300.881" y2="409.322" gradientUnits="userSpaceOnUse">
<stop stop-color="#F3D225"/>
<stop offset="1" stop-color="#FFFADA"/>
</linearGradient>
<linearGradient id="paint13_linear_58_372" x1="241.374" y1="281.768" x2="298.133" y2="398.645" gradientUnits="userSpaceOnUse">
<stop stop-color="#F3D225"/>
<stop offset="1" stop-color="#FFFADA"/>
</linearGradient>
<linearGradient id="paint14_linear_58_372" x1="96.01" y1="160.295" x2="150.035" y2="203.329" gradientUnits="userSpaceOnUse">
<stop stop-color="#F3D225"/>
<stop offset="1" stop-color="#FFFADA"/>
</linearGradient>
<linearGradient id="paint15_linear_58_372" x1="102.216" y1="154.738" x2="158.247" y2="198.469" gradientUnits="userSpaceOnUse">
<stop stop-color="#F3D225"/>
<stop offset="1" stop-color="#FFFADA"/>
</linearGradient>
<linearGradient id="paint16_linear_58_372" x1="330.688" y1="168.037" x2="409.483" y2="253.516" gradientUnits="userSpaceOnUse">
<stop stop-color="#F3D225"/>
<stop offset="1" stop-color="#FFFADA"/>
</linearGradient>
<linearGradient id="paint17_linear_58_372" x1="327.058" y1="163.683" x2="412.22" y2="257.024" gradientUnits="userSpaceOnUse">
<stop stop-color="#F3D225"/>
<stop offset="1" stop-color="#FFFADA"/>
</linearGradient>
<linearGradient id="paint18_linear_58_372" x1="326.678" y1="163.759" x2="379.799" y2="241.8" gradientUnits="userSpaceOnUse">
<stop stop-color="#F3D225"/>
<stop offset="1" stop-color="#FFFADA"/>
</linearGradient>
<linearGradient id="paint19_linear_58_372" x1="313.485" y1="54.4558" x2="388.257" y2="162.212" gradientUnits="userSpaceOnUse">
<stop stop-color="#F3D225"/>
<stop offset="1" stop-color="#FFFADA"/>
</linearGradient>
</defs>
</svg>
