<svg width="544" height="393" viewBox="0 0 544 393" fill="none" xmlns="http://www.w3.org/2000/svg">
<rect width="544" height="392" transform="translate(0 0.322144)" fill="#FFFDF1"/>
<path opacity="0.9" d="M359.82 84.4895C427.022 84.4897 481.499 138.968 481.499 206.169C481.499 273.37 427.022 327.848 359.82 327.848C292.619 327.848 238.141 273.371 238.141 206.169C238.141 138.968 292.619 84.4895 359.82 84.4895Z" fill="white" stroke="#FFFADA"/>
<path opacity="0.9" d="M184.18 34.5C251.381 34.5002 305.858 88.9782 305.858 156.18C305.858 223.381 251.381 277.858 184.18 277.858C116.978 277.858 62.5002 223.381 62.5 156.18C62.5 88.9781 116.978 34.5 184.18 34.5Z" fill="white" stroke="#FFFADA"/>
<path d="M408.274 211.817C407.311 211.961 406.316 212.162 405.293 212.424C400.93 213.538 396.525 215.619 392.375 218.373L397.372 223.518C401.522 220.763 405.927 218.683 410.29 217.568C411.313 217.307 412.308 217.105 413.271 216.961L408.274 211.817Z" fill="#EAC506"/>
<path d="M257.526 214.966C292.688 214.966 321.191 186.463 321.191 151.301C321.191 116.14 292.688 87.6364 257.526 87.6364C222.365 87.6364 193.861 116.14 193.861 151.301C193.861 186.463 222.365 214.966 257.526 214.966Z" fill="#0B0F15"/>
<path opacity="0.9" d="M260.459 359.558C318.573 359.558 365.682 332.359 365.682 298.807C365.682 265.255 318.573 238.056 260.459 238.056C202.346 238.056 155.236 265.255 155.236 298.807C155.236 332.359 202.346 359.558 260.459 359.558Z" fill="#FFFADA"/>
<path d="M258.906 309.736C258.895 310.24 258.478 310.646 257.975 310.629C257.967 310.629 257.959 310.629 257.951 310.628C257.447 310.612 257.059 310.178 257.082 309.674C257.105 309.178 257.526 308.788 258.023 308.805C258.52 308.822 258.916 309.238 258.906 309.736ZM263.494 310.609C262.991 310.63 262.57 310.227 262.556 309.723C262.542 309.226 262.934 308.806 263.431 308.786C263.928 308.765 264.352 309.152 264.378 309.648C264.405 310.152 264.019 310.588 263.515 310.608C263.508 310.609 263.501 310.609 263.494 310.609ZM253.442 309.418C253.393 309.92 252.947 310.293 252.447 310.239C252.439 310.238 252.431 310.237 252.423 310.236C251.923 310.182 251.567 309.721 251.628 309.221C251.688 308.727 252.136 308.37 252.63 308.424C253.125 308.478 253.489 308.923 253.442 309.418ZM269.018 310.177C268.518 310.235 268.069 309.865 268.017 309.364C267.965 308.869 268.324 308.421 268.819 308.363C269.313 308.306 269.765 308.659 269.829 309.152C269.894 309.652 269.542 310.116 269.041 310.174C269.034 310.175 269.026 310.176 269.018 310.177ZM248.017 308.683C247.929 309.179 247.454 309.517 246.959 309.423C246.95 309.422 246.942 309.42 246.934 309.419C246.439 309.325 246.122 308.835 246.223 308.342C246.323 307.855 246.798 307.535 247.287 307.628C247.775 307.72 248.103 308.193 248.017 308.683ZM274.496 309.32C274.002 309.418 273.525 309.082 273.434 308.586C273.345 308.098 273.668 307.624 274.155 307.528C274.642 307.431 275.12 307.746 275.223 308.232C275.328 308.724 275.015 309.216 274.522 309.314C274.513 309.316 274.505 309.318 274.496 309.32ZM242.67 307.508C242.541 307.996 242.039 308.294 241.554 308.158C241.545 308.155 241.536 308.153 241.527 308.15C241.042 308.013 240.769 307.498 240.914 307.015C241.055 306.539 241.556 306.262 242.034 306.396C242.511 306.531 242.797 307.029 242.67 307.508ZM279.888 308.007C279.404 308.148 278.9 307.854 278.767 307.368C278.636 306.89 278.917 306.389 279.393 306.25C279.869 306.111 280.372 306.384 280.518 306.857C280.666 307.339 280.399 307.858 279.915 307.999C279.906 308.001 279.897 308.004 279.888 308.007ZM237.452 305.857C237.277 306.329 236.748 306.578 236.279 306.395C236.269 306.391 236.259 306.387 236.25 306.383C235.781 306.199 235.562 305.658 235.754 305.192C235.942 304.734 236.467 304.508 236.928 304.689C237.389 304.87 237.625 305.393 237.452 305.857ZM285.147 306.193C284.679 306.382 284.148 306.138 283.968 305.668C283.79 305.205 284.021 304.68 284.48 304.494C284.939 304.309 285.466 304.529 285.659 304.984C285.857 305.448 285.644 305.993 285.176 306.181C285.166 306.185 285.157 306.189 285.147 306.193ZM232.432 303.68C232.204 304.13 231.654 304.311 231.209 304.075C231.198 304.069 231.187 304.063 231.176 304.057C230.732 303.82 230.575 303.263 230.821 302.824L230.83 302.807C231.071 302.376 231.613 302.222 232.049 302.454C232.484 302.686 232.663 303.224 232.44 303.664L232.432 303.68ZM290.19 303.814C289.748 304.057 289.196 303.883 288.963 303.437C288.729 302.99 288.902 302.44 289.343 302.198C289.6 302.057 289.855 301.914 290.106 301.769C290.213 301.707 290.318 301.646 290.423 301.584C290.857 301.328 291.419 301.459 291.685 301.886C291.951 302.315 291.82 302.878 291.386 303.135C291.265 303.207 291.142 303.278 291.019 303.349C290.745 303.507 290.469 303.662 290.19 303.814ZM227.724 300.897C227.437 301.311 226.868 301.416 226.461 301.118C226.448 301.109 226.435 301.099 226.422 301.089C226.015 300.791 225.944 300.217 226.253 299.819L226.268 299.799C226.568 299.412 227.118 299.336 227.513 299.626C227.908 299.916 228.016 300.473 227.738 300.876L227.724 300.897ZM295.954 299.954C295.566 300.275 294.992 300.202 294.682 299.805L294.665 299.783C294.365 299.397 294.44 298.838 294.817 298.526C295.194 298.215 295.746 298.255 296.069 298.622L296.087 298.643C296.42 299.021 296.384 299.599 295.995 299.92C295.982 299.932 295.968 299.943 295.954 299.954ZM223.516 297.407C223.159 297.762 222.58 297.762 222.237 297.392C222.222 297.376 222.206 297.359 222.191 297.342C221.849 296.972 221.895 296.395 222.278 296.068L222.305 296.045C222.673 295.73 223.219 295.766 223.548 296.122C223.877 296.478 223.885 297.041 223.541 297.383L223.516 297.407ZM299.928 295.938C299.615 296.334 299.038 296.378 298.654 296.051L298.625 296.027C298.258 295.713 298.223 295.153 298.521 294.773C298.82 294.394 299.358 294.313 299.75 294.595L299.781 294.617C300.19 294.911 300.285 295.482 299.974 295.878C299.959 295.898 299.943 295.918 299.928 295.938ZM220.15 293.11C219.716 293.365 219.155 293.221 218.92 292.776C218.906 292.749 218.892 292.722 218.878 292.696C218.645 292.248 218.847 291.705 219.306 291.494L219.348 291.475C219.782 291.275 220.293 291.464 220.514 291.887C220.736 292.311 220.602 292.844 220.191 293.086L220.15 293.11ZM302.807 291.014C302.621 291.483 302.078 291.683 301.62 291.474L301.573 291.452C301.141 291.254 300.955 290.74 301.129 290.297C301.302 289.854 301.784 289.612 302.236 289.76L302.285 289.776C302.764 289.934 303.027 290.45 302.844 290.92C302.831 290.952 302.819 290.983 302.807 291.014ZM218.17 288.036C217.676 288.135 217.192 287.815 217.121 287.316C217.116 287.279 217.111 287.241 217.106 287.204C217.039 286.704 217.419 286.266 217.921 286.229L217.979 286.225C218.45 286.19 218.857 286.543 218.922 287.011C218.986 287.479 218.689 287.931 218.225 288.024L218.17 288.036ZM303.944 285.359C303.938 285.864 303.498 286.243 302.995 286.207C302.492 286.172 302.117 285.735 302.119 285.231C302.12 285.214 302.12 285.197 302.12 285.179C302.118 284.768 302.431 284.417 302.841 284.394L303.079 284.381C303.544 284.355 303.944 284.711 303.945 285.177C303.945 285.238 303.945 285.299 303.944 285.359ZM219.194 281.924C219.081 282.383 218.638 282.69 218.173 282.605L218.119 282.595C217.623 282.505 217.291 282.028 217.41 281.539C217.419 281.503 217.427 281.468 217.436 281.433C217.558 280.944 218.071 280.676 218.552 280.825L218.606 280.842C219.057 280.982 219.307 281.464 219.194 281.924ZM302.306 280.819C301.852 280.96 301.375 280.713 301.208 280.268C301.042 279.823 301.233 279.309 301.668 279.117L301.715 279.096C302.176 278.893 302.717 279.101 302.896 279.572C302.908 279.605 302.92 279.637 302.932 279.669C303.108 280.142 302.837 280.654 302.356 280.804L302.306 280.819ZM221.247 277.202C220.99 277.608 220.465 277.747 220.047 277.509L220.01 277.488C219.572 277.239 219.418 276.681 219.687 276.254C219.702 276.231 219.717 276.207 219.732 276.183C220.003 275.758 220.574 275.658 220.987 275.947L221.022 275.972C221.415 276.247 221.504 276.796 221.247 277.202ZM299.884 275.952C299.489 276.229 298.949 276.137 298.655 275.754C298.361 275.372 298.405 274.819 298.775 274.509L298.805 274.484C299.191 274.16 299.769 274.21 300.077 274.609C300.092 274.629 300.107 274.649 300.123 274.669C300.429 275.069 300.329 275.64 299.916 275.93L299.884 275.952ZM224.596 273.165C224.245 273.501 223.691 273.508 223.343 273.169L223.319 273.146C222.958 272.795 222.949 272.217 223.312 271.868C223.327 271.853 223.343 271.838 223.358 271.823C223.722 271.475 224.3 271.508 224.636 271.884L224.658 271.908C224.982 272.271 224.947 272.828 224.596 273.165ZM296.244 271.89C295.919 272.254 295.363 272.287 294.989 271.973C294.615 271.659 294.546 271.101 294.849 270.717L294.866 270.696C295.178 270.3 295.753 270.232 296.139 270.556C296.153 270.568 296.167 270.579 296.181 270.591C296.566 270.915 296.598 271.493 296.263 271.869L296.244 271.89ZM228.745 269.867C228.337 270.139 227.79 270.039 227.507 269.638L227.493 269.619C227.203 269.207 227.301 268.636 227.72 268.357C227.733 268.348 227.746 268.339 227.76 268.331C228.179 268.052 228.743 268.181 229.011 268.607L229.024 268.626C229.286 269.041 229.153 269.594 228.745 269.867ZM291.886 268.595C291.617 269.021 291.054 269.148 290.621 268.889C290.451 268.787 290.28 268.686 290.106 268.586C289.974 268.51 289.928 268.341 290.004 268.208L290.633 267.11C290.711 266.975 290.884 266.928 291.019 267.006C291.214 267.118 291.406 267.231 291.596 267.345C292.028 267.605 292.155 268.169 291.886 268.595ZM233.397 267.212C232.953 267.429 232.412 267.247 232.187 266.807C231.957 266.359 232.129 265.8 232.582 265.579C232.592 265.574 232.603 265.569 232.613 265.563C233.066 265.342 233.61 265.541 233.822 265.999L233.83 266.016C234.038 266.463 233.84 266.995 233.397 267.212ZM287.069 265.998C286.861 266.447 286.328 266.65 285.875 266.451C285.423 266.251 285.209 265.719 285.4 265.263C285.595 264.798 286.134 264.57 286.595 264.773C286.605 264.778 286.615 264.782 286.626 264.787C287.086 264.99 287.281 265.541 287.069 265.998ZM238.349 265.133C237.882 265.3 237.364 265.059 237.189 264.595C237.011 264.124 237.246 263.589 237.72 263.419C237.73 263.415 237.74 263.412 237.75 263.408C238.225 263.239 238.745 263.503 238.907 263.981C239.066 264.45 238.815 264.966 238.349 265.133ZM281.987 263.972C281.827 264.442 281.318 264.701 280.846 264.549C280.374 264.398 280.106 263.89 280.25 263.416C280.397 262.933 280.909 262.653 281.389 262.807C281.398 262.81 281.407 262.813 281.415 262.815C281.895 262.969 282.148 263.495 281.987 263.972ZM243.501 263.565C243.02 263.687 242.527 263.398 242.397 262.919C242.266 262.432 242.551 261.924 243.039 261.8C243.048 261.797 243.057 261.795 243.066 261.793C243.555 261.669 244.049 261.979 244.165 262.469C244.28 262.952 243.982 263.443 243.501 263.565ZM276.727 262.462C276.612 262.945 276.128 263.25 275.643 263.142C275.157 263.034 274.844 262.551 274.946 262.064C275.048 261.571 275.533 261.248 276.025 261.357C276.033 261.359 276.042 261.361 276.051 261.363C276.542 261.473 276.843 261.971 276.727 262.462ZM248.781 262.46C248.291 262.541 247.824 262.211 247.736 261.722C247.647 261.226 247.975 260.745 248.472 260.662C248.48 260.661 248.489 260.659 248.498 260.658C248.995 260.575 249.461 260.925 249.536 261.423C249.611 261.914 249.271 262.379 248.781 262.46ZM271.352 261.418C271.277 261.91 270.819 262.253 270.326 262.185C269.833 262.116 269.483 261.661 269.545 261.167C269.608 260.667 270.065 260.306 270.564 260.375C270.572 260.376 270.579 260.377 270.587 260.378C271.086 260.448 271.428 260.919 271.352 261.418ZM254.142 261.784C253.647 261.827 253.205 261.461 253.155 260.966C253.105 260.464 253.47 260.01 253.973 259.966C253.98 259.966 253.987 259.965 253.995 259.964C254.497 259.921 254.935 260.304 254.972 260.806C255.01 261.303 254.638 261.741 254.142 261.784ZM265.912 260.804C265.875 261.301 265.444 261.678 264.947 261.647C264.45 261.617 264.067 261.189 264.091 260.692C264.116 260.188 264.544 259.794 265.047 259.825C265.055 259.826 265.063 259.826 265.07 259.827C265.573 259.858 265.95 260.302 265.912 260.804ZM259.541 261.515C259.044 261.521 258.63 261.122 258.617 260.625C258.604 260.121 259.002 259.696 259.506 259.69C259.514 259.69 259.521 259.69 259.529 259.69C260.033 259.683 260.442 260.099 260.442 260.603C260.442 261.1 260.039 261.509 259.541 261.515Z" fill="#0B0F15"/>
<path opacity="0.7" d="M303.034 102.51C303.034 98.092 299.452 94.5103 295.034 94.5103H225.885C221.466 94.5103 217.885 98.092 217.885 102.51V284.533C217.885 284.547 217.896 284.558 217.91 284.558C217.924 284.558 217.935 284.569 217.934 284.584C217.665 291.071 221.78 297.607 230.354 302.557C246.981 312.157 273.938 312.157 290.564 302.558C298.877 297.758 303.034 291.468 303.034 285.177V102.51Z" fill="url(#paint0_linear_58_648)"/>
<path opacity="0.2" d="M260.459 309.758C283.972 309.758 303.033 298.753 303.033 285.178C303.033 271.602 283.972 260.597 260.459 260.597C236.946 260.597 217.885 271.602 217.885 285.178C217.885 298.753 236.946 309.758 260.459 309.758Z" fill="#0B0F15"/>
<path d="M260.46 273.883C249.469 273.883 238.477 271.468 230.11 266.636C221.91 261.903 217.395 255.579 217.395 248.831C217.395 242.083 221.91 235.759 230.109 231.025C246.844 221.363 274.072 221.365 290.809 231.026C299.008 235.761 303.524 242.084 303.524 248.832C303.524 255.58 299.008 261.903 290.81 266.636C282.443 271.468 271.452 273.883 260.46 273.883ZM260.458 224.746C249.644 224.746 238.832 227.122 230.599 231.875C222.716 236.426 218.374 242.448 218.374 248.832C218.375 255.215 222.717 261.237 230.6 265.789C247.065 275.295 273.856 275.293 290.319 265.789C298.203 261.238 302.543 255.216 302.543 248.833C302.543 242.449 298.203 236.428 290.319 231.876C282.086 227.122 271.272 224.746 260.458 224.746Z" fill="#0B0F15"/>
<path opacity="0.5" d="M260.46 249.302C249.469 249.302 238.477 246.887 230.11 242.056C221.91 237.322 217.395 230.999 217.395 224.251C217.395 217.503 221.91 211.179 230.109 206.445C246.844 196.784 274.072 196.783 290.809 206.446C299.008 211.18 303.524 217.503 303.524 224.252C303.524 231 299.008 237.322 290.81 242.056C282.443 246.887 271.452 249.302 260.46 249.302ZM260.457 200.164C249.644 200.164 238.831 202.541 230.599 207.293C222.716 211.844 218.374 217.866 218.374 224.25C218.375 230.633 222.717 236.655 230.6 241.207C247.065 250.712 273.856 250.712 290.319 241.207C298.203 236.656 302.543 230.634 302.543 224.251C302.543 217.867 298.203 211.846 290.319 207.294C282.086 202.541 271.272 200.164 260.457 200.164Z" fill="#0B0F15"/>
<path opacity="0.3" d="M260.461 224.721C249.469 224.721 238.478 222.306 230.11 217.474C221.91 212.741 217.395 206.418 217.395 199.67C217.395 192.922 221.909 186.598 230.109 181.864C246.844 172.202 274.072 172.202 290.809 181.865C299.008 186.599 303.524 192.922 303.524 199.671C303.524 206.419 299.008 212.741 290.81 217.475C282.443 222.305 271.452 224.721 260.461 224.721ZM260.457 175.584C249.644 175.584 238.831 177.96 230.599 182.713C222.716 187.264 218.374 193.286 218.374 199.67C218.375 206.053 222.717 212.074 230.6 216.625C247.064 226.132 273.856 226.131 290.319 216.626C298.203 212.075 302.543 206.053 302.543 199.67C302.543 193.286 298.203 187.265 290.319 182.713C282.086 177.96 271.272 175.584 260.457 175.584Z" fill="#0B0F15"/>
<path opacity="0.1" d="M260.461 200.141C249.469 200.141 238.478 197.726 230.11 192.894C221.91 188.16 217.395 181.837 217.395 175.089C217.395 168.341 221.91 162.018 230.109 157.284C246.844 147.622 274.072 147.622 290.809 157.284C299.008 162.018 303.524 168.341 303.524 175.09C303.524 181.838 299.009 188.161 290.81 192.895C282.443 197.725 271.452 200.141 260.461 200.141ZM260.458 151.004C249.644 151.004 238.831 153.38 230.599 158.132C222.716 162.683 218.375 168.705 218.374 175.089C218.374 181.472 222.717 187.494 230.6 192.046C247.063 201.553 273.856 201.552 290.319 192.046C298.203 187.495 302.543 181.473 302.543 175.091C302.543 168.707 298.203 162.685 290.319 158.133C282.086 153.38 271.272 151.004 260.458 151.004Z" fill="#0B0F15"/>
<path d="M221.727 241.863C221.727 243.024 220.785 243.966 219.623 243.966C218.461 243.966 217.52 243.024 217.52 241.863C217.52 240.701 218.461 239.759 219.623 239.759C220.785 239.759 221.727 240.701 221.727 241.863Z" fill="white"/>
<path d="M285.477 231.139C286.638 231.139 287.58 230.197 287.58 229.035C287.58 227.873 286.638 226.931 285.477 226.931C284.315 226.931 283.373 227.873 283.373 229.035C283.373 230.197 284.315 231.139 285.477 231.139Z" fill="white"/>
<path d="M265.805 199.67C265.805 200.831 264.863 201.773 263.701 201.773C262.54 201.773 261.598 200.831 261.598 199.67C261.598 198.508 262.54 197.566 263.701 197.566C264.863 197.566 265.805 198.508 265.805 199.67Z" fill="white"/>
<path d="M232.715 182.185C232.715 183.346 231.773 184.288 230.611 184.288C229.45 184.288 228.508 183.346 228.508 182.185C228.508 181.023 229.45 180.081 230.611 180.081C231.773 180.081 232.715 181.023 232.715 182.185Z" fill="white"/>
<path d="M282.801 178.344C282.801 179.506 281.859 180.448 280.697 180.448C279.536 180.448 278.594 179.506 278.594 178.344C278.594 177.183 279.536 176.241 280.697 176.241C281.859 176.241 282.801 177.183 282.801 178.344Z" fill="white"/>
<path d="M300.612 164.127C300.612 165.289 299.67 166.231 298.508 166.231C297.346 166.231 296.404 165.289 296.404 164.127C296.404 162.965 297.346 162.023 298.508 162.023C299.67 162.023 300.612 162.965 300.612 164.127Z" fill="white"/>
<path d="M261.075 150.962C261.075 152.925 259.484 154.517 257.52 154.517C255.556 154.517 253.965 152.925 253.965 150.962C253.965 148.998 255.556 147.407 257.52 147.407C259.484 147.407 261.075 148.998 261.075 150.962Z" fill="white"/>
<path d="M256.786 103.1C257.594 102.781 261.579 100.424 260.402 96.271C259.225 92.1185 254.372 93.8252 252.979 94.4918C251.585 95.1592 252.043 95.3524 248.992 96.1414C245.942 96.9312 245.057 96.428 240.826 97.2789C236.593 98.1299 234.012 97.9649 234.012 97.9649C237.742 95.284 240.004 90.3112 239.191 88.0014C238.378 85.6909 234.231 86.112 232.636 87.6166C231.041 89.1213 227.209 92.4518 225.371 92.8624C223.533 93.273 219.563 94.8815 219.563 94.8815C219.563 94.8815 219.255 92.6185 216.988 92.2119C214.721 91.8053 212.804 93.4002 212.032 94.6279C211.26 95.8556 208.267 96.9078 208.267 96.9078C206.813 98.3384 206.223 99.3826 203.687 100.342C202.416 100.823 200.467 100.82 198.057 101.762C190.837 104.585 192.538 107.007 190.277 108.362C188.015 109.716 184.474 112.11 184.474 112.11C176.15 123.765 163.241 135.578 153.133 143.98C164.331 151.633 173.899 168.404 175.429 184.053C175.523 185.018 175.575 185.952 175.606 186.866C184.634 183.588 192.928 184.193 198.995 182.528C207.604 180.166 219.536 168.596 219.536 168.596C224.943 167.26 225.569 166.828 228.405 165.299C231.241 163.771 243.726 160.477 247.103 160.174C250.479 159.872 254.174 159.174 255.374 157.048C257.202 153.81 255.013 149.993 255.013 149.993C255.013 149.993 256.073 150.187 257.914 148.477C259.755 146.767 258.246 142.979 254.699 137.323C251.151 131.668 249.68 121.176 246.873 119.237C244.067 117.298 235.756 112.055 235.756 112.055C240.505 111.164 248.345 107.486 250.665 106.634C252.985 105.783 255.978 103.42 256.786 103.1ZM237.435 131.856C238.134 135.857 241.697 140.08 242.486 140.982C243.275 141.885 244.5 144.427 244.5 144.427C243.836 144.319 241.186 144.802 241.186 144.802C234.803 146.482 232.06 146.03 229.262 145.422C226.463 144.813 221.13 139.715 223.147 137.094C225.163 134.474 225.631 128.255 225.631 128.255C226.306 128.867 229.92 128.269 229.92 128.269C230.915 130.397 237.435 131.856 237.435 131.856Z" fill="#EAC506"/>
<path d="M198.688 179.544C203.882 177.709 215.117 169.407 219.535 168.596C219.535 168.596 207.603 180.166 198.994 182.529C194.396 183.79 188.519 183.747 182.014 185.077L184.671 180.914C184.671 180.914 193.494 181.378 198.688 179.544Z" fill="#0B0F15"/>
<path d="M230.964 129.375C230.478 129.032 230.104 128.662 229.919 128.269C229.919 128.269 229.705 128.304 229.375 128.349C232.73 127.34 234.591 123.334 234.591 123.334C234.81 126.368 230.972 129.369 230.964 129.375Z" fill="#0B0F15"/>
<path d="M225.63 128.255C225.63 128.255 225.564 129.116 225.379 130.331C224.47 127.01 225.662 122.509 225.662 122.509C225.421 124.538 226.624 128.509 226.626 128.517C226.174 128.489 225.804 128.412 225.63 128.255Z" fill="#0B0F15"/>
<path d="M237.743 133.093C237.617 132.681 237.508 132.267 237.437 131.856C237.437 131.856 236.871 131.728 236.057 131.497C236.078 131.497 241.517 131.419 245.374 128.219C245.374 128.219 243.106 131.452 237.743 133.093Z" fill="#0B0F15"/>
<g opacity="0.52">
<path d="M243.537 144.457C242.925 144.587 242.461 144.645 242.117 144.647C242.554 144.578 243.077 144.503 243.537 144.457Z" fill="#E28C61"/>
</g>
<path d="M243.164 141.951C243.164 141.951 253.59 145.431 255.013 149.993C252.562 146.775 248.921 144.723 244.89 144.384L244.462 144.348C244.314 144.049 243.74 142.891 243.164 141.951Z" fill="#0B0F15"/>
<path d="M238.699 111.295C238.699 111.295 222.409 105.043 220.533 104.476L235.755 112.054L238.699 111.295Z" fill="#0B0F15"/>
<path d="M237.228 94.6421C236.364 95.8843 235.274 97.0573 234.01 97.9662C234.01 97.9662 235.17 98.033 237.174 97.8325V97.8366L230.914 98.6304C234.692 97.7206 236.7 95.3489 237.228 94.6421Z" fill="#0B0F15"/>
<path d="M218.688 95.4739C219.628 95.0174 219.154 93.8276 219.036 93.5659C219.467 94.2317 219.567 94.8814 219.567 94.8814C219.567 94.8814 220.41 94.54 221.497 94.1327C220.645 94.4483 218.688 95.4739 218.688 95.4739Z" fill="#0B0F15"/>
<path d="M255.014 149.993C255.014 149.993 249.685 143.178 240.773 144.91C240.773 144.91 244.561 143.887 245.956 143.915C246.702 143.931 248.967 144.989 250.75 146.067C252.304 147.008 253.448 147.987 253.448 147.987L255.014 149.993Z" fill="#0B0F15"/>
<path d="M179.016 149.862C179.016 149.862 193.242 165.765 188.308 181.412L182.093 181.356L179.016 149.862Z" fill="#FFFADA"/>
<path d="M163.824 134.986C159.004 132.798 154.792 133.036 151.643 135.2L151.638 135.192L144.697 140.165C146.041 140.446 147.438 140.898 148.888 141.557C161.825 147.429 173.707 166.455 175.426 184.052C175.869 188.584 175.588 192.571 174.715 195.904L181.761 190.855L181.76 190.852C185.908 187.806 188.112 181.302 187.252 172.503C185.734 156.969 175.245 140.172 163.824 134.986Z" fill="#FFF5B9"/>
<path d="M89.847 174.995L89.8462 174.994L89.8744 174.973C89.9026 174.953 89.9316 174.933 89.9597 174.912L135.09 141.79L135.095 141.799C138.661 139.348 143.432 139.078 148.892 141.557C161.828 147.43 173.71 166.456 175.43 184.053C176.404 194.02 173.907 201.387 169.209 204.837L169.212 204.841L124.525 237.638C124.489 237.665 124.451 237.69 124.415 237.717L124.019 238.002L124.014 237.993C120.458 240.385 115.723 240.627 110.312 238.17C97.3752 232.297 85.4933 213.271 83.7737 195.674C82.8084 185.809 85.2429 178.49 89.847 174.995Z" fill="url(#paint1_linear_58_648)"/>
<path d="M376.971 205.534C376.677 205.074 376.394 204.587 376.129 204.07C376.129 204.07 361.196 177.561 360.374 173.643C359.552 169.724 356.28 167.902 355.008 167.655C355.008 167.655 352.865 165.788 350.157 165.723C350.157 165.723 347.588 162.059 338.381 162.777C329.173 163.495 329.374 162.973 329.374 162.973C329.374 162.973 316.29 145.957 313.086 145.137C309.881 144.317 308.935 145.288 305.124 145.042C301.314 144.796 296.648 144.121 293.347 145.41C290.047 146.698 289.015 146.663 289.015 146.663C289.015 146.663 283.654 147.187 285.119 151.107C286.583 155.027 291 155.588 291.851 155.407C292.702 155.226 295.912 154.53 296.672 154.777C297.432 155.023 301.089 158.14 306.128 157.66C306.128 157.66 307.626 162.55 310.538 165.515C310.538 165.515 307.775 166.758 307.997 171.599C308.219 176.44 312.771 190.951 313.508 191.612C314.245 192.275 314.578 193.106 318.798 194.172C318.798 194.172 318.298 197.125 312.504 198.308C312.504 198.308 306.138 198.49 298.449 196.823C298.449 196.823 297.212 195.421 294.51 194.822C291.806 194.223 285.856 192.647 281.951 195.178C278.047 197.709 277.918 200.156 280.863 202.312C283.808 204.466 287.73 204.263 287.73 204.263C287.73 204.263 290.4 208.046 292.092 209.182C293.784 210.319 305.349 212.317 313.006 217.035C313.006 217.035 314.09 217.906 319.084 219.864C324.078 221.823 328.134 226.238 328.134 226.238C328.134 226.238 336.754 232.957 345.865 235.451C347.327 235.851 348.701 236.313 349.994 236.8C354.805 223.412 365.849 210.787 376.971 205.534Z" fill="#EAC506"/>
<path d="M320.907 189.44L320.866 187.231L319.165 181.213L317.085 175.245L315.689 171.734L313.373 168.762L310.307 165.651C309.647 166.077 307.816 167.623 307.999 171.601C308.221 176.442 312.773 190.952 313.51 191.614C314.233 192.265 314.576 193.078 318.581 194.117L318.845 193.813L320.147 191.815L320.907 189.44Z" fill="#EAC506"/>
<path d="M310.539 165.516C310.539 165.516 314.867 169.588 316.011 172.019C317.155 174.45 320.696 184.568 320.766 185.736C320.836 186.904 322.471 189.859 318.798 194.174L318.247 194.031C318.247 194.031 321.145 190.873 320.542 187.614C319.673 182.919 316.008 172.822 315.368 171.66C314.728 170.497 310.23 165.701 310.23 165.701L310.539 165.516Z" fill="#0B0F15"/>
<path d="M318.18 178.771C318.18 178.771 312.659 174.855 311.643 174.361C311.643 174.361 317.053 178.206 317.025 179.115C316.997 180.025 316.128 180.425 316.128 180.425C316.128 180.425 318.115 179.483 318.736 180.239C319.357 180.994 318.18 178.771 318.18 178.771Z" fill="#0B0F15"/>
<path d="M319.992 184.391C319.992 184.391 314.996 187.007 314.289 188.354C314.289 188.354 318.776 185.762 320.209 186.084L319.992 184.391Z" fill="#0B0F15"/>
<path d="M306.365 158.347C306.365 158.347 305.837 156.244 305.678 154.011L305.728 157.691L306.059 157.836L306.365 158.347Z" fill="#EAC506"/>
<path d="M342.842 230.985C342.842 230.985 331.566 227.364 326.683 222.868C321.8 218.374 317.266 218.886 313.477 217.338C314.167 217.741 315.753 218.56 319.085 219.867C324.078 221.826 328.134 226.241 328.134 226.241C328.134 226.241 336.098 232.445 344.806 235.143L342.842 230.985Z" fill="#FFFADA"/>
<path d="M369.404 194.479C374.429 193.279 378.42 194.29 381.034 196.949L381.04 196.943L386.765 202.999C385.425 203.019 384.002 203.191 382.491 203.552C369.004 206.773 354.082 222.79 349.16 239.328C347.893 243.588 347.42 247.46 347.637 250.815L341.825 244.668L341.828 244.665C338.421 240.976 337.519 234.335 339.98 226.064C344.323 211.462 357.498 197.321 369.404 194.479Z" fill="#FFF5B9"/>
<path d="M432.836 246.571L432.838 246.569L432.815 246.544C432.792 246.518 432.768 246.495 432.745 246.47L395.67 206.342L395.663 206.35C392.702 203.337 388.182 202.193 382.49 203.552C369.004 206.772 354.081 222.789 349.159 239.328C346.372 248.695 347.394 256.217 351.252 260.397L351.25 260.4L387.96 300.134C387.99 300.167 388.021 300.198 388.051 300.231L388.378 300.576L388.383 300.569C391.346 303.522 395.836 304.634 401.478 303.287C414.964 300.067 429.887 284.05 434.809 267.511C437.568 258.24 436.598 250.776 432.836 246.571Z" fill="url(#paint2_linear_58_648)"/>
<path opacity="0.4" d="M424.471 233.338C424.593 232.952 424.707 232.567 424.814 232.181C426.186 227.235 426.109 222.953 424.838 219.591L429.835 224.736C431.107 228.098 431.184 232.38 429.811 237.325C429.704 237.711 429.59 238.097 429.468 238.482L424.471 233.338Z" fill="#FFFADE"/>
<path opacity="0.9" d="M411.527 253.204C416.045 248.828 419.862 243.729 422.419 238.453L427.416 243.598C424.859 248.874 421.042 253.973 416.524 258.348L411.527 253.204Z" fill="#FFFADA"/>
<path opacity="0.9" d="M391.25 265.491C396.641 263.982 402.071 261.028 406.98 257.173L411.977 262.317C407.068 266.172 401.638 269.127 396.247 270.635L391.25 265.491Z" fill="white"/>
<g opacity="0.4">
<path d="M439.586 211.391C421.578 195.142 384.932 214.836 367.563 242.356L359.82 234.386C381.798 200.965 417.792 189.425 431.843 203.421L439.586 211.391Z" fill="#EAC506"/>
</g>
<g opacity="0.9">
<path d="M443.515 238.048C430.9 275.525 384.544 302.855 364.781 284.466L356.994 276.54C377.287 294.643 423.644 267.313 435.727 230.121L443.515 238.048Z" fill="#E7DEA9"/>
</g>
<g opacity="0.4">
<path d="M364.782 284.466C348.958 266.083 369.503 229.907 397.421 213.186L389.634 205.26C355.708 226.45 343.33 262.165 356.994 276.539L364.782 284.466Z" fill="#EAC506"/>
</g>
<g opacity="0.9">
<path d="M427.224 220.577C424.996 218.283 421.807 216.923 417.874 216.716L412.877 211.572C416.81 211.779 419.999 213.139 422.227 215.432L427.224 220.577Z" fill="#0B0F15"/>
</g>
<path d="M147.557 233.873C166.729 219.014 153.809 179.469 129.785 157.516L138.997 151.302C168.016 178.831 173.023 216.296 156.768 227.658L147.557 233.873Z" fill="#2A023F"/>
<path opacity="0.9" d="M99.261 171.869C99.2183 171.467 99.1829 171.066 99.1547 170.667C98.7964 165.548 99.7255 161.367 101.642 158.326L95.7195 162.37C93.8026 165.411 92.8736 169.593 93.2319 174.712C93.26 175.111 93.2954 175.512 93.3381 175.914L99.261 171.869Z" fill="#0B0F15"/>
<path opacity="0.9" d="M107.983 193.918C104.428 188.729 101.705 182.971 100.251 177.292L94.3281 181.336C95.7813 187.016 98.5048 192.774 102.06 197.962L107.983 193.918Z" fill="white"/>
<path opacity="0.9" d="M125.401 210.001C120.419 207.448 115.688 203.47 111.645 198.713L105.723 202.758C109.765 207.514 114.496 211.493 119.478 214.046L125.401 210.001Z" fill="#E2BE0E"/>
<g opacity="0.6">
<path d="M88.8223 147.35C109.708 135.018 141.691 161.623 153.225 192.054L162.401 185.787C147.529 148.655 114.558 130.17 97.9984 141.083L88.8223 147.35Z" fill="#DFCC61"/>
</g>
<g opacity="0.9">
<path d="M79.6602 172.688C84.5485 211.928 124.525 247.953 147.557 233.872L156.768 227.658C133.273 241.351 93.2963 205.326 88.8717 166.473L79.6602 172.688Z" fill="#FFF5B9"/>
</g>
<g opacity="0.9">
<path d="M147.557 233.873C166.729 219.015 153.809 179.469 129.785 157.516L138.997 151.302C168.016 178.832 173.023 216.297 156.768 227.659L147.557 233.873Z" fill="#EAC506"/>
</g>
<g opacity="0.2">
<path d="M99.1074 158.816C101.748 157.013 105.144 156.316 109.039 156.898L114.962 152.853C111.067 152.272 107.671 152.968 105.03 154.772L99.1074 158.816Z" fill="#81DAFE"/>
</g>
<defs>
<linearGradient id="paint0_linear_58_648" x1="215.741" y1="90.7733" x2="368.228" y2="155.019" gradientUnits="userSpaceOnUse">
<stop stop-color="#F3D225"/>
<stop offset="1" stop-color="#FFFADA"/>
</linearGradient>
<linearGradient id="paint1_linear_58_648" x1="187.284" y1="145.388" x2="129.871" y2="189.653" gradientUnits="userSpaceOnUse">
<stop stop-color="#EAC506"/>
<stop offset="1" stop-color="#0B0F15"/>
</linearGradient>
<linearGradient id="paint2_linear_58_648" x1="447.624" y1="208.593" x2="390.451" y2="250.778" gradientUnits="userSpaceOnUse">
<stop stop-color="#F5CF09"/>
<stop offset="1" stop-color="#0B0F15"/>
</linearGradient>
</defs>
</svg>
