<svg width="544" height="392" viewBox="0 0 544 392" fill="none" xmlns="http://www.w3.org/2000/svg">
<rect width="544" height="392" fill="#FFFDF1"/>
<path d="M324.593 342.607L326.189 331.445L191.352 334.393L190.62 346.032L190.633 346.031C189.919 350.614 196.509 355.059 210.363 358.313C236.087 364.696 273.265 362.448 300.629 355.723C315.481 352.073 323.519 347.541 324.509 343.113L324.521 343.112L324.547 342.928C324.566 342.821 324.583 342.714 324.593 342.607Z" fill="#EAC506"/>
<path d="M260.413 341.532C260.749 338.644 261.086 335.755 261.423 332.867L260.216 332.893C259.243 341.243 258.27 349.594 257.295 357.945C257.145 359.236 256.995 360.526 256.844 361.816C257.247 361.797 257.651 361.781 258.054 361.761C258.84 355.017 259.626 348.275 260.413 341.532Z" fill="#FFFADA"/>
<path d="M295.62 356.805C296.038 356.715 296.448 356.621 296.86 356.528C297.276 353.44 297.691 350.35 298.106 347.262C298.792 342.164 299.477 337.066 300.162 331.968L298.955 331.994C297.845 340.265 296.733 348.535 295.62 356.805Z" fill="#FFFADA"/>
<path d="M237.015 361.881C237.412 361.899 237.813 361.913 238.212 361.929C238.703 357.938 239.194 353.947 239.686 349.956L241.734 333.322L240.528 333.348L237.015 361.881Z" fill="#FFFADA"/>
<path d="M313.373 351.66C313.807 351.485 314.229 351.308 314.638 351.13C314.964 348.34 315.291 345.549 315.618 342.759C316.054 339.033 316.489 335.308 316.926 331.582L315.719 331.608C314.937 338.292 314.156 344.976 313.373 351.66Z" fill="#FFFADA"/>
<path d="M282.172 332.387L280.963 332.412C279.536 341.672 277.785 350.935 275.709 360.187C276.121 360.136 276.531 360.079 276.943 360.026C278.059 355.047 279.088 350.065 280.016 345.081C280.803 340.85 281.52 336.618 282.172 332.387Z" fill="#FFFADA"/>
<path d="M222.263 358.313C223.028 350.115 223.793 341.918 224.559 333.721L223.352 333.747L222.979 337.739C222.275 345.286 221.57 352.833 220.866 360.381C221.258 360.439 221.657 360.494 222.054 360.549C222.123 359.804 222.193 359.058 222.263 358.313Z" fill="#FFFADA"/>
<path d="M202.254 356.046C202.636 356.18 203.027 356.313 203.427 356.444C203.456 356.033 203.482 355.623 203.513 355.211C204.036 348.202 204.694 341.185 205.485 334.162L204.282 334.188C203.462 341.481 202.786 348.769 202.254 356.046Z" fill="#FFFADA"/>
<path d="M325.119 331.362C323.555 340.174 287.914 348.882 255.937 349.989C222.926 351.131 192.507 343.015 193.307 334.427C194.152 325.361 229.377 316.745 262.253 315.857C295.619 314.957 326.716 322.363 325.119 331.362Z" fill="#0B0F15"/>
<path d="M320.814 336.385C310.285 335.579 299.709 334.809 289.132 334.037C300.927 333.63 312.708 333.256 324.501 332.952C324.818 332.427 325.031 331.897 325.127 331.363C325.224 330.825 325.199 330.296 325.069 329.775C313.268 330.073 301.475 330.433 289.67 330.823C300.612 329.315 311.598 327.844 322.671 326.423C321.464 325.422 319.854 324.468 317.921 323.574C307.001 325.008 296.151 326.481 285.334 327.981C293.689 325.6 302.063 323.223 310.436 320.846C307.825 320.083 304.953 319.392 301.874 318.784C293.562 321.17 285.246 323.555 276.94 325.944C281.696 323 286.443 320.054 291.173 317.108C287.743 316.696 284.153 316.373 280.421 316.151C275.542 319.107 270.688 322.064 265.86 325.025C266.441 321.947 267.148 318.87 268.06 315.787C266.154 315.786 264.221 315.809 262.259 315.858C260.286 315.907 258.33 315.983 256.388 316.08C255.274 319.18 254.41 322.273 253.725 325.369C250.086 322.633 246.707 319.877 243.676 317.073C239.783 317.485 235.985 317.991 232.319 318.575C235.295 321.402 238.638 324.178 242.262 326.932C234.867 324.934 227.696 322.889 220.754 320.776C217.385 321.532 214.21 322.358 211.292 323.24C218.373 325.38 225.679 327.452 233.203 329.48C222.934 328.489 212.818 327.43 202.811 326.295C200.575 327.272 198.665 328.292 197.159 329.346C207.324 330.519 217.604 331.61 228.056 332.627C216.571 332.81 205.201 332.881 193.807 332.813C193.534 333.346 193.364 333.884 193.312 334.428C193.261 334.968 193.328 335.501 193.499 336.026C204.883 336.126 216.237 336.074 227.73 335.899C217.325 337.197 206.904 338.388 196.19 339.421C197.494 340.44 199.207 341.413 201.244 342.328C211.791 341.34 222.042 340.083 232.217 338.787C224.609 340.928 216.974 343.064 209.043 345.12C211.737 345.902 214.673 346.608 217.776 347.227C225.541 345.135 233.083 342.985 240.614 340.833C236.458 343.52 232.336 346.21 228.398 348.913C231.751 349.321 235.215 349.631 238.774 349.833C242.929 347.118 247.212 344.415 251.513 341.714C251.221 344.511 250.928 347.309 250.468 350.11C252.269 350.096 254.091 350.056 255.943 349.989C257.786 349.922 259.615 349.831 261.435 349.717C262.326 346.909 262.883 344.107 263.39 341.304C266.967 343.723 270.402 346.152 273.522 348.628C277.261 348.19 280.953 347.667 284.568 347.072C281.565 344.576 278.219 342.13 274.702 339.696C281.919 341.398 289.103 343.107 296.158 344.856C299.58 344.102 302.851 343.285 305.883 342.414C298.647 340.622 291.218 338.887 283.803 337.148C294.146 337.888 304.493 338.624 314.789 339.397C317.156 338.433 319.192 337.426 320.814 336.385Z" fill="#FFFADA"/>
<path d="M255.859 349.297C239.86 349.868 226.121 348.257 215.384 345.765C191.461 340.21 190.58 329.776 217.701 322.799C242.648 316.382 280.024 315.063 303.412 320.713C327.849 326.617 324.656 336.889 298.597 343.329C286.666 346.278 271.989 348.713 255.859 349.297ZM261.52 317.24C245.094 317.657 230.398 319.888 218.17 322.941C191.407 329.619 192.278 339.902 215.881 345.632C239.012 351.246 273.532 349.598 298.131 343.213C323.799 336.551 327.629 326.457 302.858 320.871C291.638 318.341 277.704 316.833 261.52 317.24Z" fill="#EAC506"/>
<path d="M197.238 335.524C197.342 326.324 233.277 317.477 265.698 316.846C281.961 316.529 295.668 317.774 308.279 320.264C296.663 317.118 279.755 315.458 262.271 315.875C229.354 316.66 193.698 325.27 193.314 334.452C193.108 339.348 201.901 343.843 215.3 346.736C204.208 343.922 197.188 339.853 197.238 335.524Z" fill="#EAC506"/>
<path d="M212.048 346.543C184.869 340.139 185.586 329.171 214.692 321.573C241.833 314.488 282.231 313.228 307.704 319.386C334.497 325.862 332.019 336.707 302.312 343.998C274.952 350.713 237.776 352.944 212.048 346.543ZM304.944 320.174C280.912 314.181 242.498 315.677 216.994 322.283C189.618 329.375 189.099 339.883 214.504 345.892C239.065 351.702 274.216 350.034 300.004 343.418C327.026 336.488 330.811 326.242 304.944 320.174Z" fill="#EBEBEC"/>
<path d="M195.203 339.859C193.568 338.499 192.311 336.808 192.402 335.352C192.99 325.91 229.864 316.861 263.999 316.052C282.578 315.612 300.543 317.416 312.787 320.789C300.751 317.122 282.014 314.834 262.443 315.355C228.797 316.251 191.986 325.034 191.363 334.408C191.24 336.274 192.862 338.164 195.203 339.859Z" fill="#EBEBEC"/>
<path d="M298.466 322.658C307.224 324.924 312.39 328.188 311.881 331.649C310.812 338.917 282.846 345.936 256.562 346.947C243.929 347.433 231.85 346.369 222.814 344.344C232.051 346.731 245.047 348.039 258.855 347.492C284.981 346.456 313.293 339.507 314.488 332.247C315.112 328.445 308.782 324.93 298.466 322.658Z" fill="#EAC506"/>
<path d="M311.867 331.717C310.572 338.932 282.853 345.929 256.574 346.967C228.827 348.062 205.405 341.532 206.039 334.487C206.701 327.12 233.388 319.918 261.177 319.275C288.132 318.651 313.182 324.377 311.867 331.717Z" fill="#0B0F15"/>
<path d="M207.546 336.777C207.932 328.677 235.316 320.719 265.611 319.247C264.16 319.252 262.68 319.275 261.202 319.311C233.514 319.982 206.846 327.125 206.045 334.538C205.908 335.812 206.55 337.044 207.78 338.196C207.616 337.731 207.523 337.256 207.546 336.777Z" fill="#EAC506"/>
<path d="M256.507 347.391C227.84 348.545 203.674 341.712 204.315 334.465C204.986 326.866 232.721 319.449 261.311 318.8C289.074 318.171 315.032 324.122 313.666 331.687C312.325 339.115 283.632 346.363 256.507 347.391ZM261.048 319.736C234.028 320.328 208.54 327.296 207.779 334.462C207.039 341.43 229.926 347.533 256.665 346.552C282.151 345.616 309.053 338.841 310.078 331.791C311.115 324.658 287.644 319.041 261.048 319.736Z" fill="#EBEBEC"/>
<path d="M235.405 314.935C230.267 316.696 224.968 314.851 223.57 310.815C224.968 314.851 221.935 319.55 216.797 321.31C221.935 319.55 227.234 321.394 228.632 325.43C227.234 321.394 230.266 316.696 235.405 314.935Z" fill="#EBEBEC"/>
<path d="M467.548 216.499C463.046 211.64 455.776 210.126 449.189 211.003C442.603 211.881 436.499 214.813 430.524 217.705C440.693 212.656 442.225 196.463 433.469 189.261C426.93 183.883 416.764 184.778 410.181 189.904C414.065 184.752 417.568 179.344 419.646 173.281C422.626 164.587 422.164 154.138 416.112 147.199C409.793 139.952 386.814 135.535 379.949 144.39C383.868 139.336 387.846 134.172 390 128.159C392.154 122.148 392.218 115.037 388.592 109.774C385.14 104.762 378.707 102.192 372.617 102.681C366.529 103.171 360.866 106.445 356.782 110.96C371.271 73.0545 344.573 31.6642 302.621 34.1028C282.86 35.2505 262.971 49.2117 260.329 68.7223C261.741 61.6353 255.634 54.9899 248.87 52.3544C239.421 48.6706 228.009 50.5503 220.258 57.0684C212.508 63.5846 208.748 74.4647 210.83 84.3444C209.25 76.8476 188.462 74.1127 182.782 74.5045C174.46 75.0793 161.899 78.8108 155.977 84.8476C150.294 90.6397 149.222 98.6954 149.408 106.435C149.546 112.195 150.77 115.276 149.668 117.544C130.397 114.007 103.978 132.398 103.448 151.771C97.7832 168.145 105.928 179.652 109.95 195.612C100.181 189.9 83.9924 202.333 78.7701 210.14C68.6735 225.233 70.4396 246.254 80.2961 261.502C87.9826 273.392 99.8373 282.021 112.992 287.622C154.3 310.854 206.827 307.803 253.404 313.961C254.364 314.924 255.742 315.52 257.572 315.407C287.244 313.553 316.88 307.363 346.017 301.724C374.723 296.169 404.263 290.154 431.02 278.059C448.077 270.349 459.79 259.499 468.443 242.797C470.449 238.924 471.775 234.441 471.975 230.063C472.199 225.044 470.949 220.167 467.548 216.499Z" fill="#EAC506"/>
<path d="M437.732 250.838C436.375 236.257 424.449 227.642 411.504 227.55C416.132 220.77 414.128 209.768 407.376 204.288C399.317 197.748 387.529 197.816 377.66 201.084C380.348 192.195 377.78 181.937 371.212 175.34C364.645 168.744 354.355 166.087 345.39 168.67C351.333 150.174 351.503 128.346 339.544 112.995C328.743 99.1311 310.116 93.3051 292.481 93.1997C274.678 93.0943 255.107 99.7894 245.856 114.268C236.428 108.688 224.717 108.175 215.317 114.906C210.382 118.439 207.232 122.98 205.55 128.01C186.589 125.86 170.912 140.85 169.934 158.353C153.679 157.174 138.468 167.915 133.394 184.412C129.486 197.116 131.664 210.16 137.82 221.211C127.764 220.907 117.227 225.973 111.543 234.468C103.16 246.999 104.626 264.453 112.809 277.112C119.191 286.984 129.034 294.148 139.956 298.798C174.254 318.088 217.867 315.554 256.537 320.668C257.333 321.468 258.479 321.963 259.997 321.868C284.633 320.328 309.24 315.19 333.431 310.508C357.265 305.895 381.792 300.901 404.008 290.86C419.867 283.69 439.582 270.731 437.732 250.838Z" fill="#FFFADA"/>
<path d="M338.558 310.168C316.588 319.22 292.925 324.137 269.158 324.76C245.668 325.376 223.729 319.162 201.468 312.352C189.651 308.738 175.07 301.354 175 286.703C174.956 277.547 182.669 269.653 191.493 267.047C184.439 260.173 184.177 248.149 189.549 239.909C194.921 231.668 204.814 227.075 214.66 226.295C212.434 219.911 213.52 212.477 217.481 206.986C221.441 201.494 228.173 198.089 234.968 198.138C236.228 193.953 240.042 190.642 244.384 189.969C248.724 189.295 253.373 191.292 255.855 194.898C258.945 186.823 265.971 180.34 274.302 177.884C278.846 176.543 283.774 176.366 288.335 177.661C298.299 180.491 305.208 189.975 307.846 199.942C310.484 209.908 309.596 220.418 308.688 230.683C313.1 228.084 319.043 228.32 323.231 231.264C327.421 234.208 329.629 239.698 328.637 244.702C334.759 243.24 341.018 241.768 347.284 242.357C353.553 242.946 359.943 245.983 362.891 251.515C367.309 259.809 362.691 269.882 357.685 277.838C360.903 277.452 363.871 280.249 364.553 283.399C365.235 286.55 364.113 289.834 362.485 292.621C357.413 301.301 347.882 306.325 338.558 310.168Z" fill="#0B0F15"/>
<path d="M316.165 237.537C319.989 232.306 323.923 227.162 327.84 222.009L328.556 219.857C328.758 219.246 328.09 218.757 327.694 219.224L322.305 225.627C317.105 233.864 312.063 242.198 307.068 250.562C310.027 246.17 313.039 241.814 316.165 237.537Z" fill="url(#paint0_linear_58_652)"/>
<path d="M285.459 218.186V192.732C285.459 192.071 284.665 191.896 284.453 192.509L283.627 194.896C284.299 202.655 284.903 210.418 285.459 218.186Z" fill="url(#paint1_linear_58_652)"/>
<path d="M249.277 144.674L242.495 97.7185C242.391 96.9925 241.459 97.08 241.459 97.816V104.517C243.685 117.935 246.585 131.302 249.277 144.674Z" fill="url(#paint2_linear_58_652)"/>
<path d="M179.223 296.127L203.582 329.714C203.684 329.853 203.834 329.933 203.994 329.929L205.408 329.893C196.74 318.591 188.077 307.285 179.223 296.127Z" fill="url(#paint3_linear_58_652)"/>
<path d="M198.236 310.979L210.595 322.07C206.821 317.865 202.763 313.981 198.236 310.979Z" fill="white"/>
<path d="M341.511 267.695C342.201 266.967 342.871 266.223 343.567 265.501C343.897 265.159 344.289 265.014 344.679 264.974C345.427 263.831 345.849 263.184 345.849 263.184L313.697 285.955C323.086 280.049 332.33 273.925 341.511 267.695Z" fill="white"/>
<path d="M297.364 304.451C296.405 304.925 295.522 304.51 295.121 303.864L294.05 304.51L299.361 280.217C299.139 281.171 296.127 282.961 295.279 283.675C293.665 285.032 292.043 286.382 290.421 287.733C287.467 290.195 284.571 292.474 282.232 295.371C283.369 293 284.14 290.503 284.519 287.963C282.516 289.657 280.591 291.416 278.749 293.236C279.904 292.096 278.561 286.813 278.573 285.187C278.595 282.005 278.681 278.826 278.647 275.642C278.579 269.278 278.316 262.917 278.138 256.554L262.092 281.02L251.269 231.51C250.002 249.901 251.141 268.292 252.779 286.649C252.898 287.999 251.151 288.371 250.108 287.781V296.683L229.193 283.636C230.623 288.259 232.005 292.893 233.191 297.567C233.487 298.735 232.239 299.538 231.198 299.472L232.133 304.514L176.209 269.275L214.471 313.715L203.024 313.076C210.105 317.691 216.041 323.893 221.685 329.91L294.424 328.09C306.036 313.493 318.353 299.334 331.998 286.05C320.65 292.441 309.148 298.638 297.364 304.451Z" fill="white"/>
<path d="M300.369 324.777C303.743 320.272 306.973 315.642 310.16 310.971C306.831 315.524 303.575 320.133 300.369 324.777Z" fill="#FFF28C"/>
<path d="M321.816 119.033C307.473 107.801 284.018 104.623 268.643 115.547C266.913 116.776 267.871 119.984 270.197 119.21C286.662 113.729 303.315 111.984 318.096 123.135C331.825 133.492 337.317 151.246 335.021 167.843C334.765 169.687 337.349 170.538 337.913 168.636C343.298 150.518 336.783 130.753 321.816 119.033Z" fill="url(#paint4_linear_58_652)"/>
<path d="M218.634 145.382C212.021 140.072 202.021 140.748 194.676 144.462C187.418 148.131 184.136 155.602 184.724 163.338C162.344 163.292 140.011 184.475 149.746 207.739C150.446 209.414 152.704 208.788 152.458 206.995C151.68 201.325 150.492 195.069 152.204 189.432C154.102 183.179 159.506 178.069 164.647 174.303C174.315 167.222 186.124 164.446 197.472 169.337C199.311 170.128 200.953 167.519 199.08 166.6C195.29 164.736 191.27 163.73 187.214 163.431C188.702 157.605 190.142 151.533 195.806 148.29C201.953 144.772 210.697 144.396 217.044 147.433C218.286 148.028 219.874 146.377 218.634 145.382Z" fill="url(#paint5_linear_58_652)"/>
<path d="M387.926 239.737C386.347 239.926 386.275 242.381 387.926 242.255C395.242 241.692 402.406 243.765 407.847 248.807C413.035 253.617 414.807 259.699 416.821 266.19C417.397 268.043 419.921 267.572 420.089 265.75C421.658 248.764 402.916 237.945 387.926 239.737Z" fill="url(#paint6_linear_58_652)"/>
<path d="M321.519 51.1968C311.056 45.9775 297.895 45.3709 287.657 51.5807C286.171 52.4817 287.267 54.9641 288.725 54.6339C298.227 52.4857 307.074 50.1844 316.641 53.5876C325.105 56.5971 335.072 63.7139 337.756 74.4469C338.086 75.7656 339.956 75.5965 339.838 74.1067C338.966 63.0098 329.423 55.1411 321.519 51.1968Z" fill="white"/>
<path d="M141.093 129.611C121.556 124.553 107.693 152.199 112.571 167.837C113.027 169.299 115.441 169.098 115.367 167.463C115.035 160.149 115.451 153.008 118.918 146.377C122.842 138.87 131.082 130.023 140.543 131.57C141.827 131.781 142.405 129.951 141.093 129.611Z" fill="white"/>
<path d="M411.635 85.7268C411.219 85.868 410.814 86.0232 410.4 86.1644C409.282 87.2444 408.19 88.3265 407.116 89.4105C407.18 89.689 407.156 89.9913 406.93 90.3335C397.332 104.816 385.935 118.715 373.32 132.205C373.37 132.392 373.396 132.599 373.46 132.772C387.397 117.102 400.65 101.202 413.847 85.2812C413.105 85.4225 412.383 85.5975 411.635 85.7268Z" fill="url(#paint7_linear_58_652)"/>
<path d="M205.527 90.9698C201.036 82.7312 196.622 74.4547 191.506 66.5959C193.206 76.5611 196.058 86.7769 200.892 92.9509C202.452 92.3164 203.999 91.662 205.527 90.9698Z" fill="url(#paint8_linear_58_652)"/>
<path d="M127.514 127.895C123.564 124.036 119.556 120.225 115.59 116.378C115.484 116.995 115.438 117.613 115.43 118.234C118.572 125.072 121.736 131.897 125.014 138.661C129.821 146.126 136.861 155.686 143.171 154.606C138.111 145.611 132.837 136.74 127.514 127.895Z" fill="url(#paint9_linear_58_652)"/>
<path d="M369.098 160.332C369.492 160.804 369.946 161.261 370.54 161.681C378.06 155.783 384.789 148.529 390.797 141.122C395.213 135.676 399.365 129.462 399.993 122.58C389.445 134.956 379.56 147.891 369.098 160.332Z" fill="url(#paint10_linear_58_652)"/>
<path d="M346.629 81.9655C352.127 69.51 357.555 57.0247 362.675 44.4121C362.397 44.0402 362.067 43.702 361.641 43.4315C358.487 47.8651 338.432 77.1918 342.964 81.9237C343.998 83.0038 345.256 82.8904 346.629 81.9655Z" fill="url(#paint11_linear_58_652)"/>
<defs>
<linearGradient id="paint0_linear_58_652" x1="306.526" y1="218.491" x2="336.215" y2="240.081" gradientUnits="userSpaceOnUse">
<stop stop-color="#F3D225"/>
<stop offset="1" stop-color="#FFFADA"/>
</linearGradient>
<linearGradient id="paint1_linear_58_652" x1="283.581" y1="191.679" x2="287.423" y2="191.967" gradientUnits="userSpaceOnUse">
<stop stop-color="#F3D225"/>
<stop offset="1" stop-color="#FFFADA"/>
</linearGradient>
<linearGradient id="paint2_linear_58_652" x1="241.262" y1="96.3929" x2="257.257" y2="99.1993" gradientUnits="userSpaceOnUse">
<stop stop-color="#F3D225"/>
<stop offset="1" stop-color="#FFFADA"/>
</linearGradient>
<linearGradient id="paint3_linear_58_652" x1="178.563" y1="295.54" x2="211.417" y2="322.646" gradientUnits="userSpaceOnUse">
<stop stop-color="#F3D225"/>
<stop offset="1" stop-color="#FFFADA"/>
</linearGradient>
<linearGradient id="paint4_linear_58_652" x1="265.944" y1="107.738" x2="324.678" y2="181.704" gradientUnits="userSpaceOnUse">
<stop stop-color="#F3D225"/>
<stop offset="1" stop-color="#FFFADA"/>
</linearGradient>
<linearGradient id="paint5_linear_58_652" x1="145.597" y1="140.371" x2="211.563" y2="215.335" gradientUnits="userSpaceOnUse">
<stop stop-color="#F3D225"/>
<stop offset="1" stop-color="#FFFADA"/>
</linearGradient>
<linearGradient id="paint6_linear_58_652" x1="385.872" y1="239.061" x2="412.595" y2="273.292" gradientUnits="userSpaceOnUse">
<stop stop-color="#F3D225"/>
<stop offset="1" stop-color="#FFFADA"/>
</linearGradient>
<linearGradient id="paint7_linear_58_652" x1="372.3" y1="84.4568" x2="419.1" y2="126.992" gradientUnits="userSpaceOnUse">
<stop stop-color="#F3D225"/>
<stop offset="1" stop-color="#FFFADA"/>
</linearGradient>
<linearGradient id="paint8_linear_58_652" x1="191.153" y1="66.1384" x2="213.534" y2="78.8194" gradientUnits="userSpaceOnUse">
<stop stop-color="#F3D225"/>
<stop offset="1" stop-color="#FFFADA"/>
</linearGradient>
<linearGradient id="paint9_linear_58_652" x1="114.731" y1="115.713" x2="151.413" y2="144.003" gradientUnits="userSpaceOnUse">
<stop stop-color="#F3D225"/>
<stop offset="1" stop-color="#FFFADA"/>
</linearGradient>
<linearGradient id="paint10_linear_58_652" x1="368.32" y1="121.901" x2="406.459" y2="153.998" gradientUnits="userSpaceOnUse">
<stop stop-color="#F3D225"/>
<stop offset="1" stop-color="#FFFADA"/>
</linearGradient>
<linearGradient id="paint11_linear_58_652" x1="341.788" y1="42.7498" x2="374.7" y2="60.9389" gradientUnits="userSpaceOnUse">
<stop stop-color="#F3D225"/>
<stop offset="1" stop-color="#FFFADA"/>
</linearGradient>
</defs>
</svg>
