<svg width="96" height="65" viewBox="0 0 96 65" fill="none" xmlns="http://www.w3.org/2000/svg">
<circle cx="32" cy="32.7588" r="32" fill="#0B0F15"/>
<path d="M44 21.7588V26.7588C44 27.024 43.8946 27.2784 43.7071 27.4659C43.5196 27.6534 43.2652 27.7588 43 27.7588C42.7348 27.7588 42.4804 27.6534 42.2929 27.4659C42.1054 27.2784 42 27.024 42 26.7588V22.7588H38C37.7348 22.7588 37.4804 22.6534 37.2929 22.4659C37.1054 22.2784 37 22.024 37 21.7588C37 21.4936 37.1054 21.2392 37.2929 21.0517C37.4804 20.8641 37.7348 20.7588 38 20.7588H43C43.2652 20.7588 43.5196 20.8641 43.7071 21.0517C43.8946 21.2392 44 21.4936 44 21.7588ZM26 42.7588H22V38.7588C22 38.4936 21.8946 38.2392 21.7071 38.0517C21.5196 37.8641 21.2652 37.7588 21 37.7588C20.7348 37.7588 20.4804 37.8641 20.2929 38.0517C20.1054 38.2392 20 38.4936 20 38.7588V43.7588C20 44.024 20.1054 44.2784 20.2929 44.4659C20.4804 44.6534 20.7348 44.7588 21 44.7588H26C26.2652 44.7588 26.5196 44.6534 26.7071 44.4659C26.8946 44.2784 27 44.024 27 43.7588C27 43.4936 26.8946 43.2392 26.7071 43.0517C26.5196 42.8641 26.2652 42.7588 26 42.7588ZM43 37.7588C42.7348 37.7588 42.4804 37.8641 42.2929 38.0517C42.1054 38.2392 42 38.4936 42 38.7588V42.7588H38C37.7348 42.7588 37.4804 42.8641 37.2929 43.0517C37.1054 43.2392 37 43.4936 37 43.7588C37 44.024 37.1054 44.2784 37.2929 44.4659C37.4804 44.6534 37.7348 44.7588 38 44.7588H43C43.2652 44.7588 43.5196 44.6534 43.7071 44.4659C43.8946 44.2784 44 44.024 44 43.7588V38.7588C44 38.4936 43.8946 38.2392 43.7071 38.0517C43.5196 37.8641 43.2652 37.7588 43 37.7588ZM21 27.7588C21.2652 27.7588 21.5196 27.6534 21.7071 27.4659C21.8946 27.2784 22 27.024 22 26.7588V22.7588H26C26.2652 22.7588 26.5196 22.6534 26.7071 22.4659C26.8946 22.2784 27 22.024 27 21.7588C27 21.4936 26.8946 21.2392 26.7071 21.0517C26.5196 20.8641 26.2652 20.7588 26 20.7588H21C20.7348 20.7588 20.4804 20.8641 20.2929 21.0517C20.1054 21.2392 20 21.4936 20 21.7588V26.7588C20 27.024 20.1054 27.2784 20.2929 27.4659C20.4804 27.6534 20.7348 27.7588 21 27.7588ZM25 26.7588V38.7588C25 39.024 25.1054 39.2784 25.2929 39.4659C25.4804 39.6534 25.7348 39.7588 26 39.7588H38C38.2652 39.7588 38.5196 39.6534 38.7071 39.4659C38.8946 39.2784 39 39.024 39 38.7588V26.7588C39 26.4936 38.8946 26.2392 38.7071 26.0517C38.5196 25.8641 38.2652 25.7588 38 25.7588H26C25.7348 25.7588 25.4804 25.8641 25.2929 26.0517C25.1054 26.2392 25 26.4936 25 26.7588Z" fill="#FFF3AC"/>
<rect x="54" y="14.7588" width="40" height="39" rx="19.5" fill="#EAC506"/>
<rect x="54" y="14.7588" width="40" height="39" rx="19.5" stroke="white" stroke-width="4"/>
<path d="M79.68 38.9788H77.9V41.7588H75.48V38.9788H68.06V36.7388L74.68 27.1388H77.9V36.7388H79.68V38.9788ZM70.78 36.7388H75.48V29.8988L70.78 36.7388Z" fill="#0B0F15"/>
</svg>
