<svg width="96" height="65" viewBox="0 0 96 65" fill="none" xmlns="http://www.w3.org/2000/svg">
<circle cx="32" cy="32.7588" r="32" fill="#0B0F15"/>
<path d="M42 22.7588H22C21.2044 22.7588 20.4413 23.0749 19.8787 23.6375C19.3161 24.2001 19 24.9631 19 25.7588V39.7588C19 40.5544 19.3161 41.3175 19.8787 41.8801C20.4413 42.4427 21.2044 42.7588 22 42.7588H42C42.7956 42.7588 43.5587 42.4427 44.1213 41.8801C44.6839 41.3175 45 40.5544 45 39.7588V25.7588C45 24.9631 44.6839 24.2001 44.1213 23.6375C43.5587 23.0749 42.7956 22.7588 42 22.7588ZM35 31.7588C35 32.5544 34.6839 33.3175 34.1213 33.8801C33.5587 34.4427 32.7956 34.7588 32 34.7588C31.2044 34.7588 30.4413 34.4427 29.8787 33.8801C29.3161 33.3175 29 32.5544 29 31.7588C29 31.4936 28.8946 31.2392 28.7071 31.0517C28.5196 30.8641 28.2652 30.7588 28 30.7588H21V28.7588H43V30.7588H36C35.7348 30.7588 35.4804 30.8641 35.2929 31.0517C35.1054 31.2392 35 31.4936 35 31.7588ZM22 24.7588H42C42.2652 24.7588 42.5196 24.8641 42.7071 25.0517C42.8946 25.2392 43 25.4936 43 25.7588V26.7588H21V25.7588C21 25.4936 21.1054 25.2392 21.2929 25.0517C21.4804 24.8641 21.7348 24.7588 22 24.7588Z" fill="#FFF3AC"/>
<rect x="54" y="14.7588" width="40" height="39" rx="19.5" fill="#EAC506"/>
<rect x="54" y="14.7588" width="40" height="39" rx="19.5" stroke="white" stroke-width="4"/>
<path d="M73.88 29.4388H70.68V27.1388H76.34V41.7588H73.88V29.4388Z" fill="#0B0F15"/>
</svg>
