<svg width="503" height="470" viewBox="0 0 503 470" fill="none" xmlns="http://www.w3.org/2000/svg">
<rect x="94.375" y="179" width="302" height="115" fill="#0B0F15"/>
<g clip-path="url(#clip0_60_1016)">
<path d="M98.1285 59.4376C96.2852 61.104 95.8483 62.561 96.5567 65.359C97.0128 67.5723 119.694 123.723 120.154 124.023C120.241 124.07 117.439 109.854 113.893 92.4833C107.775 62.3704 107.457 60.85 106.373 59.7108C104.16 57.5202 100.36 57.3583 98.1285 59.4376Z" fill="url(#paint0_linear_60_1016)"/>
<path d="M120.819 72.5726C119.923 73.7289 120.468 75.0326 122.013 75.5161C122.985 75.8074 123.166 75.6785 123.834 74.7388C125.338 72.4411 122.519 70.4354 120.819 72.5726Z" fill="url(#paint1_linear_60_1016)"/>
<path d="M155.944 62.6429C155.202 63.8254 155.165 64.425 155.679 66.106C156.193 67.787 156.559 68.2633 157.835 68.829C160.717 70.0801 163.9 68.2247 164.153 65.2062C164.58 60.5906 158.401 58.6565 155.944 62.6429Z" fill="url(#paint2_linear_60_1016)"/>
<path d="M86.8468 83.6209C86.0065 85.2012 87.5385 87.0857 89.2867 86.5512C90.4298 86.2017 90.99 85.1481 90.6405 84.0051C90.291 82.862 89.2375 82.3018 88.0944 82.6513C87.577 82.883 87.0335 83.2697 86.8468 83.6209Z" fill="url(#paint3_linear_60_1016)"/>
<path d="M54.1488 95.235C52.186 97.232 52.6143 100.557 55.1343 102.066C56.3168 102.807 56.9163 102.844 58.5973 102.33C60.2784 101.816 60.7546 101.45 61.3204 100.174C62.0729 98.5473 61.6223 96.1117 60.3632 94.8791C59.5374 94.1022 57.083 93.5291 55.9399 93.8786C55.4431 94.1775 54.6512 94.7137 54.1488 95.235Z" fill="url(#paint4_linear_60_1016)"/>
<path d="M32.4126 102.542C31.0605 104.132 30.9209 107.042 32.1016 108.739C32.9012 109.671 104.127 167.082 105.444 167.782C105.774 167.902 104.67 166.695 102.911 165.028C101.285 163.319 97.3789 159.44 94.3394 156.472C91.3465 153.417 77.8938 139.957 64.4411 126.498C51.0351 112.95 39.4655 101.562 38.6753 101.142C36.8988 100.141 33.858 100.776 32.4126 102.542Z" fill="url(#paint5_linear_60_1016)"/>
<path d="M181.566 57.2351C181.017 57.8441 176.032 73.0438 168.343 97.6729C152.209 149.515 152.448 148.853 153.148 147.536C153.475 146.922 162.06 127.386 172.229 104.131C191.368 60.1941 191.368 60.1941 189.624 57.8595C187.638 55.4521 183.555 55.083 181.566 57.2351Z" fill="url(#paint6_linear_60_1016)"/>
<path d="M138.337 73.8343C137.735 74.7534 138.055 77.9642 140.218 97.302C141.622 109.592 142.881 119.722 142.989 119.836C143.361 120.09 144.966 75.5573 144.617 74.4142C143.923 71.9058 139.928 71.5833 138.337 73.8343Z" fill="url(#paint7_linear_60_1016)"/>
<path d="M77.5338 93.085C76.4824 94.2152 76.1183 95.4294 76.4883 96.6397C76.7761 97.5811 104.798 133.203 105.052 132.831C105.099 132.743 100.007 123.786 93.808 112.887C86.0317 99.2364 82.2072 92.9797 81.5048 92.6062C80.2084 91.9732 78.3779 92.2387 77.5338 93.085Z" fill="url(#paint8_linear_60_1016)"/>
<path d="M127.896 118.568C127.055 120.148 128.587 122.033 130.336 121.498C131.479 121.149 132.039 120.095 131.689 118.952C131.34 117.809 130.286 117.249 129.143 117.598C128.673 117.742 128.062 118.149 127.896 118.568Z" fill="url(#paint9_linear_60_1016)"/>
<path d="M109.471 125.157C109.371 126.511 110.63 127.744 111.969 127.555C113.308 127.366 113.943 125.113 112.901 124.108C111.817 122.969 109.531 123.668 109.471 125.157Z" fill="url(#paint10_linear_60_1016)"/>
<path d="M90.46 138.248C90.1594 138.708 90.096 139.462 90.2399 139.933C90.4866 140.74 91.9063 141.776 92.5787 141.571C93.3856 141.324 94.4332 139.46 94.207 138.72C93.9809 137.98 92.0699 137.021 91.263 137.267C91.0613 137.329 90.6729 137.742 90.46 138.248Z" fill="url(#paint11_linear_60_1016)"/>
<path d="M147.124 128.791C146.284 130.372 147.816 132.256 149.564 131.722C150.707 131.372 151.267 130.319 150.918 129.176C150.568 128.032 149.515 127.472 148.372 127.822C147.922 128.033 147.378 128.42 147.124 128.791Z" fill="url(#paint12_linear_60_1016)"/>
<path d="M127.313 138.304C126.38 140.06 126.301 140.525 126.981 141.788C129.48 146.832 136.84 144.214 135.216 138.902C134.764 137.423 134.331 136.967 132.879 136.308C130.328 135.177 128.667 135.758 127.313 138.304Z" fill="url(#paint13_linear_60_1016)"/>
<path d="M180.835 137.087C168.826 154.802 167.229 157.275 168.073 156.429C173.848 150.546 198.658 123.476 199.104 122.531C199.95 120.729 199.39 119.135 197.654 118.269C194.649 116.615 194.602 116.702 180.835 137.087Z" fill="url(#paint14_linear_60_1016)"/>
<path d="M58.3265 163.733C57.3723 165.422 57.7985 167.056 59.575 168.057C60.2773 168.43 69.1239 170.431 79.2425 172.264C89.3816 174.164 99.319 176.125 101.335 176.465C103.303 176.892 104.941 177.2 104.9 177.066C104.88 176.999 100.871 175.43 95.9322 173.705C90.9727 171.913 81.2498 168.489 74.3271 166.047C60.5489 161.142 59.7065 161.032 58.3265 163.733Z" fill="url(#paint15_linear_60_1016)"/>
<path d="M108.892 148.274C108.037 149.565 107.979 150.097 108.452 151.643C109.151 153.93 110.395 154.873 112.55 154.949C117.063 155.04 118.641 148.896 114.581 146.681C112.407 145.582 110.302 146.152 108.892 148.274Z" fill="url(#paint16_linear_60_1016)"/>
<path d="M127.822 157.044C127.589 157.483 127.572 158.15 127.716 158.621C128.292 160.503 131.181 160.576 131.562 158.695C131.818 157.367 131.607 156.917 130.574 156.424C129.499 155.796 128.336 156.078 127.822 157.044Z" fill="url(#paint17_linear_60_1016)"/>
<path d="M148.072 154.015C146.205 157.527 149.403 161.255 153.303 160.062C155.791 159.302 156.771 157.458 155.949 154.768C155.455 153.155 155.11 152.746 153.679 152.154C151.323 151.183 149.239 151.82 148.072 154.015Z" fill="url(#paint18_linear_60_1016)"/>
<path d="M112.74 166.875C111.946 168.368 113.431 170.34 115.045 169.847C115.986 169.559 116.847 168.046 116.6 167.239C116.128 165.692 113.486 165.471 112.74 166.875Z" fill="url(#paint19_linear_60_1016)"/>
</g>
<g clip-path="url(#clip1_60_1016)">
<path d="M411.697 403.018C413.388 401.197 413.696 399.708 412.747 396.982C412.1 394.817 384.611 340.857 384.127 340.598C384.035 340.559 388.066 354.476 393.113 371.472C401.832 400.937 402.281 402.424 403.46 403.464C405.856 405.454 409.655 405.284 411.697 403.018Z" fill="url(#paint20_linear_60_1016)"/>
<path d="M387.946 391.91C388.739 390.68 388.081 389.429 386.5 389.082C385.507 388.877 385.338 389.021 384.754 390.015C383.457 392.435 386.44 394.188 387.946 391.91Z" fill="url(#paint21_linear_60_1016)"/>
<path d="M353.823 404.864C354.458 403.621 354.443 403.02 353.785 401.391C353.126 399.761 352.72 399.318 351.4 398.866C348.419 397.871 345.41 399.996 345.421 403.026C345.398 407.661 351.722 409.049 353.823 404.864Z" fill="url(#paint22_linear_60_1016)"/>
<path d="M420.827 377.943C421.527 376.296 419.836 374.552 418.141 375.237C417.033 375.685 416.567 376.783 417.014 377.891C417.462 379 418.561 379.466 419.669 379.018C420.164 378.742 420.672 378.309 420.827 377.943Z" fill="url(#paint23_linear_60_1016)"/>
<path d="M452.388 363.524C454.169 361.363 453.453 358.088 450.811 356.805C449.568 356.169 448.968 356.185 447.338 356.843C445.708 357.502 445.266 357.908 444.813 359.228C444.205 360.915 444.867 363.302 446.228 364.42C447.119 365.122 449.614 365.479 450.722 365.031C451.191 364.69 451.933 364.087 452.388 363.524Z" fill="url(#paint24_linear_60_1016)"/>
<path d="M473.403 354.35C474.611 352.649 474.497 349.737 473.173 348.149C472.295 347.29 396.336 296.306 394.963 295.723C394.624 295.633 395.829 296.738 397.727 298.246C399.495 299.807 403.725 303.331 407.011 306.022C410.259 308.805 424.834 321.041 439.408 333.277C453.944 345.604 466.462 355.941 467.286 356.291C469.143 357.133 472.117 356.235 473.403 354.35Z" fill="url(#paint25_linear_60_1016)"/>
<path d="M328.766 412.484C329.259 411.83 332.9 396.253 338.414 371.048C349.969 317.997 349.788 318.677 349.205 320.05C348.933 320.69 342.083 340.9 333.98 364.952C318.744 410.391 318.744 410.391 320.684 412.564C322.872 414.79 326.972 414.801 328.766 412.484Z" fill="url(#paint26_linear_60_1016)"/>
<path d="M370.386 392.18C370.905 391.212 370.306 388.042 366.467 368.966C363.996 356.845 361.859 346.864 361.741 346.76C361.349 346.539 363.631 391.042 364.079 392.15C364.989 394.588 368.997 394.561 370.386 392.18Z" fill="url(#paint27_linear_60_1016)"/>
<path d="M429.279 367.704C430.228 366.486 430.485 365.245 430.011 364.071C429.642 363.159 398.622 330.115 398.402 330.507C398.363 330.599 404.216 339.079 411.341 349.395C420.278 362.316 424.633 368.216 425.365 368.527C426.712 369.044 428.512 368.62 429.279 367.704Z" fill="url(#paint28_linear_60_1016)"/>
<path d="M376.888 346.707C377.587 345.06 375.897 343.316 374.202 344.001C373.093 344.448 372.627 345.547 373.075 346.655C373.523 347.763 374.621 348.23 375.729 347.782C376.186 347.597 376.759 347.138 376.888 346.707Z" fill="url(#paint29_linear_60_1016)"/>
<path d="M394.669 338.537C394.651 337.179 393.289 336.061 391.972 336.366C390.654 336.671 390.218 338.97 391.344 339.881C392.523 340.921 394.739 340.025 394.669 338.537Z" fill="url(#paint30_linear_60_1016)"/>
<path d="M412.467 323.839C412.727 323.355 412.724 322.598 412.54 322.141C412.224 321.359 410.719 320.45 410.067 320.714C409.285 321.03 408.404 322.978 408.694 323.695C408.983 324.412 410.971 325.202 411.753 324.886C411.949 324.807 412.3 324.362 412.467 323.839Z" fill="url(#paint31_linear_60_1016)"/>
<path d="M356.843 338.198C357.542 336.551 355.852 334.807 354.157 335.492C353.049 335.94 352.582 337.038 353.03 338.146C353.478 339.255 354.576 339.721 355.684 339.273C356.114 339.023 356.622 338.591 356.843 338.198Z" fill="url(#paint32_linear_60_1016)"/>
<path d="M375.748 326.995C376.525 325.165 376.563 324.694 375.775 323.496C372.847 318.688 365.742 321.938 367.823 327.088C368.402 328.522 368.874 328.938 370.377 329.469C373.018 330.373 374.621 329.65 375.748 326.995Z" fill="url(#paint33_linear_60_1016)"/>
<path d="M322.537 332.872C332.957 314.178 334.332 311.575 333.565 312.492C328.325 318.856 305.969 347.984 305.606 348.965C304.921 350.834 305.618 352.373 307.422 353.085C310.561 354.471 310.6 354.379 322.537 332.872Z" fill="url(#paint34_linear_60_1016)"/>
<path d="M442.255 295.65C443.059 293.885 442.492 292.294 440.635 291.452C439.903 291.141 430.915 289.919 420.675 288.975C410.409 287.966 400.339 286.878 398.301 286.715C396.303 286.461 394.644 286.297 394.697 286.428C394.723 286.493 398.853 287.706 403.924 288.994C409.021 290.347 419.005 292.911 426.114 294.74C440.267 298.425 441.116 298.462 442.255 295.65Z" fill="url(#paint35_linear_60_1016)"/>
<path d="M393.23 315.458C393.97 314.097 393.981 313.562 393.375 312.063C392.48 309.846 391.158 309.015 389.004 309.127C384.501 309.43 383.465 315.687 387.702 317.54C389.964 318.446 392.011 317.695 393.23 315.458Z" fill="url(#paint36_linear_60_1016)"/>
<path d="M373.607 308.371C373.802 307.913 373.76 307.247 373.576 306.791C372.838 304.966 369.953 305.145 369.738 307.052C369.599 308.398 369.849 308.828 370.921 309.229C372.045 309.76 373.18 309.378 373.607 308.371Z" fill="url(#paint37_linear_60_1016)"/>
<path d="M353.7 313.153C355.254 309.492 351.743 306.057 347.962 307.585C345.55 308.559 344.734 310.482 345.788 313.089C346.42 314.654 346.8 315.031 348.277 315.496C350.708 316.258 352.729 315.442 353.7 313.153Z" fill="url(#paint38_linear_60_1016)"/>
<path d="M387.776 297.263C388.437 295.706 386.785 293.871 385.221 294.503C384.308 294.872 383.582 296.454 383.898 297.237C384.504 298.736 387.154 298.727 387.776 297.263Z" fill="url(#paint39_linear_60_1016)"/>
</g>
<rect x="89.7988" y="188.954" width="303.733" height="116.211" fill="#0B0F15"/>
<path d="M231.207 207.102C222.059 207.398 217.279 215.314 218.035 225.317C218.79 235.402 224.21 242.103 232.373 241.856C240.586 241.626 245.365 234.203 245.513 224.167C245.612 214.92 240.553 206.839 231.207 207.102Z" fill="#FDDA24"/>
<path d="M171.423 213.721C162.34 215.462 158.875 224.052 161.207 233.808C163.539 243.647 170.011 249.395 178.042 247.835C186.107 246.307 189.704 238.243 188.225 228.323C186.928 219.141 180.621 211.964 171.423 213.721Z" fill="#FDDA24"/>
<path d="M121.753 248.328C120.374 248.837 118.994 249.313 117.631 249.855C119.323 254.388 121.014 258.921 122.706 263.488C123.889 263.175 125.301 262.699 127.288 261.96C132.577 260.104 136.65 256.704 135.008 251.498C133.448 246.57 127.863 246.143 121.753 248.328Z" fill="#FDDA24"/>
<path d="M485 257.657L423.112 218.336L475.622 187.672L420.534 173.76L427.974 124.372L361.258 155.628L339.61 104.137L302.08 153.016L261.708 63.059L231.077 148.959L173.509 98.3224L159.417 121.547L161.158 169.736L147.804 140.698L137.966 156.859L52.2629 124.388L77.7537 188.707L0 205.673L81.7449 243.614L31.8472 285.283L82.2541 291.639L52.2793 346.201L127.799 305.222L162.8 394.982L177.911 359.965L178.715 309.821L193.908 341.389L203.861 321.91L231.832 385.407L241.473 327.56L288.546 383.83L309.799 315.455L326.848 324.685L332.81 307.423L354.852 339.796L378.142 352.344L388.177 305.633L443.577 338.876L402.483 282.096L485 257.657ZM145.39 260.235C142.466 264.243 136.816 267.692 126.814 271.371C121.246 273.424 116.943 274.771 114.331 275.445C107.843 259.825 101.421 244.238 94.9174 228.602C98.0545 226.614 104.854 223.412 111.408 221.063C119.439 218.205 124.629 217.285 129.54 218.074C134.188 218.649 138.081 221.194 139.329 225.678C140.61 230.129 138.869 235.024 133.301 239.031C133.318 239.064 133.334 239.13 133.334 239.196C140.183 238.719 145.998 241.709 147.788 248.147C149.085 252.647 147.854 256.77 145.39 260.235ZM179.142 257.049C163.983 260.038 152.075 251.53 148.018 237.356C143.797 222.541 152.042 208.022 169.994 204.54C188.734 201.041 200.231 212.029 201.693 226.089C203.401 242.99 194.187 254.158 179.142 257.049ZM232.046 251.136C216.59 251.662 206.259 241.364 204.518 226.729C202.728 211.422 213.075 198.414 231.29 197.855C250.211 197.362 259.836 209.993 259.048 224.151C258.095 241.084 247.238 250.644 232.046 251.136ZM307.944 256.507C308.978 250.003 309.98 243.482 310.982 236.978C311.918 230.836 313.101 223.428 314.513 216.037C314.448 216.037 314.382 216.021 314.283 216.004C311.196 222.114 307.517 228.897 304.347 234.482C300.914 240.674 297.662 246.964 294.459 253.271C291.371 252.795 288.3 252.352 285.212 251.957C284.177 245.108 283.06 238.276 281.796 231.427C280.63 225.218 279.414 217.712 278.691 210.863C278.577 210.863 278.544 210.863 278.494 210.863C277.492 217.762 276.458 225.645 275.439 232.035C274.536 238.539 273.633 244.977 272.713 251.465C269.05 251.136 265.371 250.89 261.708 250.66C263.794 233.546 266.045 216.464 268.492 199.383C274.585 199.777 280.679 200.335 286.756 201.025C288.07 206.954 289.302 212.9 290.501 218.829C291.519 224.988 292.39 231.607 292.767 237.767C292.849 237.767 292.915 237.767 293.014 237.8C295.412 232.1 298.352 225.645 301.127 220.291C304.084 214.986 307.139 209.697 310.276 204.458C316.189 205.492 322.118 206.675 327.981 208.005C325.288 225.021 322.43 242.037 319.457 259.004C315.63 258.1 311.77 257.246 307.944 256.507ZM330.889 262.765C326.98 261.714 324.861 258.1 325.813 254.175C326.832 250.167 330.494 247.983 334.683 249.132C338.904 250.282 340.957 253.928 339.741 257.969C338.575 261.829 334.978 263.882 330.889 262.765ZM347.904 267.889C344.012 266.641 342.09 262.913 343.256 259.036C344.472 255.062 348.282 253.107 352.454 254.487C356.609 255.867 358.4 259.611 356.987 263.57C355.608 267.38 351.945 269.236 347.904 267.889ZM373.461 269.975C371.917 273.671 368.271 275.346 364.247 273.753C360.239 272.209 358.58 268.448 359.944 264.67C361.323 260.892 365.183 259.184 369.273 260.777C373.428 262.403 374.939 266.198 373.461 269.975ZM375.136 258.971C372.18 257.788 369.207 256.606 366.251 255.538C369.683 244.451 373.083 233.398 376.417 222.311C380.967 223.987 385.533 225.76 390.05 227.633C385.04 238.029 380.08 248.508 375.136 258.971Z" fill="#FDDA24"/>
<path d="M126.895 231.033C125.696 227.321 121.721 226.417 115.907 228.47C113.098 229.489 111.554 230.228 110.52 230.786C111.916 234.515 113.328 238.276 114.724 242.054C116.071 241.544 117.434 241.035 118.814 240.542C125.318 238.21 128.061 234.695 126.895 231.033Z" fill="#FDDA24"/>
<defs>
<linearGradient id="paint0_linear_60_1016" x1="94.2497" y1="58.8157" x2="117.741" y2="55.9374" gradientUnits="userSpaceOnUse">
<stop stop-color="#F3D225"/>
<stop offset="1" stop-color="#FFFADA"/>
</linearGradient>
<linearGradient id="paint1_linear_60_1016" x1="119.791" y1="72.3374" x2="124.781" y2="75.1459" gradientUnits="userSpaceOnUse">
<stop stop-color="#F3D225"/>
<stop offset="1" stop-color="#FFFADA"/>
</linearGradient>
<linearGradient id="paint2_linear_60_1016" x1="154.142" y1="61.8305" x2="165.089" y2="68.073" gradientUnits="userSpaceOnUse">
<stop stop-color="#F3D225"/>
<stop offset="1" stop-color="#FFFADA"/>
</linearGradient>
<linearGradient id="paint3_linear_60_1016" x1="86.0016" y1="83.217" x2="91.1149" y2="86.1662" gradientUnits="userSpaceOnUse">
<stop stop-color="#F3D225"/>
<stop offset="1" stop-color="#FFFADA"/>
</linearGradient>
<linearGradient id="paint4_linear_60_1016" x1="51.521" y1="95.0687" x2="62.5978" y2="101.345" gradientUnits="userSpaceOnUse">
<stop stop-color="#F3D225"/>
<stop offset="1" stop-color="#FFFADA"/>
</linearGradient>
<linearGradient id="paint5_linear_60_1016" x1="28.268" y1="101.435" x2="117.412" y2="128.328" gradientUnits="userSpaceOnUse">
<stop stop-color="#F3D225"/>
<stop offset="1" stop-color="#FFFADA"/>
</linearGradient>
<linearGradient id="paint6_linear_60_1016" x1="127.957" y1="71.5982" x2="220.137" y2="110.333" gradientUnits="userSpaceOnUse">
<stop stop-color="#F3D225"/>
<stop offset="1" stop-color="#FFFADA"/>
</linearGradient>
<linearGradient id="paint7_linear_60_1016" x1="128.926" y1="75.1223" x2="158.508" y2="76.1207" gradientUnits="userSpaceOnUse">
<stop stop-color="#F3D225"/>
<stop offset="1" stop-color="#FFFADA"/>
</linearGradient>
<linearGradient id="paint8_linear_60_1016" x1="74.8618" y1="92.7608" x2="107.719" y2="95.0804" gradientUnits="userSpaceOnUse">
<stop stop-color="#F3D225"/>
<stop offset="1" stop-color="#FFFADA"/>
</linearGradient>
<linearGradient id="paint9_linear_60_1016" x1="127.05" y1="118.164" x2="132.164" y2="121.113" gradientUnits="userSpaceOnUse">
<stop stop-color="#F3D225"/>
<stop offset="1" stop-color="#FFFADA"/>
</linearGradient>
<linearGradient id="paint10_linear_60_1016" x1="108.912" y1="124.151" x2="113.997" y2="126.926" gradientUnits="userSpaceOnUse">
<stop stop-color="#F3D225"/>
<stop offset="1" stop-color="#FFFADA"/>
</linearGradient>
<linearGradient id="paint11_linear_60_1016" x1="89.4593" y1="137.737" x2="94.9974" y2="140.617" gradientUnits="userSpaceOnUse">
<stop stop-color="#F3D225"/>
<stop offset="1" stop-color="#FFFADA"/>
</linearGradient>
<linearGradient id="paint12_linear_60_1016" x1="146.279" y1="128.388" x2="151.392" y2="131.337" gradientUnits="userSpaceOnUse">
<stop stop-color="#F3D225"/>
<stop offset="1" stop-color="#FFFADA"/>
</linearGradient>
<linearGradient id="paint13_linear_60_1016" x1="125.209" y1="137.12" x2="136.261" y2="143.454" gradientUnits="userSpaceOnUse">
<stop stop-color="#F3D225"/>
<stop offset="1" stop-color="#FFFADA"/>
</linearGradient>
<linearGradient id="paint14_linear_60_1016" x1="158.246" y1="128.545" x2="195.377" y2="158.776" gradientUnits="userSpaceOnUse">
<stop stop-color="#F3D225"/>
<stop offset="1" stop-color="#FFFADA"/>
</linearGradient>
<linearGradient id="paint15_linear_60_1016" x1="55.8106" y1="162.828" x2="90.631" y2="193.36" gradientUnits="userSpaceOnUse">
<stop stop-color="#F3D225"/>
<stop offset="1" stop-color="#FFFADA"/>
</linearGradient>
<linearGradient id="paint16_linear_60_1016" x1="106.953" y1="147.482" x2="117.981" y2="153.601" gradientUnits="userSpaceOnUse">
<stop stop-color="#F3D225"/>
<stop offset="1" stop-color="#FFFADA"/>
</linearGradient>
<linearGradient id="paint17_linear_60_1016" x1="127.01" y1="156.662" x2="132.126" y2="159.585" gradientUnits="userSpaceOnUse">
<stop stop-color="#F3D225"/>
<stop offset="1" stop-color="#FFFADA"/>
</linearGradient>
<linearGradient id="paint18_linear_60_1016" x1="146.168" y1="153.042" x2="156.997" y2="159.231" gradientUnits="userSpaceOnUse">
<stop stop-color="#F3D225"/>
<stop offset="1" stop-color="#FFFADA"/>
</linearGradient>
<linearGradient id="paint19_linear_60_1016" x1="111.942" y1="166.542" x2="116.981" y2="169.55" gradientUnits="userSpaceOnUse">
<stop stop-color="#F3D225"/>
<stop offset="1" stop-color="#FFFADA"/>
</linearGradient>
<linearGradient id="paint20_linear_60_1016" x1="415.615" y1="403.299" x2="392.464" y2="408.214" gradientUnits="userSpaceOnUse">
<stop stop-color="#F3D225"/>
<stop offset="1" stop-color="#FFFADA"/>
</linearGradient>
<linearGradient id="paint21_linear_60_1016" x1="388.991" y1="392.055" x2="383.776" y2="389.692" gradientUnits="userSpaceOnUse">
<stop stop-color="#F3D225"/>
<stop offset="1" stop-color="#FFFADA"/>
</linearGradient>
<linearGradient id="paint22_linear_60_1016" x1="355.688" y1="405.516" x2="344.239" y2="400.251" gradientUnits="userSpaceOnUse">
<stop stop-color="#F3D225"/>
<stop offset="1" stop-color="#FFFADA"/>
</linearGradient>
<linearGradient id="paint23_linear_60_1016" x1="421.704" y1="378.272" x2="416.353" y2="375.78" gradientUnits="userSpaceOnUse">
<stop stop-color="#F3D225"/>
<stop offset="1" stop-color="#FFFADA"/>
</linearGradient>
<linearGradient id="paint24_linear_60_1016" x1="455.02" y1="363.46" x2="443.439" y2="358.173" gradientUnits="userSpaceOnUse">
<stop stop-color="#F3D225"/>
<stop offset="1" stop-color="#FFFADA"/>
</linearGradient>
<linearGradient id="paint25_linear_60_1016" x1="477.628" y1="355.092" x2="386.48" y2="336.07" gradientUnits="userSpaceOnUse">
<stop stop-color="#F3D225"/>
<stop offset="1" stop-color="#FFFADA"/>
</linearGradient>
<linearGradient id="paint26_linear_60_1016" x1="380.919" y1="393.503" x2="285.714" y2="362.95" gradientUnits="userSpaceOnUse">
<stop stop-color="#F3D225"/>
<stop offset="1" stop-color="#FFFADA"/>
</linearGradient>
<linearGradient id="paint27_linear_60_1016" x1="379.648" y1="390.077" x2="350.092" y2="391.661" gradientUnits="userSpaceOnUse">
<stop stop-color="#F3D225"/>
<stop offset="1" stop-color="#FFFADA"/>
</linearGradient>
<linearGradient id="paint28_linear_60_1016" x1="431.969" y1="367.794" x2="399.035" y2="368.347" gradientUnits="userSpaceOnUse">
<stop stop-color="#F3D225"/>
<stop offset="1" stop-color="#FFFADA"/>
</linearGradient>
<linearGradient id="paint29_linear_60_1016" x1="377.765" y1="347.036" x2="372.414" y2="344.543" gradientUnits="userSpaceOnUse">
<stop stop-color="#F3D225"/>
<stop offset="1" stop-color="#FFFADA"/>
</linearGradient>
<linearGradient id="paint30_linear_60_1016" x1="395.314" y1="339.491" x2="390.006" y2="337.169" gradientUnits="userSpaceOnUse">
<stop stop-color="#F3D225"/>
<stop offset="1" stop-color="#FFFADA"/>
</linearGradient>
<linearGradient id="paint31_linear_60_1016" x1="413.509" y1="324.261" x2="407.741" y2="321.874" gradientUnits="userSpaceOnUse">
<stop stop-color="#F3D225"/>
<stop offset="1" stop-color="#FFFADA"/>
</linearGradient>
<linearGradient id="paint32_linear_60_1016" x1="357.72" y1="338.527" x2="352.369" y2="336.035" gradientUnits="userSpaceOnUse">
<stop stop-color="#F3D225"/>
<stop offset="1" stop-color="#FFFADA"/>
</linearGradient>
<linearGradient id="paint33_linear_60_1016" x1="377.947" y1="327.991" x2="366.386" y2="322.645" gradientUnits="userSpaceOnUse">
<stop stop-color="#F3D225"/>
<stop offset="1" stop-color="#FFFADA"/>
</linearGradient>
<linearGradient id="paint34_linear_60_1016" x1="345.786" y1="339.413" x2="306.16" y2="312.534" gradientUnits="userSpaceOnUse">
<stop stop-color="#F3D225"/>
<stop offset="1" stop-color="#FFFADA"/>
</linearGradient>
<linearGradient id="paint35_linear_60_1016" x1="444.841" y1="296.333" x2="407.492" y2="268.951" gradientUnits="userSpaceOnUse">
<stop stop-color="#F3D225"/>
<stop offset="1" stop-color="#FFFADA"/>
</linearGradient>
<linearGradient id="paint36_linear_60_1016" x1="395.231" y1="316.077" x2="383.712" y2="310.943" gradientUnits="userSpaceOnUse">
<stop stop-color="#F3D225"/>
<stop offset="1" stop-color="#FFFADA"/>
</linearGradient>
<linearGradient id="paint37_linear_60_1016" x1="374.45" y1="308.68" x2="369.098" y2="306.215" gradientUnits="userSpaceOnUse">
<stop stop-color="#F3D225"/>
<stop offset="1" stop-color="#FFFADA"/>
</linearGradient>
<linearGradient id="paint38_linear_60_1016" x1="355.682" y1="313.956" x2="344.355" y2="308.735" gradientUnits="userSpaceOnUse">
<stop stop-color="#F3D225"/>
<stop offset="1" stop-color="#FFFADA"/>
</linearGradient>
<linearGradient id="paint39_linear_60_1016" x1="388.599" y1="297.526" x2="383.318" y2="294.968" gradientUnits="userSpaceOnUse">
<stop stop-color="#F3D225"/>
<stop offset="1" stop-color="#FFFADA"/>
</linearGradient>
<clipPath id="clip0_60_1016">
<rect width="180" height="180" fill="white" transform="translate(7.375 52.6269) rotate(-17)"/>
</clipPath>
<clipPath id="clip1_60_1016">
<rect width="180" height="180" fill="white" transform="translate(502.697 401.893) rotate(158)"/>
</clipPath>
</defs>
</svg>
