<svg width="807" height="782" viewBox="0 0 807 782" fill="none" xmlns="http://www.w3.org/2000/svg">
<g opacity="0.35" filter="url(#filter0_f_58_764)">
<ellipse cx="403.5" cy="391.322" rx="243.5" ry="230.5" fill="url(#paint0_linear_58_764)"/>
</g>
<path d="M548.511 319.246V268.193C548.631 267.705 548.694 267.214 548.697 266.719C548.813 248.09 464.736 232.467 360.906 231.826C257.076 231.184 172.811 245.766 172.696 264.395C172.692 265.013 172.781 265.627 172.96 266.238H172.882V328.648C172.882 341.782 212.436 353.211 270.751 359.095V409.837C211.693 415.161 171.494 426.095 171.414 438.958C171.41 439.576 171.5 440.19 171.679 440.801H171.601V503.211C171.601 522.361 255.688 537.886 359.415 537.886C463.143 537.886 547.23 522.361 547.23 503.211V442.756C547.293 442.501 547.34 442.246 547.37 441.989C606.31 436.139 646.38 424.648 646.38 411.428V350.973C646.501 350.485 646.564 349.994 646.567 349.499C646.646 336.702 606.999 325.324 548.511 319.246Z" fill="#0B0F15"/>
<path d="M359.205 473.852C357.466 473.841 355.732 473.826 354.004 473.807L352.521 483.554C352.466 483.915 351.945 483.915 351.89 483.554L350.399 473.761C254.066 472.369 176.742 458.084 171.678 440.801H171.6V503.211C171.6 522.361 255.687 537.886 359.414 537.886C463.142 537.886 547.229 522.361 547.229 503.211V442.756C542.813 460.675 460.28 474.477 359.205 473.852Z" fill="#0B0F15"/>
<path d="M530.976 466.056C530.976 465.006 530.123 464.154 529.071 464.154C528.019 464.154 527.166 465.006 527.166 466.056V503.475C527.166 504.525 528.019 505.377 529.071 505.377C530.123 505.377 530.976 504.525 530.976 503.475V466.056Z" fill="#F3D225"/>
<path d="M503.554 474.535C503.554 473.485 502.701 472.633 501.649 472.633C500.597 472.633 499.744 473.485 499.744 474.535V511.954C499.744 513.004 500.597 513.855 501.649 513.855C502.701 513.855 503.554 513.004 503.554 511.954V474.535Z" fill="#F3D225"/>
<path d="M472.531 480.986C472.531 479.936 471.678 479.084 470.626 479.084C469.573 479.084 468.721 479.936 468.721 480.986V518.405C468.721 519.455 469.573 520.306 470.626 520.306C471.678 520.306 472.531 519.455 472.531 518.405V480.986Z" fill="#F3D225"/>
<path d="M441.507 484.502C441.507 483.452 440.655 482.6 439.602 482.6C438.55 482.6 437.697 483.452 437.697 484.502V521.921C437.697 522.971 438.55 523.822 439.602 523.822C440.655 523.822 441.507 522.971 441.507 521.921V484.502Z" fill="#F3D225"/>
<path d="M410.486 486.885C410.486 485.835 409.633 484.983 408.581 484.983C407.528 484.983 406.676 485.835 406.676 486.885V524.304C406.676 525.354 407.528 526.205 408.581 526.205C409.633 526.205 410.486 525.354 410.486 524.304V486.885Z" fill="#F3D225"/>
<path d="M379.462 488.175C379.462 487.125 378.61 486.273 377.557 486.273C376.505 486.273 375.652 487.125 375.652 488.175V525.594C375.652 526.644 376.505 527.495 377.557 527.495C378.61 527.495 379.462 526.644 379.462 525.594V488.175Z" fill="#F3D225"/>
<path d="M191.663 466.056C191.663 465.006 190.811 464.154 189.758 464.154C188.706 464.154 187.854 465.006 187.854 466.056V503.475C187.854 504.525 188.706 505.377 189.758 505.377C190.811 505.377 191.663 504.525 191.663 503.475V466.056Z" fill="#F3D225"/>
<path d="M219.085 474.535C219.085 473.485 218.233 472.633 217.18 472.633C216.128 472.633 215.275 473.485 215.275 474.535V511.954C215.275 513.004 216.128 513.855 217.18 513.855C218.233 513.855 219.085 513.004 219.085 511.954V474.535Z" fill="#F3D225"/>
<path d="M250.109 480.986C250.109 479.936 249.256 479.084 248.204 479.084C247.151 479.084 246.299 479.936 246.299 480.986V518.405C246.299 519.455 247.151 520.306 248.204 520.306C249.256 520.306 250.109 519.455 250.109 518.405V480.986Z" fill="#F3D225"/>
<path d="M277.322 521.921C277.322 522.97 278.175 523.822 279.227 523.822C280.28 523.822 281.132 522.97 281.132 521.921V507.129L277.322 507.707V521.921Z" fill="#F3D225"/>
<path d="M281.13 484.502C281.13 483.452 280.278 482.6 279.225 482.6C278.173 482.6 277.32 483.452 277.32 484.502V506.061L281.13 506.639V484.502Z" fill="#F3D225"/>
<path d="M312.154 486.885C312.154 485.835 311.301 484.983 310.249 484.983C309.196 484.983 308.344 485.835 308.344 486.885V524.304C308.344 525.354 309.196 526.205 310.249 526.205C311.301 526.205 312.154 525.354 312.154 524.304V486.885Z" fill="#F3D225"/>
<path d="M343.177 488.175C343.177 487.125 342.325 486.273 341.272 486.273C340.22 486.273 339.367 487.125 339.367 488.175V525.594C339.367 526.644 340.22 527.495 341.272 527.495C342.325 527.495 343.177 526.644 343.177 525.594V488.175Z" fill="#F3D225"/>
<path d="M575.7 375.424L574.425 383.807C574.37 384.168 573.848 384.168 573.793 383.807L572.581 375.843C540.9 379.995 501.302 382.334 458.356 382.069C380.524 381.588 313.793 372.689 285.302 360.416C295.455 361.238 306.076 361.9 317.073 362.383C323.765 364.045 331.733 365.598 340.969 367.04C351.664 368.709 363.561 370.141 376.356 371.313L376.037 369.212C375.928 368.497 375.365 367.935 374.648 367.827L366.009 366.516L365.882 366.449C357.242 365.518 349.098 364.459 341.557 363.282C341.225 363.23 340.895 363.178 340.567 363.126C347.18 363.256 353.895 363.323 360.696 363.323C365.871 363.323 370.997 363.284 376.067 363.208L377.349 354.781C377.385 354.543 377.729 354.543 377.765 354.781L379.04 363.159C386.757 363.021 394.337 362.797 401.752 362.492C406.879 365.229 420.683 366.758 431.981 364.628C437.137 363.655 443.266 362.234 449.051 359.254C453.815 358.784 458.457 358.277 462.965 357.736C467.909 361.857 474.421 363.737 479.884 364.997C497.647 369.094 526.677 362.818 507.442 356.81C534.307 358.952 548.439 350.074 525.509 347.02C524.288 346.857 523.003 346.694 521.61 346.539C537.583 341.653 547.211 335.981 548.387 329.91C558.093 330.913 567.205 332.073 575.573 333.379C610.172 338.781 622.421 345.355 622.396 349.343C622.372 353.147 611.158 359.164 580.051 364.027C580.561 364.241 581.104 364.396 581.67 364.482L591.315 365.944C614.444 361.509 626.165 355.949 626.206 349.367C626.255 341.457 609.417 334.814 576.161 329.622C567.654 328.293 558.386 327.116 548.51 326.1V268.194C544.095 286.112 461.561 299.914 360.486 299.289C332.512 299.116 305.972 297.856 282.126 295.742C282.36 296.018 282.691 296.209 283.067 296.266L291.09 297.483C291.311 297.516 291.311 297.835 291.09 297.868L283.067 299.085C282.401 299.186 281.878 299.708 281.777 300.372L280.61 308.04C281.615 308.093 282.412 308.923 282.412 309.939V347.358C282.412 348.408 281.559 349.259 280.507 349.259C279.455 349.259 278.602 348.408 278.602 347.358V309.939C278.602 309.019 279.256 308.252 280.125 308.075L278.953 300.372C278.852 299.708 278.329 299.186 277.663 299.085L269.64 297.868C269.419 297.835 269.419 297.516 269.64 297.482L277.663 296.266C278.165 296.19 278.585 295.875 278.805 295.441C218.836 289.867 176.655 278.851 172.959 266.238H172.881V328.648C172.881 341.782 212.435 353.211 270.75 359.095V411.428C270.75 413.154 271.433 414.851 272.752 416.509C261.738 417.455 251.439 418.607 242.059 419.952C208.741 424.733 191.822 431.167 191.773 439.078C191.724 446.987 208.562 453.63 241.818 458.822C267.41 462.817 299.886 465.448 335.073 466.431L334.676 466.371C334.314 466.316 334.314 465.795 334.676 465.74L344.644 464.229C345.807 464.052 346.872 463.587 347.763 462.908C307.922 462.254 270.866 459.508 242.407 455.065C207.807 449.664 195.558 443.089 195.583 439.1C195.608 435.113 207.937 428.69 242.601 423.717C252.891 422.241 264.296 420.999 276.544 420.007C286.031 426.889 306.665 432.948 334.688 437.492C312.593 435.776 302.196 436.552 294.271 437.365C270.289 439.824 280.973 449.016 308.523 447.565C287.093 453.057 313.593 460.038 332.831 456.411C338.512 455.339 345.376 453.723 351.659 450.075L351.89 448.558C351.945 448.196 352.466 448.196 352.521 448.558L352.66 449.473C354.979 448.03 357.204 446.293 359.243 444.185C363.981 452.221 373.323 455.071 380.733 456.78C398.496 460.877 427.526 454.601 408.291 448.593C421.335 449.633 431.377 448.075 435.633 445.847C443.149 446.016 450.802 446.103 458.565 446.103C480.554 446.103 501.66 445.406 521.27 444.123C516.59 447.914 503.141 452.649 476.227 456.51C444.986 460.992 403.459 463.315 359.272 463.038C358.447 463.033 357.622 463.026 356.799 463.02C357.659 463.638 358.669 464.062 359.767 464.229L369.735 465.74C370.097 465.795 370.097 466.316 369.735 466.371L366.488 466.863C408.134 466.854 447.063 464.536 476.77 460.274C506.326 456.033 522.976 450.491 526.394 443.773C533.612 443.256 540.615 442.66 547.37 441.99C606.31 436.14 646.38 424.648 646.38 411.428V350.974C643.902 361.027 616.835 369.784 575.7 375.424Z" fill="#F3D225"/>
<path d="M458.424 371.255C430.715 371.084 404.059 369.906 380.342 367.851C379.685 368.002 379.181 368.539 379.079 369.212L378.727 371.526C402.872 373.66 430.095 374.883 458.4 375.058C460.745 375.072 463.079 375.08 465.408 375.08C504.221 375.08 540.683 373.075 569.538 369.36C568.674 368.733 567.656 368.303 566.548 368.136L558.186 366.867C529.612 369.938 494.922 371.482 458.424 371.255Z" fill="#F3D225"/>
<path d="M630.126 374.273C630.126 373.222 629.274 372.371 628.221 372.371C627.169 372.371 626.316 373.222 626.316 374.273V411.691C626.316 412.741 627.169 413.593 628.221 413.593C629.274 413.593 630.126 412.741 630.126 411.691V374.273Z" fill="#0B0F15"/>
<path d="M598.895 412.188V420.17C598.895 421.22 599.747 422.072 600.799 422.072C601.852 422.072 602.704 421.22 602.704 420.17V411.598L602.635 411.621L598.895 412.188Z" fill="#0B0F15"/>
<path d="M602.704 411.259V382.752C602.704 381.701 601.852 380.85 600.799 380.85C599.747 380.85 598.895 381.701 598.895 382.752V410.668L602.635 411.236L602.704 411.259Z" fill="#0B0F15"/>
<path d="M571.681 389.204C571.681 388.154 570.828 387.302 569.776 387.302C568.724 387.302 567.871 388.154 567.871 389.204V426.623C567.871 427.673 568.724 428.524 569.776 428.524C570.828 428.524 571.681 427.673 571.681 426.623V389.204Z" fill="#0B0F15"/>
<path d="M536.85 430.137C536.85 431.187 537.702 432.039 538.755 432.039C539.807 432.039 540.66 431.187 540.66 430.137V397.165L536.85 397.742V430.137Z" fill="#0B0F15"/>
<path d="M540.658 392.718C540.658 391.668 539.805 390.817 538.753 390.817C537.7 390.817 536.848 391.668 536.848 392.718V395.042L540.658 395.62V392.718Z" fill="#0B0F15"/>
<path d="M505.826 432.522C505.826 433.571 506.679 434.423 507.731 434.423C508.784 434.423 509.636 433.571 509.636 432.522V395.102C509.636 394.053 508.784 393.201 507.731 393.201C506.679 393.201 505.826 394.053 505.826 395.102V432.522Z" fill="#0B0F15"/>
<path d="M474.803 433.811C474.803 434.861 475.655 435.713 476.708 435.713C477.76 435.713 478.613 434.861 478.613 433.811V396.392C478.613 395.342 477.76 394.491 476.708 394.491C475.655 394.491 474.803 395.342 474.803 396.392V433.811Z" fill="#0B0F15"/>
<path d="M288.909 413.593C289.961 413.593 290.814 412.741 290.814 411.691V374.273C290.814 373.222 289.961 372.371 288.909 372.371C287.857 372.371 287.004 373.222 287.004 374.273V411.691C287.004 412.741 287.857 413.593 288.909 413.593Z" fill="#0B0F15"/>
<path d="M318.236 420.17V382.752C318.236 381.701 317.383 380.85 316.331 380.85C315.278 380.85 314.426 381.701 314.426 382.752V420.17C314.426 421.22 315.278 422.072 316.331 422.072C317.383 422.072 318.236 421.22 318.236 420.17Z" fill="#0B0F15"/>
<path d="M347.354 428.524C348.406 428.524 349.259 427.673 349.259 426.623V389.204C349.259 388.154 348.407 387.302 347.354 387.302C346.302 387.302 345.449 388.154 345.449 389.204V426.623C345.449 427.673 346.302 428.524 347.354 428.524Z" fill="#0B0F15"/>
<path d="M378.378 390.817C377.325 390.817 376.473 391.668 376.473 392.718V430.137C376.473 431.187 377.325 432.039 378.378 432.039C379.43 432.039 380.283 431.187 380.283 430.137V392.718C380.283 391.668 379.43 390.817 378.378 390.817Z" fill="#0B0F15"/>
<path d="M407.494 432.522C407.494 433.571 408.347 434.423 409.399 434.423C410.452 434.423 411.304 433.571 411.304 432.522V395.102C411.304 394.053 410.452 393.201 409.399 393.201C408.347 393.201 407.494 394.053 407.494 395.102V432.522Z" fill="#0B0F15"/>
<path d="M438.518 433.811C438.518 434.861 439.37 435.713 440.423 435.713C441.475 435.713 442.328 434.861 442.328 433.811V396.392C442.328 395.342 441.475 394.491 440.423 394.491C439.37 394.491 438.518 395.342 438.518 396.392V433.811Z" fill="#0B0F15"/>
<path d="M280.559 286.97L280.829 288.744C304.981 290.88 332.214 292.103 360.53 292.278C362.875 292.292 365.209 292.3 367.539 292.3C409.272 292.3 448.289 289.983 478.051 285.712C511.37 280.932 528.288 274.497 528.337 266.587C528.386 258.677 511.549 252.034 478.292 246.842C446.927 241.945 405.223 239.098 360.862 238.824C316.502 238.558 274.765 240.882 243.341 245.39C210.022 250.17 193.104 256.605 193.055 264.515C193.006 272.425 209.843 279.068 243.1 284.26C254.192 285.991 266.576 287.467 279.915 288.663L280.173 286.97C280.206 286.749 280.525 286.749 280.559 286.97Z" fill="#F3D225"/>
<path d="M196.865 264.538C196.89 260.55 209.219 254.128 243.883 249.154C246.162 248.828 248.496 248.512 250.881 248.208L251.359 245.069C251.414 244.707 251.935 244.707 251.99 245.069L252.438 248.013C280.772 244.498 316.185 242.605 353.849 242.605C356.168 242.605 358.504 242.612 360.839 242.627C405.017 242.9 446.521 245.731 477.705 250.599C512.305 256.001 524.553 262.575 524.528 266.564C524.503 270.552 512.175 276.975 477.51 281.948C446.268 286.43 404.719 288.741 360.555 288.475C316.376 288.203 274.873 285.371 243.689 280.503C209.089 275.101 196.84 268.526 196.865 264.538Z" fill="#FFFADA"/>
<path d="M528.447 328.912C528.447 329.962 529.3 330.813 530.352 330.813C531.405 330.813 532.257 329.962 532.257 328.912V291.493C532.257 290.442 531.405 289.591 530.352 289.591C529.3 289.591 528.447 290.442 528.447 291.493V328.912Z" fill="#0B0F15"/>
<path d="M501.025 337.391C501.025 338.441 501.878 339.292 502.93 339.292C503.983 339.292 504.835 338.441 504.835 337.391V299.972C504.835 298.922 503.983 298.071 502.93 298.071C501.878 298.071 501.025 298.922 501.025 299.972V337.391Z" fill="#0B0F15"/>
<path d="M471.907 304.521C470.855 304.521 470.002 305.373 470.002 306.423V343.842C470.002 344.893 470.855 345.744 471.907 345.744C472.959 345.744 473.812 344.893 473.812 343.842V306.423C473.812 305.373 472.959 304.521 471.907 304.521Z" fill="#0B0F15"/>
<path d="M442.79 347.358V309.939C442.79 308.888 441.938 308.037 440.885 308.037C439.833 308.037 438.98 308.888 438.98 309.939V347.358C438.98 348.408 439.833 349.259 440.885 349.259C441.938 349.259 442.79 348.408 442.79 347.358Z" fill="#0B0F15"/>
<path d="M407.957 349.741C407.957 350.791 408.81 351.643 409.862 351.643C410.914 351.643 411.767 350.792 411.767 349.741V312.322C411.767 311.272 410.914 310.421 409.862 310.421C408.81 310.421 407.957 311.272 407.957 312.322V349.741Z" fill="#0B0F15"/>
<path d="M376.934 351.031C376.934 352.082 377.786 352.933 378.839 352.933C379.891 352.933 380.744 352.082 380.744 351.031V313.612C380.744 312.562 379.891 311.71 378.839 311.71C377.786 311.71 376.934 312.562 376.934 313.612V351.031Z" fill="#0B0F15"/>
<path d="M192.945 291.493C192.945 290.442 192.092 289.591 191.04 289.591C189.987 289.591 189.135 290.442 189.135 291.493V328.912C189.135 329.962 189.987 330.813 191.04 330.813C192.092 330.813 192.945 329.962 192.945 328.912V291.493Z" fill="#0B0F15"/>
<path d="M216.557 337.391C216.557 338.441 217.409 339.292 218.462 339.292C219.514 339.292 220.367 338.441 220.367 337.391V314.896L216.557 314.319V337.391Z" fill="#0B0F15"/>
<path d="M220.367 299.972C220.367 298.922 219.514 298.071 218.462 298.071C217.409 298.071 216.557 298.922 216.557 299.972V313.222L220.367 312.644V299.972Z" fill="#0B0F15"/>
<path d="M251.39 306.423C251.39 305.373 250.537 304.521 249.485 304.521C248.433 304.521 247.58 305.373 247.58 306.423V343.842C247.58 344.893 248.433 345.744 249.485 345.744C250.537 345.744 251.39 344.893 251.39 343.842V306.423Z" fill="#0B0F15"/>
<path d="M309.625 349.741C309.625 350.791 310.478 351.643 311.53 351.643C312.582 351.643 313.435 350.792 313.435 349.741V312.322C313.435 311.272 312.582 310.421 311.53 310.421C310.478 310.421 309.625 311.272 309.625 312.322V349.741Z" fill="#0B0F15"/>
<path d="M278.752 346.891C278.752 347.941 279.605 348.792 280.657 348.792C281.709 348.792 282.562 347.941 282.562 346.891V328.181V309.472C282.562 308.421 281.709 307.57 280.657 307.57C279.605 307.57 278.752 308.421 278.752 309.472V346.891Z" fill="#0B0F15"/>
<path d="M340.648 351.031C340.648 352.082 341.501 352.933 342.553 352.933C343.606 352.933 344.458 352.082 344.458 351.031V313.612C344.458 312.562 343.606 311.71 342.553 311.71C341.501 311.71 340.648 312.562 340.648 313.612V351.031Z" fill="#0B0F15"/>
<path d="M244.113 260.74L234.144 262.252C233.783 262.306 233.783 262.827 234.144 262.882L244.112 264.393C247.072 264.842 249.394 267.161 249.844 270.114L251.358 280.065C251.413 280.426 251.935 280.426 251.99 280.065L253.504 270.114C253.954 267.161 256.276 264.842 259.235 264.393L269.203 262.882C269.565 262.827 269.565 262.306 269.203 262.252L259.235 260.74C256.276 260.291 253.954 257.973 253.504 255.019L252.438 248.013L251.989 245.069C251.934 244.707 251.413 244.707 251.358 245.069L250.88 248.208L249.844 255.019C249.394 257.973 247.072 260.291 244.113 260.74Z" fill="#F3D225"/>
<path d="M231.588 317.52C231.729 316.596 232.455 315.871 233.381 315.73L244.537 314.038C244.845 313.992 244.845 313.549 244.537 313.502L233.381 311.81C232.455 311.67 231.729 310.945 231.588 310.021L229.893 298.884C229.846 298.577 229.403 298.577 229.356 298.884L227.661 310.021C227.52 310.945 226.794 311.67 225.868 311.81L220.367 312.644L216.558 313.222L214.711 313.502C214.404 313.549 214.404 313.992 214.711 314.038L216.558 314.318L220.367 314.896L225.868 315.73C226.794 315.871 227.52 316.596 227.661 317.52L229.356 328.657C229.402 328.964 229.846 328.964 229.893 328.657L231.588 317.52Z" fill="#F3D225"/>
<path d="M280.829 288.744L280.559 286.97C280.525 286.749 280.206 286.749 280.172 286.97L279.915 288.663L278.953 294.979C278.928 295.143 278.877 295.298 278.805 295.441C278.585 295.875 278.165 296.19 277.664 296.266L269.641 297.483C269.419 297.516 269.419 297.835 269.641 297.868L277.664 299.085C278.33 299.186 278.852 299.708 278.953 300.372L280.126 308.075L280.172 308.382C280.206 308.603 280.525 308.603 280.559 308.382L280.611 308.04L281.778 300.372C281.879 299.708 282.402 299.186 283.067 299.085L291.091 297.868C291.312 297.835 291.312 297.516 291.091 297.483L283.067 296.266C282.691 296.209 282.361 296.018 282.127 295.742C281.946 295.53 281.822 295.268 281.778 294.979L280.829 288.744Z" fill="#F3D225"/>
<path d="M581.671 368.136L591.639 366.624C592.001 366.569 592.001 366.049 591.639 365.994L591.315 365.945L581.671 364.482C581.105 364.396 580.562 364.242 580.051 364.028C577.892 363.123 576.303 361.15 575.939 358.761L574.425 348.811C574.37 348.45 573.849 348.45 573.794 348.811L572.279 358.761C571.83 361.715 569.507 364.033 566.548 364.482L556.58 365.994C556.218 366.049 556.218 366.569 556.58 366.624L558.186 366.868L566.548 368.136C567.655 368.304 568.673 368.734 569.537 369.36C570.983 370.409 571.998 372.008 572.279 373.857L572.581 375.843L573.794 383.807C573.848 384.168 574.37 384.168 574.425 383.807L575.701 375.425L575.939 373.857C576.389 370.903 578.711 368.585 581.671 368.136Z" fill="#F3D225"/>
<path d="M514.159 396.66L525.315 398.352C526.241 398.492 526.967 399.218 527.108 400.142L528.803 411.278C528.849 411.586 529.293 411.586 529.34 411.278L531.035 400.142C531.176 399.218 531.902 398.493 532.828 398.352L536.849 397.742L540.659 397.164L543.985 396.66C544.292 396.614 544.292 396.171 543.985 396.124L540.659 395.62L536.849 395.042L532.828 394.432C531.902 394.292 531.176 393.566 531.035 392.642L529.34 381.506C529.293 381.199 528.849 381.199 528.803 381.506L527.108 392.642C526.967 393.566 526.241 394.292 525.315 394.432L514.159 396.124C513.851 396.171 513.851 396.614 514.159 396.66Z" fill="#F3D225"/>
<path d="M602.705 411.259L602.636 411.235L598.895 410.668L594.612 410.018C593.946 409.917 593.424 409.396 593.323 408.731L592.104 400.722C592.07 400.501 591.751 400.501 591.718 400.722L590.499 408.731C590.397 409.396 589.875 409.917 589.209 410.018L581.186 411.235C580.964 411.269 580.964 411.587 581.186 411.621L589.209 412.838C589.875 412.939 590.397 413.46 590.499 414.125L591.718 422.134C591.751 422.355 592.07 422.355 592.104 422.134L593.323 414.125C593.424 413.46 593.947 412.939 594.612 412.838L598.895 412.188L602.636 411.621L602.705 411.598C602.834 411.527 602.834 411.33 602.705 411.259Z" fill="#F3D225"/>
<path d="M350.375 473.603L350.399 473.761L351.889 483.553C351.944 483.914 352.466 483.914 352.521 483.553L354.004 473.807L354.035 473.603C354.485 470.649 356.807 468.331 359.766 467.882L366.488 466.863L369.734 466.37C370.096 466.316 370.096 465.795 369.734 465.74L359.766 464.228C358.668 464.062 357.658 463.638 356.798 463.019C355.342 461.972 354.318 460.365 354.035 458.507L352.66 449.473L352.521 448.557C352.466 448.196 351.944 448.196 351.889 448.557L351.658 450.075L350.375 458.508C350.102 460.3 349.139 461.859 347.763 462.907C346.871 463.587 345.807 464.052 344.644 464.228L334.676 465.74C334.314 465.795 334.314 466.315 334.676 466.37L335.073 466.43L344.644 467.882C347.603 468.331 349.925 470.649 350.375 473.603Z" fill="#F3D225"/>
<path d="M249.298 440.33C249.546 440.292 249.546 439.935 249.298 439.897L240.296 438.532C239.549 438.419 238.963 437.833 238.849 437.088L237.482 428.101C237.444 427.854 237.086 427.854 237.048 428.101L235.68 437.088C235.567 437.833 234.981 438.419 234.234 438.532L225.231 439.897C224.983 439.935 224.983 440.292 225.231 440.33L234.234 441.695C234.981 441.808 235.567 442.394 235.68 443.139L237.048 452.126C237.086 452.374 237.444 452.374 237.482 452.126L238.849 443.139C238.963 442.393 239.549 441.808 240.296 441.695L249.298 440.33Z" fill="#F3D225"/>
<path d="M377.766 377.836L378.727 371.526L379.079 369.213C379.181 368.539 379.686 368.002 380.342 367.851L380.467 367.827L389.107 366.516C389.345 366.48 389.345 366.138 389.107 366.101L380.467 364.791C379.751 364.683 379.188 364.121 379.079 363.405L379.042 363.16L377.767 354.782C377.73 354.543 377.387 354.543 377.351 354.782L376.068 363.209L376.038 363.405C375.929 364.121 375.366 364.683 374.65 364.791L366.01 366.101C365.827 366.129 365.785 366.338 365.884 366.449L366.01 366.516L374.65 367.827C375.366 367.936 375.929 368.497 376.038 369.213L376.358 371.313L377.351 377.836C377.387 378.074 377.73 378.074 377.766 377.836Z" fill="#F3D225"/>
<path d="M281.476 506.692L281.131 506.639L277.321 506.062L273.452 505.475C272.787 505.374 272.264 504.852 272.163 504.188L270.944 496.179C270.91 495.958 270.591 495.958 270.557 496.179L269.338 504.188C269.237 504.852 268.715 505.374 268.049 505.475L260.025 506.692C259.804 506.725 259.804 507.044 260.025 507.077L268.049 508.294C268.715 508.395 269.237 508.917 269.338 509.581L270.557 517.59C270.591 517.812 270.91 517.812 270.944 517.59L272.163 509.581C272.264 508.917 272.787 508.395 273.452 508.294L277.321 507.707L281.131 507.129L281.476 507.077C281.697 507.044 281.697 506.725 281.476 506.692Z" fill="#F3D225"/>
<defs>
<filter id="filter0_f_58_764" x="0" y="0.822266" width="807" height="781" filterUnits="userSpaceOnUse" color-interpolation-filters="sRGB">
<feFlood flood-opacity="0" result="BackgroundImageFix"/>
<feBlend mode="normal" in="SourceGraphic" in2="BackgroundImageFix" result="shape"/>
<feGaussianBlur stdDeviation="80" result="effect1_foregroundBlur_58_764"/>
</filter>
<linearGradient id="paint0_linear_58_764" x1="147.737" y1="152.819" x2="600.957" y2="662.745" gradientUnits="userSpaceOnUse">
<stop stop-color="#F3D225"/>
<stop offset="1" stop-color="#FFFADA"/>
</linearGradient>
</defs>
</svg>
