<svg width="96" height="65" viewBox="0 0 96 65" fill="none" xmlns="http://www.w3.org/2000/svg">
<circle cx="32" cy="32.7588" r="32" fill="#0B0F15"/>
<path d="M39 27.955V27.2588C39 24.1238 34.2712 21.7588 28 21.7588C21.7288 21.7588 17 24.1238 17 27.2588V32.2588C17 34.87 20.2812 36.945 25 37.5663V38.2588C25 41.3938 29.7288 43.7588 36 43.7588C42.2712 43.7588 47 41.3938 47 38.2588V33.2588C47 30.6713 43.8225 28.5938 39 27.955ZM23 35.1175C20.5512 34.4338 19 33.3075 19 32.2588V30.5C20.02 31.2225 21.3863 31.805 23 32.1963V35.1175ZM33 32.1963C34.6138 31.805 35.98 31.2225 37 30.5V32.2588C37 33.3075 35.4487 34.4338 33 35.1175V32.1963ZM31 41.1175C28.5513 40.4338 27 39.3075 27 38.2588V37.7375C27.3287 37.75 27.6613 37.7588 28 37.7588C28.485 37.7588 28.9587 37.7425 29.4237 37.715C29.9403 37.9 30.4665 38.0569 31 38.185V41.1175ZM31 35.54C30.0068 35.6868 29.004 35.7599 28 35.7588C26.996 35.7599 25.9932 35.6868 25 35.54V32.5663C25.9947 32.6959 26.9969 32.7602 28 32.7588C29.0031 32.7602 30.0053 32.6959 31 32.5663V35.54ZM39 41.54C37.0106 41.8317 34.9894 41.8317 33 41.54V38.5588C33.9944 38.6925 34.9967 38.7593 36 38.7588C37.0031 38.7602 38.0053 38.6959 39 38.5663V41.54ZM45 38.2588C45 39.3075 43.4487 40.4338 41 41.1175V38.1963C42.6138 37.805 43.98 37.2225 45 36.5V38.2588Z" fill="#FFF3AC"/>
<rect x="54" y="14.7588" width="40" height="39" rx="19.5" fill="#EAC506"/>
<rect x="54" y="14.7588" width="40" height="39" rx="19.5" stroke="white" stroke-width="4"/>
<path d="M73.18 34.5188H71.4V32.8588L75.16 29.3988H69.08V27.1388H78.36V29.1788L74.8 32.4588C77.04 32.8988 78.78 34.5388 78.78 37.1188C78.78 40.1188 76.44 42.0188 73.48 42.0188C70.62 42.0188 68.4 40.2588 68.4 37.0988H70.92C70.92 38.7788 71.96 39.7388 73.52 39.7388C75.12 39.7388 76.18 38.6988 76.18 37.0788C76.18 35.5988 75.22 34.5188 73.18 34.5188Z" fill="#0B0F15"/>
</svg>
