<svg width="96" height="65" viewBox="0 0 96 65" fill="none" xmlns="http://www.w3.org/2000/svg">
<circle cx="32" cy="32.7588" r="32" fill="#0B0F15"/>
<path d="M32 19.7588C29.4288 19.7588 26.9154 20.5212 24.7776 21.9497C22.6398 23.3781 20.9735 25.4085 19.9896 27.7839C19.0056 30.1593 18.7482 32.7732 19.2498 35.295C19.7514 37.8167 20.9895 40.1331 22.8076 41.9512C24.6257 43.7693 26.9421 45.0074 29.4638 45.509C31.9856 46.0106 34.5994 45.7532 36.9749 44.7692C39.3503 43.7853 41.3807 42.119 42.8091 39.9812C44.2376 37.8434 45 35.3299 45 32.7588C44.9964 29.3121 43.6256 26.0076 41.1884 23.5704C38.7512 21.1332 35.4467 19.7624 32 19.7588ZM23.55 25.7238L25.6838 27.8575C24.8004 28.9877 24.2389 30.3357 24.0588 31.7588H21.0463C21.2472 29.5392 22.1207 27.4338 23.55 25.7238ZM21.0463 33.7588H24.065C24.2451 35.1819 24.8066 36.5299 25.69 37.66L23.55 39.7938C22.1207 38.0838 21.2472 35.9784 21.0463 33.7588ZM31 43.7125C28.7808 43.5126 26.6755 42.6405 24.965 41.2125L27.0988 39.0788C28.23 39.9586 29.5779 40.5166 31 40.6938V43.7125ZM31 24.8238C29.5769 25.0039 28.2289 25.5654 27.0988 26.4488L24.965 24.3088C26.6755 22.8809 28.7808 22.0087 31 21.8088V24.8238ZM42.9538 31.7588H39.935C39.7567 30.3363 39.1974 28.9884 38.3163 27.8575L40.45 25.7238C41.8793 27.4338 42.7528 29.5392 42.9538 31.7588ZM33 21.805C35.2192 22.0049 37.3245 22.8771 39.035 24.305L36.9013 26.4425C35.7711 25.5591 34.4231 24.9977 33 24.8175V21.805ZM33 43.7125V40.6938C34.4225 40.5155 35.7704 39.9562 36.9013 39.075L39.035 41.2088C37.325 42.6381 35.2196 43.5116 33 43.7125ZM40.45 39.7938L38.3163 37.66C39.1974 36.5292 39.7567 35.1813 39.935 33.7588H42.9538C42.7528 35.9784 41.8793 38.0838 40.45 39.7938Z" fill="#FFF3AC"/>
<rect x="54" y="14.7588" width="40" height="39" rx="19.5" fill="#EAC506"/>
<rect x="54" y="14.7588" width="40" height="39" rx="19.5" stroke="white" stroke-width="4"/>
<path d="M79.06 41.7388L68.92 41.7588V39.8388L73.7 35.7988C75.68 34.1188 76.34 33.1588 76.34 31.7588C76.34 30.0988 75.44 29.1588 73.9 29.1588C72.3 29.1588 71.3 30.2788 71.28 32.1588H68.74C68.76 28.9588 70.8 26.8788 73.9 26.8788C77.02 26.8788 78.96 28.6588 78.96 31.6188C78.96 33.6588 77.84 35.1988 75.62 37.0988L72.98 39.3588H79.06V41.7388Z" fill="#0B0F15"/>
</svg>
